Caveat-RegularDummy.ufo
<glyph name="J" format="2">
  <advance width="306"/>
  <unicode hex="004A"/>
  <anchor x="398" y="785" name="topUC"/>
  <outline>
    <contour>
      <point x="89" y="-181" type="curve"/>
      <point x="111" y="-171"/>
      <point x="156" y="-128"/>
      <point x="162" y="-112" type="curve"/>
      <point x="162" y="-106"/>
      <point x="168" y="-102"/>
      <point x="168" y="-102" type="curve"/>
      <point x="173" y="-102"/>
      <point x="173" y="-96"/>
      <point x="173" y="-96" type="curve"/>
      <point x="173" y="-91"/>
      <point x="185" y="-75"/>
      <point x="192" y="-59" type="curve"/>
      <point x="203" y="-42"/>
      <point x="216" y="-4"/>
      <point x="227" y="23" type="curve"/>
      <point x="240" y="55"/>
      <point x="251" y="82"/>
      <point x="251" y="82" type="curve"/>
      <point x="257" y="88"/>
      <point x="264" y="104"/>
      <point x="264" y="115" type="curve"/>
      <point x="269" y="132"/>
      <point x="279" y="165"/>
      <point x="290" y="191" type="curve"/>
      <point x="297" y="218"/>
      <point x="319" y="279"/>
      <point x="326" y="301" type="curve"/>
      <point x="344" y="345"/>
      <point x="366" y="414"/>
      <point x="396" y="497" type="curve"/>
      <point x="446" y="632"/>
      <point x="451" y="643"/>
      <point x="435" y="665" type="curve"/>
      <point x="425" y="676"/>
      <point x="389" y="689"/>
      <point x="382" y="684" type="curve"/>
      <point x="364" y="681"/>
      <point x="336" y="678"/>
      <point x="310" y="674" type="curve"/>
      <point x="269" y="669"/>
      <point x="239" y="660"/>
      <point x="239" y="649" type="curve"/>
      <point x="238" y="638"/>
      <point x="254" y="621"/>
      <point x="260" y="626" type="curve"/>
      <point x="260" y="626"/>
      <point x="260" y="626"/>
      <point x="260" y="621" type="curve"/>
      <point x="259" y="615"/>
      <point x="286" y="610"/>
      <point x="309" y="619" type="curve"/>
      <point x="337" y="624"/>
      <point x="365" y="629"/>
      <point x="365" y="629" type="curve"/>
      <point x="369" y="623"/>
      <point x="344" y="554"/>
      <point x="320" y="477" type="curve"/>
      <point x="307" y="438"/>
      <point x="295" y="401"/>
      <point x="290" y="391" type="curve"/>
      <point x="283" y="374"/>
      <point x="271" y="336"/>
      <point x="265" y="308" type="curve"/>
      <point x="253" y="275"/>
      <point x="230" y="210"/>
      <point x="223" y="189" type="curve"/>
      <point x="218" y="167"/>
      <point x="211" y="150"/>
      <point x="210" y="145" type="curve"/>
      <point x="205" y="139"/>
      <point x="205" y="134"/>
      <point x="205" y="134" type="curve"/>
      <point x="193" y="101"/>
      <point x="133" y="-29"/>
      <point x="116" y="-68" type="curve"/>
      <point x="75" y="-132"/>
      <point x="39" y="-146"/>
      <point x="2" y="-113" type="curve"/>
      <point x="-7" y="-101"/>
      <point x="-18" y="-94"/>
      <point x="-23" y="-94" type="curve"/>
      <point x="-29" y="-94"/>
      <point x="-33" y="-101"/>
      <point x="-36" y="-112" type="curve"/>
      <point x="-42" y="-129"/>
      <point x="-39" y="-137"/>
      <point x="-29" y="-148" type="curve"/>
      <point x="3" y="-183"/>
      <point x="54" y="-197"/>
    </contour>
  </outline>
</glyph>
<glyph name="M" format="2">
  <advance width="720"/>
  <unicode hex="004D"/>
  <outline>
    <contour>
      <point x="661" y="-48" type="curve"/>
      <point x="661" y="-42"/>
      <point x="667" y="-41"/>
      <point x="674" y="-43" type="curve"/>
      <point x="680" y="-45"/>
      <point x="681" y="-25"/>
      <point x="687" y="27" type="curve"/>
      <point x="687" y="69"/>
      <point x="690" y="113"/>
      <point x="702" y="135" type="curve"/>
      <point x="699" y="149"/>
      <point x="711" y="199"/>
      <point x="718" y="243" type="curve"/>
      <point x="734" y="290"/>
      <point x="751" y="354"/>
      <point x="758" y="389" type="curve"/>
      <point x="785" y="472"/>
      <point x="799" y="557"/>
      <point x="798" y="586" type="curve"/>
      <point x="795" y="645"/>
      <point x="758" y="681"/>
      <point x="730" y="656" type="curve"/>
      <point x="713" y="643"/>
      <point x="684" y="591"/>
      <point x="653" y="544" type="curve"/>
      <point x="525" y="319"/>
      <point x="455" y="212"/>
      <point x="435" y="175" type="curve"/>
      <point x="419" y="155"/>
      <point x="400" y="129"/>
      <point x="391" y="113" type="curve"/>
      <point x="375" y="82"/>
      <point x="371" y="82"/>
      <point x="362" y="88" type="curve"/>
      <point x="352" y="102"/>
      <point x="384" y="337"/>
      <point x="427" y="467" type="curve"/>
      <point x="428" y="482"/>
      <point x="438" y="524"/>
      <point x="439" y="553" type="curve"/>
      <point x="448" y="601"/>
      <point x="437" y="609"/>
      <point x="426" y="625" type="curve"/>
      <point x="414" y="640"/>
      <point x="404" y="640"/>
      <point x="391" y="640" type="curve"/>
      <point x="379" y="642"/>
      <point x="365" y="614"/>
      <point x="365" y="586" type="curve"/>
      <point x="365" y="577"/>
      <point x="355" y="563"/>
      <point x="349" y="556" type="curve"/>
      <point x="327" y="536"/>
      <point x="284" y="458"/>
      <point x="223" y="353" type="curve"/>
      <point x="200" y="306"/>
      <point x="167" y="249"/>
      <point x="151" y="224" type="curve"/>
      <point x="136" y="194"/>
      <point x="120" y="167"/>
      <point x="114" y="159" type="curve"/>
      <point x="112" y="144"/>
      <point x="107" y="134"/>
      <point x="100" y="124" type="curve"/>
      <point x="92" y="118"/>
      <point x="76" y="89"/>
      <point x="59" y="55" type="curve"/>
      <point x="34" y="-1"/>
      <point x="31" y="-7"/>
      <point x="37" y="-21" type="curve"/>
      <point x="50" y="-35"/>
      <point x="63" y="-46"/>
      <point x="75" y="-46" type="curve"/>
      <point x="82" y="-38"/>
      <point x="84" y="-28"/>
      <point x="222" y="227" type="curve"/>
      <point x="265" y="321"/>
      <point x="318" y="401"/>
      <point x="327" y="416" type="curve"/>
      <point x="339" y="435"/>
      <point x="343" y="433"/>
      <point x="340" y="406" type="curve"/>
      <point x="332" y="386"/>
      <point x="316" y="279"/>
      <point x="298" y="186" type="curve"/>
      <point x="286" y="94"/>
      <point x="288" y="53"/>
      <point x="315" y="22" type="curve"/>
      <point x="350" y="-10"/>
      <point x="371" y="-1"/>
      <point x="418" y="48" type="curve"/>
      <point x="441" y="74"/>
      <point x="476" y="124"/>
      <point x="476" y="130" type="curve"/>
      <point x="476" y="130"/>
      <point x="488" y="153"/>
      <point x="501" y="171" type="curve"/>
      <point x="517" y="191"/>
      <point x="531" y="213"/>
      <point x="537" y="228" type="curve"/>
      <point x="540" y="234"/>
      <point x="554" y="263"/>
      <point x="566" y="280" type="curve"/>
      <point x="584" y="311"/>
      <point x="610" y="362"/>
      <point x="632" y="402" type="curve"/>
      <point x="654" y="437"/>
      <point x="674" y="485"/>
      <point x="687" y="498" type="curve"/>
      <point x="702" y="521"/>
      <point x="712" y="535"/>
      <point x="712" y="535" type="curve"/>
      <point x="710" y="542"/>
      <point x="732" y="567"/>
      <point x="732" y="561" type="curve"/>
      <point x="732" y="561"/>
      <point x="720" y="491"/>
      <point x="697" y="412" type="curve"/>
      <point x="662" y="258"/>
      <point x="636" y="116"/>
      <point x="624" y="46" type="curve"/>
      <point x="623" y="3"/>
      <point x="620" y="-12"/>
      <point x="631" y="-37" type="curve"/>
      <point x="641" y="-53"/>
      <point x="660" y="-56"/>
    </contour>
  </outline>
</glyph>
<glyph name="N" format="2">
  <advance width="599"/>
  <unicode hex="004E"/>
  <anchor x="302" y="-110" name="bottom"/>
  <anchor x="546" y="785" name="topUC"/>
  <outline>
    <contour>
      <point x="97" y="-62" type="curve"/>
      <point x="123" y="-90"/>
      <point x="135" y="-73"/>
      <point x="149" y="-36" type="curve"/>
      <point x="159" y="-7"/>
      <point x="180" y="67"/>
      <point x="228" y="192" type="curve"/>
      <point x="235" y="221"/>
      <point x="247" y="249"/>
      <point x="255" y="265" type="curve"/>
      <point x="259" y="278"/>
      <point x="305" y="383"/>
      <point x="325" y="435" type="curve"/>
      <point x="362" y="541"/>
      <point x="366" y="538"/>
      <point x="368" y="443" type="curve"/>
      <point x="364" y="347"/>
      <point x="346" y="263"/>
      <point x="376" y="181" type="curve"/>
      <point x="395" y="78"/>
      <point x="402" y="35"/>
      <point x="441" y="-16" type="curve"/>
      <point x="484" y="-71"/>
      <point x="522" y="-53"/>
      <point x="554" y="21" type="curve"/>
      <point x="583" y="87"/>
      <point x="624" y="192"/>
      <point x="659" y="343" type="curve"/>
      <point x="665" y="342"/>
      <point x="673" y="378"/>
      <point x="678" y="413" type="curve"/>
      <point x="684" y="452"/>
      <point x="706" y="528"/>
      <point x="706" y="550" type="curve"/>
      <point x="726" y="636"/>
      <point x="736" y="688"/>
      <point x="734" y="703" type="curve"/>
      <point x="727" y="723"/>
      <point x="686" y="733"/>
      <point x="680" y="718" type="curve"/>
      <point x="673" y="711"/>
      <point x="666" y="697"/>
      <point x="666" y="675" type="curve"/>
      <point x="666" y="661"/>
      <point x="659" y="638"/>
      <point x="653" y="638" type="curve"/>
      <point x="654" y="631"/>
      <point x="653" y="625"/>
      <point x="653" y="616" type="curve"/>
      <point x="653" y="610"/>
      <point x="634" y="531"/>
      <point x="621" y="482" type="curve"/>
      <point x="615" y="430"/>
      <point x="602" y="373"/>
      <point x="595" y="350" type="curve"/>
      <point x="530" y="88"/>
      <point x="496" y="33"/>
      <point x="484" y="33" type="curve"/>
      <point x="472" y="33"/>
      <point x="448" y="139"/>
      <point x="440" y="186" type="curve"/>
      <point x="422" y="252"/>
      <point x="431" y="367"/>
      <point x="428" y="481" type="curve"/>
      <point x="425" y="577"/>
      <point x="418" y="599"/>
      <point x="409" y="620" type="curve"/>
      <point x="396" y="659"/>
      <point x="354" y="661"/>
      <point x="330" y="620" type="curve"/>
      <point x="294" y="565"/>
      <point x="286" y="516"/>
      <point x="252" y="420" type="curve"/>
      <point x="229" y="370"/>
      <point x="200" y="316"/>
      <point x="199" y="308" type="curve"/>
      <point x="199" y="308"/>
      <point x="176" y="237"/>
      <point x="144" y="163" type="curve"/>
      <point x="129" y="88"/>
      <point x="107" y="67"/>
      <point x="91" y="4" type="curve"/>
      <point x="81" y="-35"/>
      <point x="76" y="-40"/>
    </contour>
  </outline>
</glyph>
<glyph name="f" format="2">
  <advance width="291"/>
  <unicode hex="0066"/>
  <outline>
    <contour>
      <point x="123" y="-106" type="curve"/>
      <point x="130" y="-99"/>
      <point x="131" y="-87"/>
      <point x="133" y="-69" type="curve"/>
      <point x="136" y="-40" type="line"/>
      <point x="136" y="-19"/>
      <point x="139" y="6"/>
      <point x="140" y="19" type="curve"/>
      <point x="141" y="23"/>
      <point x="141" y="28"/>
      <point x="141" y="29" type="curve"/>
      <point x="141" y="34"/>
      <point x="141" y="43"/>
      <point x="147" y="54" type="curve"/>
      <point x="147" y="65"/>
      <point x="147" y="80"/>
      <point x="155" y="90" type="curve"/>
      <point x="155" y="107"/>
      <point x="179" y="201"/>
      <point x="185" y="218" type="curve"/>
      <point x="188" y="223"/>
      <point x="189" y="229"/>
      <point x="189" y="239" type="curve"/>
      <point x="189" y="243"/>
      <point x="193" y="251"/>
      <point x="199" y="251" type="curve"/>
      <point x="199" y="257"/>
      <point x="272" y="267"/>
      <point x="308" y="276" type="curve"/>
      <point x="336" y="281"/>
      <point x="370" y="292"/>
      <point x="372" y="298" type="curve"/>
      <point x="377" y="305"/>
      <point x="367" y="333"/>
      <point x="351" y="343" type="curve"/>
      <point x="331" y="348"/>
      <point x="331" y="348"/>
      <point x="312" y="343" type="curve"/>
      <point x="280" y="334"/>
      <point x="227" y="328"/>
      <point x="227" y="336" type="curve"/>
      <point x="227" y="340"/>
      <point x="246" y="390"/>
      <point x="246" y="390" type="curve"/>
      <point x="245" y="390" type="line"/>
      <point x="250" y="395"/>
      <point x="260" y="412"/>
      <point x="265" y="425" type="curve"/>
      <point x="275" y="443"/>
      <point x="279" y="457"/>
      <point x="279" y="457" type="curve"/>
      <point x="285" y="457"/>
      <point x="285" y="464"/>
      <point x="285" y="470" type="curve"/>
      <point x="285" y="473"/>
      <point x="293" y="487"/>
      <point x="303" y="501" type="curve"/>
      <point x="317" y="518"/>
      <point x="322" y="531"/>
      <point x="322" y="531" type="curve"/>
      <point x="322" y="540"/>
      <point x="393" y="598"/>
      <point x="402" y="603" type="curve"/>
      <point x="416" y="607"/>
      <point x="419" y="599"/>
      <point x="413" y="586" type="curve"/>
      <point x="407" y="577"/>
      <point x="406" y="565"/>
      <point x="406" y="561" type="curve"/>
      <point x="406" y="561"/>
      <point x="413" y="550"/>
      <point x="413" y="541" type="curve"/>
      <point x="413" y="521"/>
      <point x="420" y="512"/>
      <point x="436" y="517" type="curve"/>
      <point x="447" y="518"/>
      <point x="475" y="579"/>
      <point x="480" y="605" type="curve"/>
      <point x="480" y="624"/>
      <point x="480" y="624"/>
      <point x="462" y="644" type="curve"/>
      <point x="445" y="660"/>
      <point x="442" y="665"/>
      <point x="417" y="665" type="curve"/>
      <point x="389" y="665"/>
      <point x="377" y="661"/>
      <point x="348" y="646" type="curve"/>
      <point x="324" y="626"/>
      <point x="265" y="569"/>
      <point x="255" y="543" type="curve"/>
      <point x="244" y="530"/>
      <point x="234" y="502"/>
      <point x="226" y="480" type="curve"/>
      <point x="207" y="447"/>
      <point x="193" y="407"/>
      <point x="166" y="331" type="curve"/>
      <point x="161" y="322"/>
      <point x="152" y="305"/>
      <point x="151" y="298" type="curve"/>
      <point x="142" y="293"/>
      <point x="137" y="283"/>
      <point x="137" y="272" type="curve"/>
      <point x="137" y="260"/>
      <point x="128" y="222"/>
      <point x="118" y="189" type="curve"/>
      <point x="114" y="159"/>
      <point x="109" y="140"/>
      <point x="106" y="128" type="curve"/>
      <point x="105" y="124"/>
      <point x="103" y="117"/>
      <point x="103" y="116" type="curve"/>
      <point x="97" y="90"/>
      <point x="85" y="15"/>
      <point x="85" y="4" type="curve"/>
      <point x="85" y="-1"/>
      <point x="85" y="-16"/>
      <point x="80" y="-31" type="curve"/>
      <point x="76" y="-65"/>
      <point x="78" y="-71"/>
      <point x="88" y="-82" type="curve"/>
      <point x="107" y="-104"/>
      <point x="115" y="-111"/>
    </contour>
  </outline>
</glyph>
<glyph name="k" format="2">
  <advance width="365"/>
  <unicode hex="006B"/>
  <anchor x="141" y="-110" name="bottom"/>
  <outline>
    <contour>
      <point x="112" y="5" type="curve"/>
      <point x="133" y="5"/>
      <point x="138" y="10"/>
      <point x="138" y="32" type="curve"/>
      <point x="133" y="48"/>
      <point x="155" y="118"/>
      <point x="165" y="144" type="curve"/>
      <point x="176" y="160"/>
      <point x="182" y="179"/>
      <point x="203" y="173" type="curve"/>
      <point x="209" y="163"/>
      <point x="214" y="157"/>
      <point x="214" y="152" type="curve"/>
      <point x="214" y="152"/>
      <point x="225" y="136"/>
      <point x="230" y="125" type="curve"/>
      <point x="235" y="115"/>
      <point x="241" y="104"/>
      <point x="241" y="99" type="curve"/>
      <point x="295" y="28"/>
      <point x="321" y="5"/>
      <point x="341" y="6" type="curve"/>
      <point x="362" y="-5"/>
      <point x="389" y="1"/>
      <point x="415" y="27" type="curve"/>
      <point x="431" y="43"/>
      <point x="431" y="43"/>
      <point x="426" y="54" type="curve"/>
      <point x="421" y="70"/>
      <point x="410" y="75"/>
      <point x="383" y="64" type="curve"/>
      <point x="351" y="49"/>
      <point x="319" y="70"/>
      <point x="304" y="112" type="curve"/>
      <point x="304" y="118"/>
      <point x="288" y="139"/>
      <point x="277" y="160" type="curve"/>
      <point x="266" y="176"/>
      <point x="253" y="202"/>
      <point x="253" y="202" type="curve"/>
      <point x="258" y="208"/>
      <point x="338" y="255"/>
      <point x="381" y="282" type="curve"/>
      <point x="415" y="303"/>
      <point x="424" y="312"/>
      <point x="410" y="330" type="curve"/>
      <point x="398" y="346"/>
      <point x="389" y="351"/>
      <point x="367" y="340" type="curve"/>
      <point x="362" y="335"/>
      <point x="341" y="324"/>
      <point x="325" y="313" type="curve"/>
      <point x="309" y="308"/>
      <point x="277" y="281"/>
      <point x="256" y="270" type="curve"/>
      <point x="234" y="254"/>
      <point x="212" y="245"/>
      <point x="212" y="245" type="curve"/>
      <point x="207" y="250"/>
      <point x="233" y="315"/>
      <point x="302" y="464" type="curve"/>
      <point x="339" y="539"/>
      <point x="361" y="603"/>
      <point x="361" y="624" type="curve"/>
      <point x="361" y="640"/>
      <point x="339" y="666"/>
      <point x="334" y="666" type="curve"/>
      <point x="329" y="666"/>
      <point x="323" y="666"/>
      <point x="318" y="661" type="curve"/>
      <point x="313" y="661"/>
      <point x="307" y="656"/>
      <point x="307" y="645" type="curve"/>
      <point x="302" y="624"/>
      <point x="272" y="557"/>
      <point x="249" y="502" type="curve"/>
      <point x="226" y="447"/>
      <point x="212" y="411"/>
      <point x="187" y="357" type="curve"/>
      <point x="171" y="320"/>
      <point x="144" y="251"/>
      <point x="128" y="219" type="curve"/>
      <point x="123" y="203"/>
      <point x="117" y="181"/>
      <point x="107" y="166" type="curve"/>
      <point x="91" y="118"/>
      <point x="80" y="79"/>
      <point x="74" y="64" type="curve"/>
      <point x="74" y="42"/>
      <point x="96" y="10"/>
    </contour>
  </outline>
</glyph>
<glyph name="u" format="2">
  <advance width="370"/>
  <unicode hex="0075"/>
  <anchor x="145" y="-110" name="bottom"/>
  <anchor x="372" y="40" name="ogonek"/>
  <anchor x="390" y="560" name="top"/>
  <outline>
    <contour>
      <point x="339" y="2" type="curve"/>
      <point x="359" y="-12"/>
      <point x="389" y="-4"/>
      <point x="394" y="15" type="curve"/>
      <point x="395" y="31"/>
      <point x="395" y="42"/>
      <point x="381" y="52" type="curve"/>
      <point x="361" y="69"/>
      <point x="352" y="91"/>
      <point x="352" y="115" type="curve"/>
      <point x="353" y="141"/>
      <point x="359" y="163"/>
      <point x="385" y="218" type="curve"/>
      <point x="416" y="290"/>
      <point x="421" y="329"/>
      <point x="407" y="341" type="curve"/>
      <point x="400" y="346"/>
      <point x="400" y="356"/>
      <point x="395" y="355" type="curve"/>
      <point x="379" y="354" type="line"/>
      <point x="376" y="360"/>
      <point x="364" y="352"/>
      <point x="359" y="345" type="curve"/>
      <point x="343" y="335"/>
      <point x="339" y="323"/>
      <point x="342" y="307" type="curve"/>
      <point x="340" y="281"/>
      <point x="336" y="263"/>
      <point x="325" y="237" type="curve"/>
      <point x="270" y="106"/>
      <point x="205" y="86"/>
      <point x="187" y="97" type="curve"/>
      <point x="158" y="107"/>
      <point x="186" y="183"/>
      <point x="214" y="252" type="curve"/>
      <point x="238" y="298"/>
      <point x="249" y="332"/>
      <point x="241" y="345" type="curve"/>
      <point x="238" y="363"/>
      <point x="224" y="372"/>
      <point x="204" y="365" type="curve"/>
      <point x="200" y="359"/>
      <point x="186" y="336"/>
      <point x="158" y="281" type="curve"/>
      <point x="124" y="206"/>
      <point x="117" y="169"/>
      <point x="115" y="123" type="curve"/>
      <point x="107" y="85"/>
      <point x="117" y="67"/>
      <point x="138" y="50" type="curve"/>
      <point x="163" y="18"/>
      <point x="189" y="23"/>
      <point x="233" y="51" type="curve"/>
      <point x="252" y="60"/>
      <point x="273" y="79"/>
      <point x="279" y="85" type="curve"/>
      <point x="287" y="91"/>
      <point x="297" y="102"/>
      <point x="301" y="112" type="curve"/>
      <point x="302" y="104"/>
      <point x="300" y="80"/>
      <point x="303" y="70" type="curve"/>
      <point x="311" y="39"/>
      <point x="325" y="15"/>
    </contour>
  </outline>
</glyph>
<glyph name="z" format="2">
  <advance width="315"/>
  <unicode hex="007A"/>
  <anchor x="157" y="-110" name="bottom"/>
  <anchor x="343" y="560" name="top"/>
  <outline>
    <contour>
      <point x="140" y="28" type="curve"/>
      <point x="197" y="35"/>
      <point x="254" y="44"/>
      <point x="315" y="49" type="curve"/>
      <point x="362" y="51"/>
      <point x="403" y="56"/>
      <point x="408" y="56" type="curve"/>
      <point x="412" y="62"/>
      <point x="400" y="82"/>
      <point x="387" y="86" type="curve"/>
      <point x="370" y="94"/>
      <point x="342" y="89"/>
      <point x="248" y="87" type="curve"/>
      <point x="190" y="90"/>
      <point x="119" y="79"/>
      <point x="119" y="79" type="curve"/>
      <point x="119" y="79"/>
      <point x="152" y="113"/>
      <point x="171" y="129" type="curve"/>
      <point x="187" y="140"/>
      <point x="203" y="156"/>
      <point x="207" y="161" type="curve"/>
      <point x="212" y="166"/>
      <point x="228" y="177"/>
      <point x="238" y="182" type="curve"/>
      <point x="243" y="189"/>
      <point x="273" y="205"/>
      <point x="298" y="222" type="curve"/>
      <point x="325" y="239"/>
      <point x="346" y="253"/>
      <point x="346" y="253" type="curve"/>
      <point x="350" y="253"/>
      <point x="355" y="260"/>
      <point x="360" y="266" type="curve"/>
      <point x="374" y="282"/>
      <point x="382" y="303"/>
      <point x="361" y="324" type="curve"/>
      <point x="334" y="347"/>
      <point x="323" y="352"/>
      <point x="208" y="354" type="curve"/>
      <point x="176" y="352"/>
      <point x="146" y="352"/>
      <point x="146" y="352" type="curve"/>
      <point x="141" y="357"/>
      <point x="136" y="352"/>
      <point x="125" y="345" type="curve"/>
      <point x="120" y="339"/>
      <point x="109" y="334"/>
      <point x="109" y="334" type="curve"/>
      <point x="111" y="320"/>
      <point x="152" y="304"/>
      <point x="163" y="304" type="curve"/>
      <point x="178" y="304" type="line"/>
      <point x="188" y="301"/>
      <point x="193" y="301"/>
      <point x="230" y="301" type="curve"/>
      <point x="257" y="303"/>
      <point x="294" y="299"/>
      <point x="304" y="298" type="curve"/>
      <point x="288" y="286"/>
      <point x="277" y="279"/>
      <point x="240" y="250" type="curve"/>
      <point x="162" y="197"/>
      <point x="150" y="188"/>
      <point x="136" y="177" type="curve"/>
      <point x="115" y="160"/>
      <point x="86" y="131"/>
      <point x="61" y="100" type="curve"/>
      <point x="19" y="57"/>
      <point x="22" y="48"/>
      <point x="34" y="38" type="curve"/>
      <point x="55" y="17"/>
      <point x="64" y="17"/>
    </contour>
  </outline>
</glyph>
<glyph name="asciitilde" format="2">
  <advance width="446"/>
  <unicode hex="007E"/>
  <outline>
    <contour>
      <point x="357" y="201" type="curve"/>
      <point x="365" y="201"/>
      <point x="377" y="203"/>
      <point x="389" y="207" type="curve"/>
      <point x="402" y="212"/>
      <point x="425" y="226"/>
      <point x="444" y="230" type="curve"/>
      <point x="464" y="239" type="line"/>
      <point x="476" y="253"/>
      <point x="480" y="262"/>
      <point x="480" y="268" type="curve"/>
      <point x="482" y="281"/>
      <point x="480" y="293"/>
      <point x="462" y="286" type="curve"/>
      <point x="453" y="285"/>
      <point x="449" y="284"/>
      <point x="448" y="282" type="curve"/>
      <point x="442" y="281"/>
      <point x="438" y="276"/>
      <point x="436" y="273" type="curve"/>
      <point x="410" y="266" type="line"/>
      <point x="405" y="263"/>
      <point x="374" y="252"/>
      <point x="363" y="251" type="curve"/>
      <point x="337" y="240"/>
      <point x="314" y="255"/>
      <point x="283" y="283" type="curve"/>
      <point x="260" y="306"/>
      <point x="226" y="315"/>
      <point x="200" y="311" type="curve"/>
      <point x="133" y="286"/>
      <point x="104" y="249"/>
      <point x="103" y="237" type="curve"/>
      <point x="102" y="230"/>
      <point x="112" y="218"/>
      <point x="127" y="214" type="curve"/>
      <point x="132" y="207"/>
      <point x="145" y="222"/>
      <point x="147" y="230" type="curve"/>
      <point x="175" y="233"/>
      <point x="190" y="275"/>
      <point x="222" y="265" type="curve"/>
      <point x="248" y="256"/>
      <point x="265" y="237"/>
      <point x="279" y="229" type="curve"/>
      <point x="304" y="212"/>
      <point x="327" y="201"/>
    </contour>
  </outline>
</glyph>
<glyph name="dotlessj" format="2">
  <advance width="204"/>
  <unicode hex="0237"/>
  <anchor x="237" y="560" name="top"/>
  <outline>
    <contour>
      <point x="60" y="-194" type="curve"/>
      <point x="77" y="-180"/>
      <point x="111" y="-129"/>
      <point x="121" y="-104" type="curve"/>
      <point x="140" y="-63"/>
      <point x="144" y="-45"/>
      <point x="145" y="-39" type="curve"/>
      <point x="147" y="-26"/>
      <point x="170" y="30"/>
      <point x="172" y="43" type="curve"/>
      <point x="173" y="52"/>
      <point x="182" y="81"/>
      <point x="187" y="101" type="curve"/>
      <point x="196" y="137"/>
      <point x="216" y="230"/>
      <point x="216" y="247" type="curve"/>
      <point x="226" y="330"/>
      <point x="226" y="325"/>
      <point x="211" y="342" type="curve"/>
      <point x="201" y="352"/>
      <point x="184" y="357"/>
      <point x="179" y="352" type="curve"/>
      <point x="179" y="347"/>
      <point x="174" y="330"/>
      <point x="174" y="310" type="curve"/>
      <point x="167" y="296"/>
      <point x="167" y="276"/>
      <point x="167" y="271" type="curve"/>
      <point x="167" y="266"/>
      <point x="157" y="237"/>
      <point x="152" y="201" type="curve"/>
      <point x="138" y="135"/>
      <point x="127" y="80"/>
      <point x="111" y="25" type="curve"/>
      <point x="96" y="-14"/>
      <point x="55" y="-99"/>
      <point x="36" y="-124" type="curve"/>
      <point x="21" y="-148"/>
      <point x="-9" y="-163"/>
      <point x="-23" y="-158" type="curve"/>
      <point x="-40" y="-158"/>
      <point x="-50" y="-139"/>
      <point x="-50" y="-119" type="curve"/>
      <point x="-50" y="-104"/>
      <point x="-60" y="-94"/>
      <point x="-69" y="-94" type="curve"/>
      <point x="-89" y="-94"/>
      <point x="-79" y="-153"/>
      <point x="-55" y="-190" type="curve"/>
      <point x="-23" y="-224"/>
      <point x="31" y="-224"/>
    </contour>
  </outline>
</glyph>
<glyph name="Lje-cy" format="2">
  <advance width="859"/>
  <unicode hex="0409"/>
  <outline>
    <contour>
      <point x="613" y="-20" type="curve"/>
      <point x="684" y="-17"/>
      <point x="688" y="-20"/>
      <point x="766" y="34" type="curve"/>
      <point x="768" y="36"/>
      <point x="801" y="70"/>
      <point x="802" y="71" type="curve"/>
      <point x="812" y="87"/>
      <point x="855" y="123"/>
      <point x="867" y="169" type="curve"/>
      <point x="883" y="196"/>
      <point x="882" y="226"/>
      <point x="888" y="254" type="curve"/>
      <point x="897" y="296"/>
      <point x="858" y="338"/>
      <point x="853" y="367" type="curve"/>
      <point x="851" y="373"/>
      <point x="839" y="378"/>
      <point x="836" y="385" type="curve"/>
      <point x="831" y="395"/>
      <point x="815" y="396"/>
      <point x="812" y="409" type="curve"/>
      <point x="811" y="410"/>
      <point x="762" y="439"/>
      <point x="733" y="441" type="curve"/>
      <point x="715" y="454"/>
      <point x="696" y="443"/>
      <point x="686" y="413" type="curve"/>
      <point x="691" y="399"/>
      <point x="698" y="389"/>
      <point x="714" y="393" type="curve"/>
      <point x="721" y="396"/>
      <point x="730" y="395"/>
      <point x="739" y="391" type="curve"/>
      <point x="766" y="379"/>
      <point x="802" y="358"/>
      <point x="825" y="308" type="curve"/>
      <point x="825" y="258"/>
      <point x="830" y="233"/>
      <point x="799" y="182" type="curve"/>
      <point x="754" y="111"/>
      <point x="725" y="84"/>
      <point x="667" y="50" type="curve"/>
      <point x="652" y="41"/>
      <point x="635" y="47"/>
      <point x="620" y="40" type="curve"/>
      <point x="608" y="33"/>
      <point x="571" y="44"/>
      <point x="550" y="62" type="curve"/>
      <point x="556" y="86"/>
      <point x="565" y="108"/>
      <point x="574" y="130" type="curve"/>
      <point x="588" y="164"/>
      <point x="602" y="198"/>
      <point x="615" y="233" type="curve"/>
      <point x="643" y="313"/>
      <point x="643" y="344"/>
      <point x="666" y="415" type="curve"/>
      <point x="671" y="428"/>
      <point x="668" y="442"/>
      <point x="672" y="455" type="curve"/>
      <point x="677" y="469"/>
      <point x="678" y="534"/>
      <point x="670" y="563" type="curve"/>
      <point x="654" y="636"/>
      <point x="615" y="640"/>
      <point x="559" y="676" type="curve"/>
      <point x="548" y="684"/>
      <point x="511" y="687"/>
      <point x="486" y="691" type="curve"/>
      <point x="470" y="705" type="line"/>
      <point x="458" y="705"/>
      <point x="447" y="705"/>
      <point x="437" y="705" type="curve"/>
      <point x="432" y="699"/>
      <point x="428" y="694"/>
      <point x="424" y="690" type="curve"/>
      <point x="409" y="689"/>
      <point x="395" y="691"/>
      <point x="383" y="688" type="curve"/>
      <point x="363" y="682"/>
      <point x="342" y="679"/>
      <point x="322" y="672" type="curve"/>
      <point x="312" y="669"/>
      <point x="306" y="664"/>
      <point x="301" y="654" type="curve"/>
      <point x="310" y="627"/>
      <point x="335" y="599"/>
      <point x="356" y="610" type="curve"/>
      <point x="372" y="618"/>
      <point x="410" y="626"/>
      <point x="420" y="623" type="curve"/>
      <point x="416" y="613"/>
      <point x="413" y="604"/>
      <point x="410" y="594" type="curve"/>
      <point x="399" y="561"/>
      <point x="388" y="528"/>
      <point x="377" y="495" type="curve"/>
      <point x="374" y="487"/>
      <point x="344" y="423"/>
      <point x="350" y="430" type="curve"/>
      <point x="338" y="415"/>
      <point x="344" y="399"/>
      <point x="334" y="391" type="curve"/>
      <point x="327" y="385"/>
      <point x="331" y="374"/>
      <point x="327" y="367" type="curve"/>
      <point x="311" y="343"/>
      <point x="298" y="316"/>
      <point x="289" y="288" type="curve"/>
      <point x="286" y="278"/>
      <point x="277" y="281"/>
      <point x="277" y="262" type="curve"/>
      <point x="265" y="247"/>
      <point x="256" y="235"/>
      <point x="247" y="223" type="curve"/>
      <point x="224" y="189"/>
      <point x="200" y="149"/>
      <point x="168" y="115" type="curve"/>
      <point x="157" y="104"/>
      <point x="145" y="94"/>
      <point x="137" y="81" type="curve"/>
      <point x="124" y="73"/>
      <point x="102" y="43"/>
      <point x="88" y="38" type="curve"/>
      <point x="76" y="36"/>
      <point x="68" y="27"/>
      <point x="59" y="23" type="curve"/>
      <point x="59" y="-3"/>
      <point x="65" y="-1"/>
      <point x="78" y="-18" type="curve"/>
      <point x="102" y="-27"/>
      <point x="135" y="-21"/>
      <point x="161" y="10" type="curve"/>
      <point x="174" y="25"/>
      <point x="189" y="39"/>
      <point x="203" y="53" type="curve"/>
      <point x="243" y="102"/>
      <point x="265" y="130"/>
      <point x="277" y="154" type="curve"/>
      <point x="281" y="162"/>
      <point x="335" y="243"/>
      <point x="355" y="290" type="curve"/>
      <point x="357" y="296"/>
      <point x="358" y="304"/>
      <point x="362" y="309" type="curve"/>
      <point x="375" y="324"/>
      <point x="409" y="417"/>
      <point x="422" y="453" type="curve"/>
      <point x="426" y="462"/>
      <point x="469" y="577"/>
      <point x="472" y="589" type="curve"/>
      <point x="474" y="594"/>
      <point x="481" y="627"/>
      <point x="482" y="629" type="curve"/>
      <point x="502" y="635"/>
      <point x="518" y="623"/>
      <point x="537" y="625" type="curve"/>
      <point x="534" y="625"/>
      <point x="565" y="611"/>
      <point x="569" y="609" type="curve"/>
      <point x="605" y="589"/>
      <point x="615" y="548"/>
      <point x="611" y="512" type="curve"/>
      <point x="610" y="500"/>
      <point x="608" y="435"/>
      <point x="600" y="422" type="curve"/>
      <point x="601" y="418"/>
      <point x="586" y="349"/>
      <point x="581" y="340" type="curve"/>
      <point x="579" y="335"/>
      <point x="566" y="296"/>
      <point x="561" y="284" type="curve"/>
      <point x="569" y="288"/>
      <point x="506" y="143"/>
      <point x="505" y="136" type="curve"/>
      <point x="491" y="121"/>
      <point x="473" y="70"/>
      <point x="481" y="38" type="curve"/>
      <point x="520" y="9"/>
      <point x="557" y="-25"/>
    </contour>
  </outline>
</glyph>
<glyph name="Ge-cy" format="2">
  <advance width="459"/>
  <unicode hex="0413"/>
  <anchor x="439" y="0" name="bottomright"/>
  <anchor x="219" y="305" name="center"/>
  <anchor x="219" y="610" name="top"/>
  <outline>
    <contour>
      <point x="136" y="-25" type="curve"/>
      <point x="138" y="-20"/>
      <point x="142" y="-15"/>
      <point x="142" y="-11" type="curve"/>
      <point x="143" y="10"/>
      <point x="149" y="27"/>
      <point x="154" y="46" type="curve"/>
      <point x="160" y="69"/>
      <point x="167" y="91"/>
      <point x="171" y="115" type="curve"/>
      <point x="174" y="135"/>
      <point x="205" y="228"/>
      <point x="212" y="242" type="curve"/>
      <point x="265" y="385" type="line"/>
      <point x="277" y="420"/>
      <point x="292" y="455"/>
      <point x="308" y="488" type="curve"/>
      <point x="326" y="526"/>
      <point x="316" y="507"/>
      <point x="335" y="543" type="curve"/>
      <point x="354" y="552"/>
      <point x="375" y="552"/>
      <point x="395" y="558" type="curve"/>
      <point x="414" y="564"/>
      <point x="433" y="567"/>
      <point x="453" y="568" type="curve"/>
      <point x="473" y="577"/>
      <point x="495" y="568"/>
      <point x="515" y="577" type="curve"/>
      <point x="522" y="573"/>
      <point x="525" y="568"/>
      <point x="530" y="557" type="curve"/>
      <point x="536" y="556"/>
      <point x="542" y="557"/>
      <point x="548" y="553" type="curve"/>
      <point x="560" y="548"/>
      <point x="570" y="549"/>
      <point x="585" y="557" type="curve"/>
      <point x="594" y="562"/>
      <point x="601" y="565"/>
      <point x="608" y="566" type="curve"/>
      <point x="619" y="569"/>
      <point x="635" y="582"/>
      <point x="646" y="589" type="curve"/>
      <point x="646" y="608" type="line"/>
      <point x="641" y="622"/>
      <point x="633" y="630"/>
      <point x="616" y="639" type="curve"/>
      <point x="605" y="639"/>
      <point x="596" y="642"/>
      <point x="590" y="638" type="curve"/>
      <point x="576" y="633"/>
      <point x="560" y="636"/>
      <point x="548" y="632" type="curve"/>
      <point x="531" y="626"/>
      <point x="495" y="630"/>
      <point x="492" y="627" type="curve"/>
      <point x="479" y="622"/>
      <point x="466" y="623"/>
      <point x="453" y="622" type="curve"/>
      <point x="438" y="622"/>
      <point x="312" y="593"/>
      <point x="299" y="590" type="curve"/>
      <point x="260" y="580"/>
      <point x="283" y="587"/>
      <point x="243" y="572" type="curve"/>
      <point x="237" y="571"/>
      <point x="210" y="566"/>
      <point x="202" y="560" type="curve"/>
      <point x="202" y="561"/>
      <point x="208" y="525"/>
      <point x="208" y="524" type="curve"/>
      <point x="212" y="515"/>
      <point x="235" y="506"/>
      <point x="252" y="508" type="curve"/>
      <point x="250" y="499"/>
      <point x="248" y="496"/>
      <point x="245" y="489" type="curve"/>
      <point x="229" y="458"/>
      <point x="209" y="393"/>
      <point x="199" y="373" type="curve"/>
      <point x="189" y="350"/>
      <point x="179" y="324"/>
      <point x="169" y="295" type="curve"/>
      <point x="158" y="264"/>
      <point x="146" y="233"/>
      <point x="139" y="200" type="curve"/>
      <point x="116" y="153" type="line"/>
      <point x="108" y="120"/>
      <point x="103" y="86"/>
      <point x="93" y="54" type="curve"/>
      <point x="88" y="37"/>
      <point x="85" y="17"/>
      <point x="82" y="-3" type="curve"/>
      <point x="91" y="-15"/>
      <point x="97" y="-19"/>
      <point x="103" y="-22" type="curve"/>
      <point x="121" y="-22"/>
      <point x="131" y="-23"/>
    </contour>
  </outline>
</glyph>
<glyph name="Pe-cy" format="2">
  <advance width="604"/>
  <unicode hex="041F"/>
  <outline>
    <contour>
      <point x="124" y="-23" type="curve"/>
      <point x="138" y="-24"/>
      <point x="145" y="-18"/>
      <point x="150" y="-7" type="curve"/>
      <point x="154" y="18"/>
      <point x="151" y="7"/>
      <point x="157" y="29" type="curve"/>
      <point x="162" y="52"/>
      <point x="167" y="75"/>
      <point x="175" y="96" type="curve"/>
      <point x="186" y="153"/>
      <point x="188" y="123"/>
      <point x="233" y="272" type="curve"/>
      <point x="228" y="255"/>
      <point x="276" y="390"/>
      <point x="283" y="404" type="curve"/>
      <point x="293" y="445"/>
      <point x="321" y="511"/>
      <point x="352" y="571" type="curve"/>
      <point x="352" y="578"/>
      <point x="359" y="581"/>
      <point x="369" y="583" type="curve"/>
      <point x="380" y="583"/>
      <point x="460" y="597"/>
      <point x="495" y="601" type="curve"/>
      <point x="550" y="608"/>
      <point x="576" y="613"/>
      <point x="621" y="618" type="curve"/>
      <point x="623" y="598"/>
      <point x="605" y="567"/>
      <point x="592" y="519" type="curve"/>
      <point x="583" y="485"/>
      <point x="575" y="451"/>
      <point x="562" y="418" type="curve"/>
      <point x="542" y="363"/>
      <point x="549" y="351"/>
      <point x="528" y="292" type="curve"/>
      <point x="509" y="221" type="line"/>
      <point x="505" y="218"/>
      <point x="494" y="185"/>
      <point x="487" y="151" type="curve"/>
      <point x="481" y="116"/>
      <point x="474" y="78"/>
      <point x="471" y="41" type="curve"/>
      <point x="469" y="30"/>
      <point x="475" y="22"/>
      <point x="480" y="12" type="curve"/>
      <point x="486" y="4"/>
      <point x="520" y="2"/>
      <point x="531" y="12" type="curve"/>
      <point x="536" y="14"/>
      <point x="535" y="18"/>
      <point x="534" y="23" type="curve"/>
      <point x="535" y="50"/>
      <point x="541" y="78"/>
      <point x="543" y="105" type="curve"/>
      <point x="541" y="105"/>
      <point x="601" y="324"/>
      <point x="605" y="336" type="curve"/>
      <point x="616" y="367"/>
      <point x="619" y="404"/>
      <point x="638" y="433" type="curve"/>
      <point x="638" y="454"/>
      <point x="670" y="557"/>
      <point x="685" y="576" type="curve"/>
      <point x="695" y="599"/>
      <point x="696" y="625"/>
      <point x="701" y="626" type="curve"/>
      <point x="730" y="620"/>
      <point x="748" y="619"/>
      <point x="753" y="634" type="curve"/>
      <point x="758" y="656"/>
      <point x="735" y="674"/>
      <point x="718" y="677" type="curve"/>
      <point x="704" y="680"/>
      <point x="690" y="683"/>
      <point x="676" y="681" type="curve"/>
      <point x="588" y="671"/>
      <point x="429" y="650"/>
      <point x="417" y="644" type="curve"/>
      <point x="412" y="641"/>
      <point x="335" y="642"/>
      <point x="307" y="649" type="curve"/>
      <point x="291" y="653"/>
      <point x="279" y="645"/>
      <point x="281" y="629" type="curve"/>
      <point x="281" y="611"/>
      <point x="291" y="611"/>
      <point x="286" y="599" type="curve"/>
      <point x="277" y="566"/>
      <point x="265" y="539"/>
      <point x="251" y="509" type="curve"/>
      <point x="239" y="475"/>
      <point x="228" y="441"/>
      <point x="216" y="407" type="curve"/>
      <point x="201" y="365"/>
      <point x="194" y="347"/>
      <point x="178" y="301" type="curve"/>
      <point x="159" y="254"/>
      <point x="131" y="162"/>
      <point x="116" y="114" type="curve"/>
      <point x="111" y="97"/>
      <point x="107" y="83"/>
      <point x="103" y="66" type="curve"/>
      <point x="99" y="45"/>
      <point x="89" y="27"/>
      <point x="82" y="7" type="curve"/>
      <point x="82" y="-7"/>
      <point x="83" y="-21"/>
    </contour>
  </outline>
</glyph>
<glyph name="U-cy" format="2">
  <advance width="512"/>
  <unicode hex="0423"/>
  <anchor x="441" y="769" name="topUC"/>
  <outline>
    <contour>
      <point x="616" y="671" type="curve"/>
      <point x="610" y="673"/>
      <point x="604" y="671"/>
      <point x="597" y="671" type="curve"/>
      <point x="589" y="671"/>
      <point x="586" y="668"/>
      <point x="584" y="660" type="curve"/>
      <point x="577" y="611"/>
      <point x="551" y="550"/>
      <point x="538" y="507" type="curve"/>
      <point x="473" y="384" type="line"/>
      <point x="462" y="361"/>
      <point x="446" y="340"/>
      <point x="434" y="316" type="curve"/>
      <point x="422" y="293"/>
      <point x="405" y="273"/>
      <point x="395" y="249" type="curve"/>
      <point x="387" y="230"/>
      <point x="372" y="216"/>
      <point x="360" y="198" type="curve"/>
      <point x="346" y="181" type="line"/>
      <point x="329" y="212"/>
      <point x="299" y="307"/>
      <point x="298" y="343" type="curve"/>
      <point x="295" y="353"/>
      <point x="286" y="455"/>
      <point x="288" y="434" type="curve"/>
      <point x="285" y="472"/>
      <point x="289" y="585"/>
      <point x="292" y="607" type="curve"/>
      <point x="295" y="622"/>
      <point x="290" y="638"/>
      <point x="298" y="653" type="curve"/>
      <point x="305" y="664"/>
      <point x="279" y="701"/>
      <point x="251" y="697" type="curve"/>
      <point x="232" y="697"/>
      <point x="236" y="672"/>
      <point x="235" y="660" type="curve"/>
      <point x="232" y="644"/>
      <point x="229" y="567"/>
      <point x="228" y="573" type="curve"/>
      <point x="231" y="399" type="line"/>
      <point x="232" y="388"/>
      <point x="237" y="377"/>
      <point x="233" y="367" type="curve"/>
      <point x="250" y="279" type="line"/>
      <point x="249" y="267"/>
      <point x="255" y="257"/>
      <point x="258" y="245" type="curve"/>
      <point x="269" y="207"/>
      <point x="285" y="172"/>
      <point x="317" y="145" type="curve"/>
      <point x="300" y="118"/>
      <point x="279" y="97"/>
      <point x="260" y="76" type="curve"/>
      <point x="247" y="64"/>
      <point x="175" y="-8"/>
      <point x="172" y="-15" type="curve"/>
      <point x="166" y="-30"/>
      <point x="176" y="-38"/>
      <point x="190" y="-46" type="curve"/>
      <point x="203" y="-54"/>
      <point x="215" y="-52"/>
      <point x="224" y="-41" type="curve"/>
      <point x="243" y="-23"/>
      <point x="260" y="-4"/>
      <point x="277" y="14" type="curve"/>
      <point x="308" y="45"/>
      <point x="339" y="75"/>
      <point x="363" y="111" type="curve"/>
      <point x="378" y="128"/>
      <point x="428" y="194"/>
      <point x="440" y="214" type="curve"/>
      <point x="465" y="252"/>
      <point x="489" y="291"/>
      <point x="511" y="330" type="curve"/>
      <point x="527" y="357"/>
      <point x="541" y="383"/>
      <point x="555" y="410" type="curve"/>
      <point x="566" y="428"/>
      <point x="615" y="553"/>
      <point x="633" y="588" type="curve"/>
      <point x="637" y="600"/>
      <point x="642" y="610"/>
      <point x="645" y="619" type="curve"/>
      <point x="651" y="641"/>
      <point x="638" y="666"/>
    </contour>
  </outline>
</glyph>
<glyph name="Tse-cy" format="2">
  <advance width="650"/>
  <unicode hex="0426"/>
  <outline>
    <contour>
      <point x="565" y="-217" type="curve"/>
      <point x="570" y="-202"/>
      <point x="578" y="-188"/>
      <point x="583" y="-172" type="curve"/>
      <point x="594" y="-169"/>
      <point x="590" y="-149"/>
      <point x="605" y="-122" type="curve"/>
      <point x="616" y="-106"/>
      <point x="623" y="-89"/>
      <point x="631" y="-70" type="curve"/>
      <point x="642" y="-46"/>
      <point x="645" y="-23"/>
      <point x="642" y="0" type="curve"/>
      <point x="640" y="23"/>
      <point x="629" y="39"/>
      <point x="608" y="46" type="curve"/>
      <point x="593" y="51"/>
      <point x="579" y="57"/>
      <point x="564" y="56" type="curve"/>
      <point x="551" y="54"/>
      <point x="547" y="53"/>
      <point x="535" y="62" type="curve"/>
      <point x="545" y="87"/>
      <point x="545" y="116"/>
      <point x="558" y="141" type="curve"/>
      <point x="560" y="170"/>
      <point x="588" y="231"/>
      <point x="593" y="251" type="curve"/>
      <point x="601" y="280"/>
      <point x="613" y="310"/>
      <point x="626" y="340" type="curve"/>
      <point x="646" y="387"/>
      <point x="666" y="433"/>
      <point x="688" y="480" type="curve"/>
      <point x="698" y="502"/>
      <point x="743" y="600"/>
      <point x="739" y="610" type="curve"/>
      <point x="738" y="613"/>
      <point x="714" y="636"/>
      <point x="695" y="636" type="curve"/>
      <point x="681" y="634"/>
      <point x="609" y="456"/>
      <point x="600" y="435" type="curve"/>
      <point x="589" y="407"/>
      <point x="572" y="380"/>
      <point x="564" y="348" type="curve"/>
      <point x="549" y="324"/>
      <point x="545" y="298"/>
      <point x="512" y="207" type="curve"/>
      <point x="500" y="175"/>
      <point x="480" y="107"/>
      <point x="476" y="85" type="curve"/>
      <point x="472" y="64"/>
      <point x="475" y="68"/>
      <point x="465" y="49" type="curve"/>
      <point x="451" y="49"/>
      <point x="410" y="50"/>
      <point x="406" y="48" type="curve"/>
      <point x="395" y="42"/>
      <point x="317" y="40"/>
      <point x="295" y="37" type="curve"/>
      <point x="276" y="33"/>
      <point x="210" y="39"/>
      <point x="202" y="54" type="curve"/>
      <point x="193" y="67"/>
      <point x="190" y="83"/>
      <point x="195" y="102" type="curve"/>
      <point x="200" y="128"/>
      <point x="207" y="154"/>
      <point x="215" y="181" type="curve"/>
      <point x="231" y="237"/>
      <point x="299" y="433"/>
      <point x="311" y="446" type="curve"/>
      <point x="312" y="454"/>
      <point x="350" y="545"/>
      <point x="361" y="559" type="curve"/>
      <point x="368" y="571"/>
      <point x="370" y="583"/>
      <point x="369" y="590" type="curve"/>
      <point x="354" y="605"/>
      <point x="343" y="617"/>
      <point x="326" y="621" type="curve"/>
      <point x="319" y="623"/>
      <point x="311" y="618"/>
      <point x="311" y="610" type="curve"/>
      <point x="311" y="599"/>
      <point x="306" y="589"/>
      <point x="302" y="580" type="curve"/>
      <point x="288" y="550"/>
      <point x="273" y="519"/>
      <point x="260" y="486" type="curve"/>
      <point x="237" y="444"/>
      <point x="230" y="407"/>
      <point x="202" y="339" type="curve"/>
      <point x="188" y="306"/>
      <point x="145" y="185"/>
      <point x="134" y="113" type="curve"/>
      <point x="127" y="101"/>
      <point x="129" y="89"/>
      <point x="135" y="76" type="curve"/>
      <point x="150" y="42"/>
      <point x="164" y="18"/>
      <point x="204" y="-8" type="curve"/>
      <point x="230" y="-14"/>
      <point x="259" y="-17"/>
      <point x="286" y="-17" type="curve"/>
      <point x="319" y="-19"/>
      <point x="351" y="-18"/>
      <point x="383" y="-14" type="curve"/>
      <point x="390" y="-12"/>
      <point x="394" y="-13"/>
      <point x="475" y="-1" type="curve"/>
      <point x="485" y="0"/>
      <point x="535" y="3"/>
      <point x="577" y="-1" type="curve"/>
      <point x="581" y="-15"/>
      <point x="579" y="-26"/>
      <point x="573" y="-40" type="curve"/>
      <point x="561" y="-66"/>
      <point x="529" y="-120"/>
      <point x="529" y="-129" type="curve"/>
      <point x="529" y="-156"/>
      <point x="502" y="-176"/>
      <point x="510" y="-197" type="curve"/>
      <point x="531" y="-214"/>
      <point x="536" y="-224"/>
    </contour>
  </outline>
</glyph>
<glyph name="Hardsign-cy" format="2">
  <advance width="570"/>
  <unicode hex="042A"/>
  <outline>
    <contour>
      <point x="290" y="-10" type="curve"/>
      <point x="332" y="-12"/>
      <point x="355" y="-2"/>
      <point x="375" y="6" type="curve"/>
      <point x="396" y="9"/>
      <point x="414" y="19"/>
      <point x="432" y="29" type="curve"/>
      <point x="503" y="63"/>
      <point x="561" y="130"/>
      <point x="592" y="203" type="curve"/>
      <point x="603" y="235"/>
      <point x="598" y="259"/>
      <point x="605" y="278" type="curve"/>
      <point x="610" y="294"/>
      <point x="573" y="354"/>
      <point x="556" y="370" type="curve"/>
      <point x="525" y="395"/>
      <point x="493" y="415"/>
      <point x="455" y="424" type="curve"/>
      <point x="441" y="427"/>
      <point x="427" y="428"/>
      <point x="412" y="431" type="curve"/>
      <point x="412" y="445"/>
      <point x="425" y="462"/>
      <point x="438" y="491" type="curve"/>
      <point x="453" y="529"/>
      <point x="485" y="588"/>
      <point x="479" y="605" type="curve"/>
      <point x="455" y="629"/>
      <point x="452" y="639"/>
      <point x="434" y="641" type="curve"/>
      <point x="417" y="642"/>
      <point x="400" y="644"/>
      <point x="384" y="647" type="curve"/>
      <point x="370" y="649"/>
      <point x="357" y="649"/>
      <point x="344" y="643" type="curve"/>
      <point x="323" y="643"/>
      <point x="273" y="636"/>
      <point x="261" y="631" type="curve"/>
      <point x="248" y="625"/>
      <point x="205" y="615"/>
      <point x="190" y="613" type="curve"/>
      <point x="178" y="612"/>
      <point x="173" y="605"/>
      <point x="174" y="594" type="curve"/>
      <point x="176" y="583"/>
      <point x="181" y="572"/>
      <point x="183" y="561" type="curve"/>
      <point x="192" y="557"/>
      <point x="199" y="553"/>
      <point x="205" y="549" type="curve"/>
      <point x="246" y="562"/>
      <point x="285" y="572"/>
      <point x="324" y="579" type="curve"/>
      <point x="356" y="584"/>
      <point x="371" y="586"/>
      <point x="406" y="582" type="curve"/>
      <point x="403" y="575"/>
      <point x="353" y="467"/>
      <point x="346" y="449" type="curve"/>
      <point x="346" y="449"/>
      <point x="307" y="361"/>
      <point x="307" y="362" type="curve"/>
      <point x="293" y="340"/>
      <point x="216" y="167"/>
      <point x="188" y="90" type="curve"/>
      <point x="184" y="81"/>
      <point x="183" y="72"/>
      <point x="181" y="63" type="curve"/>
      <point x="180" y="49"/>
      <point x="188" y="37"/>
      <point x="193" y="24" type="curve"/>
      <point x="197" y="10"/>
      <point x="213" y="0"/>
      <point x="225" y="-3" type="curve"/>
      <point x="261" y="-13"/>
      <point x="257" y="-7"/>
    </contour>
    <contour>
      <point x="306" y="55" type="curve"/>
      <point x="251" y="55" type="line"/>
      <point x="261" y="106"/>
      <point x="275" y="121"/>
      <point x="334" y="266" type="curve"/>
      <point x="336" y="277"/>
      <point x="346" y="282"/>
      <point x="346" y="292" type="curve"/>
      <point x="346" y="292"/>
      <point x="378" y="365"/>
      <point x="386" y="376" type="curve"/>
      <point x="397" y="376"/>
      <point x="424" y="378"/>
      <point x="434" y="372" type="curve"/>
      <point x="460" y="371"/>
      <point x="482" y="357"/>
      <point x="506" y="348" type="curve"/>
      <point x="534" y="338"/>
      <point x="542" y="313"/>
      <point x="546" y="293" type="curve"/>
      <point x="554" y="274"/>
      <point x="526" y="219"/>
      <point x="497" y="173" type="curve"/>
      <point x="473" y="138"/>
      <point x="433" y="108"/>
      <point x="399" y="86" type="curve"/>
      <point x="384" y="78"/>
      <point x="316" y="55"/>
    </contour>
  </outline>
</glyph>
<glyph name="Softsign-cy" format="2">
  <advance width="446"/>
  <unicode hex="042C"/>
  <outline>
    <contour>
      <point x="281" y="-9" type="curve"/>
      <point x="297" y="-6"/>
      <point x="333" y="13"/>
      <point x="365" y="39" type="curve"/>
      <point x="424" y="85"/>
      <point x="458" y="135"/>
      <point x="485" y="199" type="curve"/>
      <point x="496" y="224"/>
      <point x="497" y="251"/>
      <point x="497" y="277" type="curve"/>
      <point x="490" y="302"/>
      <point x="488" y="354"/>
      <point x="449" y="392" type="curve"/>
      <point x="419" y="422"/>
      <point x="400" y="427"/>
      <point x="365" y="440" type="curve"/>
      <point x="348" y="446"/>
      <point x="333" y="448"/>
      <point x="318" y="451" type="curve"/>
      <point x="333" y="494"/>
      <point x="354" y="540"/>
      <point x="368" y="567" type="curve"/>
      <point x="372" y="572"/>
      <point x="377" y="579"/>
      <point x="376" y="587" type="curve"/>
      <point x="393" y="615"/>
      <point x="398" y="625"/>
      <point x="403" y="651" type="curve"/>
      <point x="394" y="668"/>
      <point x="378" y="673"/>
      <point x="363" y="676" type="curve"/>
      <point x="356" y="677"/>
      <point x="347" y="676"/>
      <point x="342" y="669" type="curve"/>
      <point x="324" y="646"/>
      <point x="320" y="620"/>
      <point x="306" y="588" type="curve"/>
      <point x="300" y="577"/>
      <point x="243" y="429"/>
      <point x="234" y="405" type="curve"/>
      <point x="239" y="418"/>
      <point x="121" y="102"/>
      <point x="124" y="108" type="curve"/>
      <point x="118" y="91"/>
      <point x="116" y="74"/>
      <point x="109" y="58" type="curve"/>
      <point x="105" y="43"/>
      <point x="119" y="34"/>
      <point x="140" y="9" type="curve"/>
      <point x="163" y="-17"/>
      <point x="237" y="-26"/>
    </contour>
    <contour>
      <point x="228" y="37" type="curve"/>
      <point x="213" y="43"/>
      <point x="197" y="49"/>
      <point x="182" y="55" type="curve"/>
      <point x="179" y="60"/>
      <point x="180" y="66"/>
      <point x="181" y="71" type="curve"/>
      <point x="179" y="67"/>
      <point x="207" y="157"/>
      <point x="211" y="168" type="curve"/>
      <point x="221" y="196"/>
      <point x="252" y="286"/>
      <point x="259" y="300" type="curve"/>
      <point x="268" y="321"/>
      <point x="293" y="408"/>
      <point x="312" y="412" type="curve"/>
      <point x="317" y="397"/>
      <point x="331" y="396"/>
      <point x="343" y="393" type="curve"/>
      <point x="363" y="388"/>
      <point x="381" y="382"/>
      <point x="397" y="371" type="curve"/>
      <point x="413" y="363"/>
      <point x="422" y="351"/>
      <point x="427" y="333" type="curve"/>
      <point x="448" y="249"/>
      <point x="426" y="211"/>
      <point x="393" y="158" type="curve"/>
      <point x="378" y="138"/>
      <point x="327" y="85"/>
      <point x="290" y="61" type="curve"/>
      <point x="272" y="48"/>
      <point x="257" y="47"/>
    </contour>
  </outline>
</glyph>
<glyph name="de-cy" format="2">
  <advance width="353"/>
  <unicode hex="0434"/>
  <outline>
    <contour>
      <point x="197" y="6" type="curve"/>
      <point x="288" y="27"/>
      <point x="364" y="133"/>
      <point x="400" y="233" type="curve"/>
      <point x="400" y="246"/>
      <point x="413" y="259"/>
      <point x="415" y="282" type="curve"/>
      <point x="424" y="302"/>
      <point x="414" y="328"/>
      <point x="427" y="345" type="curve"/>
      <point x="431" y="383"/>
      <point x="431" y="393"/>
      <point x="429" y="415" type="curve"/>
      <point x="425" y="526"/>
      <point x="406" y="601"/>
      <point x="302" y="635" type="curve"/>
      <point x="281" y="647"/>
      <point x="262" y="643"/>
      <point x="243" y="639" type="curve"/>
      <point x="227" y="636"/>
      <point x="210" y="625"/>
      <point x="199" y="616" type="curve"/>
      <point x="194" y="597"/>
      <point x="210" y="576"/>
      <point x="226" y="569" type="curve"/>
      <point x="275" y="590"/>
      <point x="313" y="576"/>
      <point x="345" y="532" type="curve"/>
      <point x="379" y="487"/>
      <point x="365" y="361"/>
      <point x="345" y="344" type="curve"/>
      <point x="337" y="351"/>
      <point x="333" y="358"/>
      <point x="318" y="362" type="curve"/>
      <point x="289" y="372"/>
      <point x="268" y="362"/>
      <point x="247" y="351" type="curve"/>
      <point x="196" y="326"/>
      <point x="150" y="264"/>
      <point x="140" y="236" type="curve"/>
      <point x="131" y="218"/>
      <point x="109" y="178"/>
      <point x="110" y="145" type="curve"/>
      <point x="111" y="123"/>
      <point x="110" y="101"/>
      <point x="119" y="81" type="curve"/>
      <point x="119" y="62"/>
      <point x="129" y="49"/>
      <point x="140" y="36" type="curve"/>
      <point x="154" y="21"/>
      <point x="191" y="4"/>
    </contour>
    <contour>
      <point x="191" y="71" type="curve"/>
      <point x="176" y="78"/>
      <point x="170" y="104"/>
      <point x="170" y="126" type="curve"/>
      <point x="170" y="132"/>
      <point x="174" y="166"/>
      <point x="191" y="199" type="curve"/>
      <point x="197" y="206"/>
      <point x="205" y="211"/>
      <point x="204" y="221" type="curve"/>
      <point x="221" y="242"/>
      <point x="236" y="272"/>
      <point x="258" y="288" type="curve"/>
      <point x="287" y="309"/>
      <point x="325" y="322"/>
      <point x="340" y="305" type="curve"/>
      <point x="349" y="295"/>
      <point x="347" y="261"/>
      <point x="335" y="228" type="curve"/>
      <point x="332" y="220"/>
      <point x="306" y="168"/>
      <point x="297" y="155" type="curve"/>
      <point x="269" y="114"/>
      <point x="211" y="62"/>
    </contour>
  </outline>
</glyph>
<glyph name="zhe-cy" format="2">
  <advance width="536"/>
  <unicode hex="0436"/>
  <outline>
    <contour>
      <point x="611" y="303" type="curve"/>
      <point x="615" y="307"/>
      <point x="617" y="312"/>
      <point x="616" y="319" type="curve"/>
      <point x="613" y="333"/>
      <point x="597" y="350"/>
      <point x="582" y="360" type="curve"/>
      <point x="567" y="357"/>
      <point x="567" y="356"/>
      <point x="555" y="345" type="curve"/>
      <point x="533" y="322"/>
      <point x="475" y="266"/>
      <point x="448" y="246" type="curve"/>
      <point x="433" y="234"/>
      <point x="401" y="212"/>
      <point x="375" y="195" type="curve"/>
      <point x="365" y="197" type="line"/>
      <point x="366" y="199"/>
      <point x="396" y="330"/>
      <point x="397" y="333" type="curve"/>
      <point x="403" y="357"/>
      <point x="380" y="378"/>
      <point x="360" y="391" type="curve"/>
      <point x="351" y="398"/>
      <point x="341" y="394"/>
      <point x="339" y="385" type="curve"/>
      <point x="337" y="381"/>
      <point x="335" y="374"/>
      <point x="336" y="368" type="curve"/>
      <point x="338" y="356"/>
      <point x="335" y="345"/>
      <point x="333" y="335" type="curve"/>
      <point x="328" y="307"/>
      <point x="315" y="257"/>
      <point x="306" y="213" type="curve"/>
      <point x="282" y="252"/>
      <point x="271" y="264"/>
      <point x="241" y="312" type="curve"/>
      <point x="233" y="333"/>
      <point x="219" y="355"/>
      <point x="204" y="369" type="curve"/>
      <point x="185" y="378"/>
      <point x="163" y="378"/>
      <point x="157" y="360" type="curve"/>
      <point x="171" y="336"/>
      <point x="183" y="313"/>
      <point x="197" y="292" type="curve"/>
      <point x="216" y="269"/>
      <point x="228" y="241"/>
      <point x="242" y="220" type="curve"/>
      <point x="229" y="207"/>
      <point x="197" y="183"/>
      <point x="186" y="172" type="curve"/>
      <point x="183" y="171"/>
      <point x="141" y="137"/>
      <point x="136" y="132" type="curve"/>
      <point x="112" y="109"/>
      <point x="60" y="62"/>
      <point x="53" y="57" type="curve"/>
      <point x="43" y="52"/>
      <point x="38" y="43"/>
      <point x="38" y="33" type="curve"/>
      <point x="60" y="-1" type="line"/>
      <point x="83" y="-8"/>
      <point x="95" y="-7"/>
      <point x="102" y="2" type="curve"/>
      <point x="119" y="27"/>
      <point x="141" y="48"/>
      <point x="163" y="68" type="curve"/>
      <point x="215" y="120"/>
      <point x="229" y="127"/>
      <point x="260" y="158" type="curve"/>
      <point x="274" y="161"/>
      <point x="281" y="163"/>
      <point x="289" y="163" type="curve"/>
      <point x="282" y="131"/>
      <point x="266" y="103"/>
      <point x="253" y="76" type="curve"/>
      <point x="253" y="60"/>
      <point x="255" y="43"/>
      <point x="280" y="26" type="curve"/>
      <point x="307" y="27" type="line"/>
      <point x="319" y="39"/>
      <point x="322" y="43"/>
      <point x="320" y="63" type="curve"/>
      <point x="316" y="63"/>
      <point x="335" y="104"/>
      <point x="343" y="129" type="curve"/>
      <point x="351" y="147"/>
      <point x="355" y="153"/>
      <point x="363" y="162" type="curve"/>
      <point x="374" y="129"/>
      <point x="380" y="119"/>
      <point x="399" y="95" type="curve"/>
      <point x="409" y="68"/>
      <point x="452" y="4"/>
      <point x="486" y="-1" type="curve"/>
      <point x="498" y="3"/>
      <point x="537" y="3"/>
      <point x="526" y="21" type="curve"/>
      <point x="517" y="31"/>
      <point x="470" y="69"/>
      <point x="449" y="106" type="curve"/>
      <point x="435" y="129"/>
      <point x="431" y="133"/>
      <point x="431" y="151" type="curve"/>
      <point x="505" y="211" type="line"/>
      <point x="504" y="211"/>
      <point x="610" y="303"/>
    </contour>
  </outline>
</glyph>
<glyph name="ka-cy" format="2">
  <advance width="369"/>
  <unicode hex="043A"/>
  <anchor x="349" y="0" name="bottomright"/>
  <anchor x="189" y="200" name="center"/>
  <anchor x="334" y="400" name="top"/>
  <outline>
    <contour>
      <point x="337" y="18" type="curve"/>
      <point x="371" y="5"/>
      <point x="364" y="16"/>
      <point x="392" y="35" type="curve"/>
      <point x="390" y="47"/>
      <point x="393" y="61"/>
      <point x="377" y="69" type="curve"/>
      <point x="345" y="69"/>
      <point x="321" y="77"/>
      <point x="318" y="111" type="curve"/>
      <point x="309" y="129"/>
      <point x="294" y="158"/>
      <point x="275" y="189" type="curve"/>
      <point x="334" y="230"/>
      <point x="402" y="288"/>
      <point x="438" y="316" type="curve"/>
      <point x="451" y="326"/>
      <point x="451" y="351"/>
      <point x="445" y="357" type="curve"/>
      <point x="422" y="375"/>
      <point x="421" y="377"/>
      <point x="401" y="380" type="curve"/>
      <point x="386" y="375"/>
      <point x="379" y="364"/>
      <point x="371" y="352" type="curve"/>
      <point x="367" y="346"/>
      <point x="286" y="270"/>
      <point x="272" y="256" type="curve"/>
      <point x="246" y="227"/>
      <point x="244" y="228"/>
      <point x="211" y="220" type="curve"/>
      <point x="231" y="280"/>
      <point x="241" y="290"/>
      <point x="267" y="336" type="curve"/>
      <point x="275" y="350"/>
      <point x="273" y="364"/>
      <point x="262" y="376" type="curve"/>
      <point x="259" y="380"/>
      <point x="253" y="381"/>
      <point x="250" y="383" type="curve"/>
      <point x="236" y="406"/>
      <point x="207" y="388"/>
      <point x="204" y="374" type="curve"/>
      <point x="196" y="337"/>
      <point x="169" y="306"/>
      <point x="161" y="279" type="curve"/>
      <point x="158" y="263"/>
      <point x="105" y="127"/>
      <point x="99" y="102" type="curve"/>
      <point x="94" y="88"/>
      <point x="91" y="74"/>
      <point x="99" y="58" type="curve"/>
      <point x="107" y="48"/>
      <point x="118" y="37"/>
      <point x="134" y="36" type="curve"/>
      <point x="147" y="45"/>
      <point x="156" y="57"/>
      <point x="160" y="72" type="curve"/>
      <point x="167" y="95"/>
      <point x="170" y="119"/>
      <point x="184" y="138" type="curve"/>
      <point x="184" y="164"/>
      <point x="193" y="172"/>
      <point x="200" y="192" type="curve"/>
      <point x="216" y="166"/>
      <point x="272" y="73"/>
      <point x="286" y="57" type="curve"/>
      <point x="301" y="40"/>
      <point x="316" y="25"/>
    </contour>
  </outline>
</glyph>
<glyph name="pe-cy" format="2">
  <advance width="390"/>
  <unicode hex="043F"/>
  <outline>
    <contour>
      <point x="130" y="22" type="curve"/>
      <point x="148" y="26"/>
      <point x="157" y="28"/>
      <point x="159" y="39" type="curve"/>
      <point x="159" y="58"/>
      <point x="162" y="69"/>
      <point x="167" y="78" type="curve"/>
      <point x="168" y="108"/>
      <point x="205" y="186"/>
      <point x="207" y="205" type="curve"/>
      <point x="213" y="238"/>
      <point x="231" y="269"/>
      <point x="236" y="302" type="curve"/>
      <point x="236" y="306"/>
      <point x="241" y="312"/>
      <point x="246" y="313" type="curve"/>
      <point x="250" y="313"/>
      <point x="327" y="319"/>
      <point x="359" y="319" type="curve"/>
      <point x="367" y="292"/>
      <point x="340" y="202"/>
      <point x="323" y="160" type="curve"/>
      <point x="322" y="151"/>
      <point x="323" y="142"/>
      <point x="314" y="133" type="curve"/>
      <point x="312" y="115"/>
      <point x="310" y="89"/>
      <point x="310" y="73" type="curve"/>
      <point x="308" y="50"/>
      <point x="344" y="27"/>
      <point x="363" y="47" type="curve"/>
      <point x="372" y="57"/>
      <point x="377" y="81"/>
      <point x="376" y="94" type="curve"/>
      <point x="375" y="105"/>
      <point x="383" y="112"/>
      <point x="385" y="122" type="curve"/>
      <point x="389" y="153"/>
      <point x="420" y="222"/>
      <point x="423" y="242" type="curve"/>
      <point x="434" y="261"/>
      <point x="430" y="283"/>
      <point x="433" y="303" type="curve"/>
      <point x="435" y="341"/>
      <point x="402" y="357"/>
      <point x="364" y="372" type="curve"/>
      <point x="344" y="372"/>
      <point x="328" y="380"/>
      <point x="309" y="379" type="curve"/>
      <point x="290" y="377"/>
      <point x="236" y="379"/>
      <point x="234" y="378" type="curve"/>
      <point x="223" y="371"/>
      <point x="211" y="373"/>
      <point x="196" y="378" type="curve"/>
      <point x="172" y="365"/>
      <point x="184" y="366"/>
      <point x="174" y="341" type="curve"/>
      <point x="167" y="318"/>
      <point x="161" y="294"/>
      <point x="155" y="268" type="curve"/>
      <point x="147" y="237"/>
      <point x="131" y="205"/>
      <point x="126" y="171" type="curve"/>
      <point x="115" y="148"/>
      <point x="93" y="73"/>
      <point x="94" y="51" type="curve"/>
      <point x="108" y="40"/>
      <point x="114" y="25"/>
    </contour>
  </outline>
</glyph>
<glyph name="che-cy" format="2">
  <advance width="330"/>
  <unicode hex="0447"/>
  <outline>
    <contour>
      <point x="269" y="15" type="curve"/>
      <point x="283" y="10"/>
      <point x="293" y="12"/>
      <point x="303" y="23" type="curve"/>
      <point x="323" y="46"/>
      <point x="318" y="48"/>
      <point x="312" y="69" type="curve"/>
      <point x="307" y="78"/>
      <point x="298" y="72"/>
      <point x="288" y="72" type="curve"/>
      <point x="283" y="80"/>
      <point x="287" y="96"/>
      <point x="289" y="108" type="curve"/>
      <point x="327" y="200" type="line"/>
      <point x="332" y="209"/>
      <point x="339" y="216"/>
      <point x="343" y="223" type="curve"/>
      <point x="355" y="246"/>
      <point x="391" y="302"/>
      <point x="402" y="304" type="curve"/>
      <point x="427" y="331"/>
      <point x="413" y="333"/>
      <point x="403" y="358" type="curve"/>
      <point x="395" y="361"/>
      <point x="388" y="365"/>
      <point x="384" y="367" type="curve"/>
      <point x="368" y="366"/>
      <point x="359" y="360"/>
      <point x="353" y="349" type="curve"/>
      <point x="342" y="331"/>
      <point x="328" y="315"/>
      <point x="313" y="303" type="curve"/>
      <point x="269" y="267"/>
      <point x="195" y="200"/>
      <point x="166" y="200" type="curve"/>
      <point x="163" y="213"/>
      <point x="168" y="229"/>
      <point x="174" y="240" type="curve"/>
      <point x="192" y="279"/>
      <point x="212" y="318"/>
      <point x="238" y="353" type="curve"/>
      <point x="249" y="366"/>
      <point x="248" y="377"/>
      <point x="240" y="387" type="curve"/>
      <point x="231" y="401"/>
      <point x="217" y="405"/>
      <point x="203" y="406" type="curve"/>
      <point x="195" y="406"/>
      <point x="187" y="395"/>
      <point x="186" y="391" type="curve"/>
      <point x="183" y="380"/>
      <point x="175" y="371"/>
      <point x="169" y="360" type="curve"/>
      <point x="153" y="326"/>
      <point x="135" y="292"/>
      <point x="119" y="258" type="curve"/>
      <point x="109" y="238"/>
      <point x="105" y="217"/>
      <point x="108" y="194" type="curve"/>
      <point x="109" y="185"/>
      <point x="111" y="176"/>
      <point x="115" y="167" type="curve"/>
      <point x="126" y="148"/>
      <point x="154" y="136"/>
      <point x="168" y="142" type="curve"/>
      <point x="186" y="148"/>
      <point x="212" y="163"/>
      <point x="226" y="177" type="curve"/>
      <point x="235" y="184"/>
      <point x="243" y="191"/>
      <point x="257" y="194" type="curve"/>
      <point x="256" y="192"/>
      <point x="231" y="119"/>
      <point x="230" y="109" type="curve"/>
      <point x="228" y="77"/>
      <point x="227" y="55"/>
      <point x="238" y="39" type="curve"/>
      <point x="245" y="26"/>
      <point x="257" y="20"/>
    </contour>
  </outline>
</glyph>
<glyph name="hardsign-cy" format="2">
  <advance width="320"/>
  <unicode hex="044A"/>
  <outline>
    <contour>
      <point x="172" y="-8" type="curve"/>
      <point x="218" y="-8"/>
      <point x="247" y="19"/>
      <point x="293" y="57" type="curve"/>
      <point x="305" y="67"/>
      <point x="312" y="81"/>
      <point x="322" y="96" type="curve"/>
      <point x="373" y="172"/>
      <point x="344" y="261"/>
      <point x="262" y="251" type="curve"/>
      <point x="236" y="249" type="line"/>
      <point x="248" y="270"/>
      <point x="261" y="290"/>
      <point x="272" y="311" type="curve"/>
      <point x="288" y="341"/>
      <point x="285" y="346"/>
      <point x="285" y="379" type="curve"/>
      <point x="264" y="407"/>
      <point x="219" y="413"/>
      <point x="186" y="402" type="curve"/>
      <point x="169" y="403"/>
      <point x="144" y="391"/>
      <point x="133" y="387" type="curve"/>
      <point x="117" y="379"/>
      <point x="97" y="370"/>
      <point x="95" y="358" type="curve"/>
      <point x="99" y="335"/>
      <point x="108" y="323"/>
      <point x="125" y="319" type="curve"/>
      <point x="144" y="331"/>
      <point x="162" y="343"/>
      <point x="183" y="350" type="curve"/>
      <point x="207" y="355"/>
      <point x="200" y="358"/>
      <point x="226" y="349" type="curve"/>
      <point x="226" y="335"/>
      <point x="181" y="266"/>
      <point x="154" y="225" type="curve"/>
      <point x="140" y="201"/>
      <point x="121" y="168"/>
      <point x="113" y="147" type="curve"/>
      <point x="102" y="101" type="line"/>
      <point x="102" y="92"/>
      <point x="98" y="84"/>
      <point x="98" y="77" type="curve"/>
      <point x="98" y="50"/>
      <point x="114" y="19"/>
      <point x="115" y="18" type="curve"/>
      <point x="130" y="8"/>
      <point x="147" y="-5"/>
    </contour>
    <contour>
      <point x="180" y="45" type="curve"/>
      <point x="172" y="43"/>
      <point x="171" y="44"/>
      <point x="153" y="46" type="curve"/>
      <point x="150" y="71"/>
      <point x="160" y="112"/>
      <point x="169" y="135" type="curve"/>
      <point x="174" y="147"/>
      <point x="198" y="188"/>
      <point x="205" y="201" type="curve"/>
      <point x="260" y="215" type="line" smooth="yes"/>
      <point x="270" y="218"/>
      <point x="279" y="214"/>
      <point x="283" y="202" type="curve"/>
      <point x="293" y="174"/>
      <point x="289" y="135"/>
      <point x="264" y="110" type="curve"/>
      <point x="234" y="72"/>
      <point x="212" y="56"/>
    </contour>
  </outline>
</glyph>
<glyph name="dje-cy" format="2">
  <advance width="415"/>
  <unicode hex="0452"/>
  <outline>
    <contour>
      <point x="405" y="302" type="curve"/>
      <point x="402" y="298"/>
      <point x="387" y="302"/>
      <point x="386" y="302" type="curve"/>
      <point x="364" y="296"/>
      <point x="343" y="288"/>
      <point x="323" y="277" type="curve"/>
      <point x="314" y="272"/>
      <point x="239" y="209"/>
      <point x="224" y="187" type="curve"/>
      <point x="183" y="108"/>
      <point x="227" y="252"/>
      <point x="245" y="314" type="curve"/>
      <point x="259" y="362"/>
      <point x="278" y="409"/>
      <point x="294" y="456" type="curve"/>
      <point x="296" y="466"/>
      <point x="303" y="471"/>
      <point x="314" y="472" type="curve"/>
      <point x="332" y="472"/>
      <point x="350" y="470"/>
      <point x="366" y="477" type="curve"/>
      <point x="371" y="479"/>
      <point x="380" y="479"/>
      <point x="384" y="476" type="curve"/>
      <point x="393" y="471"/>
      <point x="416" y="478"/>
      <point x="423" y="487" type="curve"/>
      <point x="426" y="491"/>
      <point x="432" y="503"/>
      <point x="429" y="507" type="curve"/>
      <point x="419" y="529"/>
      <point x="409" y="533"/>
      <point x="379" y="533" type="curve"/>
      <point x="368" y="532"/>
      <point x="342" y="526"/>
      <point x="326" y="524" type="curve"/>
      <point x="334" y="545"/>
      <point x="347" y="585"/>
      <point x="352" y="598" type="curve"/>
      <point x="360" y="615"/>
      <point x="358" y="629"/>
      <point x="348" y="643" type="curve"/>
      <point x="335" y="644"/>
      <point x="322" y="653"/>
      <point x="312" y="648" type="curve"/>
      <point x="306" y="642"/>
      <point x="301" y="637"/>
      <point x="300" y="630" type="curve"/>
      <point x="299" y="623"/>
      <point x="295" y="617"/>
      <point x="292" y="612" type="curve"/>
      <point x="281" y="585"/>
      <point x="271" y="559"/>
      <point x="261" y="531" type="curve"/>
      <point x="257" y="522"/>
      <point x="253" y="517"/>
      <point x="244" y="515" type="curve"/>
      <point x="223" y="509"/>
      <point x="161" y="488"/>
      <point x="140" y="487" type="curve"/>
      <point x="125" y="486"/>
      <point x="116" y="479"/>
      <point x="113" y="465" type="curve"/>
      <point x="112" y="461"/>
      <point x="111" y="458"/>
      <point x="114" y="451" type="curve"/>
      <point x="118" y="442"/>
      <point x="120" y="440"/>
      <point x="138" y="422" type="curve"/>
      <point x="150" y="423"/>
      <point x="159" y="424"/>
      <point x="168" y="426" type="curve"/>
      <point x="222" y="443" type="line"/>
      <point x="227" y="438" type="line"/>
      <point x="212" y="378"/>
      <point x="185" y="321"/>
      <point x="174" y="261" type="curve"/>
      <point x="169" y="238"/>
      <point x="135" y="150"/>
      <point x="133" y="92" type="curve"/>
      <point x="132" y="70"/>
      <point x="141" y="55"/>
      <point x="155" y="48" type="curve"/>
      <point x="164" y="52"/>
      <point x="169" y="49"/>
      <point x="189" y="72" type="curve"/>
      <point x="214" y="78"/>
      <point x="219" y="82"/>
      <point x="233" y="103" type="curve"/>
      <point x="325" y="205" type="line"/>
      <point x="336" y="216"/>
      <point x="348" y="223"/>
      <point x="359" y="232" type="curve"/>
      <point x="365" y="238"/>
      <point x="373" y="240"/>
      <point x="381" y="229" type="curve"/>
      <point x="381" y="200"/>
      <point x="379" y="160"/>
      <point x="375" y="140" type="curve"/>
      <point x="375" y="136"/>
      <point x="343" y="20"/>
      <point x="335" y="0" type="curve"/>
      <point x="325" y="-28"/>
      <point x="316" y="-58"/>
      <point x="302" y="-84" type="curve"/>
      <point x="299" y="-107"/>
      <point x="258" y="-156"/>
      <point x="215" y="-187" type="curve"/>
      <point x="190" y="-206"/>
      <point x="180" y="-177"/>
      <point x="176" y="-174" type="curve"/>
      <point x="170" y="-193"/>
      <point x="183" y="-219"/>
      <point x="203" y="-229" type="curve"/>
      <point x="227" y="-240"/>
      <point x="261" y="-228"/>
      <point x="285" y="-199" type="curve"/>
      <point x="293" y="-197"/>
      <point x="326" y="-155"/>
      <point x="329" y="-152" type="curve"/>
      <point x="344" y="-131"/>
      <point x="353" y="-106"/>
      <point x="365" y="-82" type="curve"/>
      <point x="375" y="-62"/>
      <point x="383" y="-43"/>
      <point x="389" y="-25" type="curve"/>
      <point x="401" y="11"/>
      <point x="423" y="80"/>
      <point x="428" y="117" type="curve"/>
      <point x="445" y="224" type="line"/>
      <point x="450" y="266"/>
      <point x="450" y="286"/>
    </contour>
  </outline>
</glyph>
<glyph name="nje-cy" format="2">
  <advance width="467"/>
  <unicode hex="045A"/>
  <outline>
    <contour>
      <point x="373" y="-5" type="curve"/>
      <point x="422" y="12"/>
      <point x="479" y="67"/>
      <point x="476" y="124" type="curve"/>
      <point x="468" y="161"/>
      <point x="463" y="169"/>
      <point x="428" y="199" type="curve"/>
      <point x="408" y="218"/>
      <point x="387" y="230"/>
      <point x="361" y="235" type="curve"/>
      <point x="358" y="264"/>
      <point x="373" y="282"/>
      <point x="379" y="303" type="curve"/>
      <point x="388" y="315"/>
      <point x="389" y="331"/>
      <point x="395" y="348" type="curve"/>
      <point x="399" y="361"/>
      <point x="397" y="372"/>
      <point x="386" y="383" type="curve"/>
      <point x="377" y="391"/>
      <point x="368" y="394"/>
      <point x="358" y="392" type="curve"/>
      <point x="346" y="385"/>
      <point x="343" y="379"/>
      <point x="338" y="361" type="curve"/>
      <point x="318" y="304"/>
      <point x="310" y="281"/>
      <point x="300" y="243" type="curve"/>
      <point x="283" y="237"/>
      <point x="250" y="239"/>
      <point x="213" y="239" type="curve"/>
      <point x="205" y="239"/>
      <point x="197" y="241"/>
      <point x="192" y="236" type="curve"/>
      <point x="186" y="233"/>
      <point x="176" y="240"/>
      <point x="177" y="246" type="curve"/>
      <point x="179" y="261"/>
      <point x="182" y="263"/>
      <point x="188" y="278" type="curve"/>
      <point x="192" y="288"/>
      <point x="194" y="298"/>
      <point x="203" y="311" type="curve"/>
      <point x="203" y="319"/>
      <point x="203" y="349"/>
      <point x="172" y="354" type="curve"/>
      <point x="145" y="350"/>
      <point x="148" y="339"/>
      <point x="147" y="337" type="curve"/>
      <point x="146" y="334"/>
      <point x="126" y="267"/>
      <point x="118" y="252" type="curve"/>
      <point x="118" y="234"/>
      <point x="113" y="229"/>
      <point x="110" y="213" type="curve"/>
      <point x="107" y="205"/>
      <point x="103" y="194"/>
      <point x="100" y="183" type="curve"/>
      <point x="96" y="161"/>
      <point x="90" y="140"/>
      <point x="84" y="117" type="curve"/>
      <point x="78" y="99"/>
      <point x="73" y="79"/>
      <point x="73" y="59" type="curve"/>
      <point x="73" y="36"/>
      <point x="92" y="20"/>
      <point x="114" y="23" type="curve"/>
      <point x="118" y="25"/>
      <point x="120" y="29"/>
      <point x="120" y="32" type="curve"/>
      <point x="129" y="82" type="line"/>
      <point x="132" y="95"/>
      <point x="145" y="136"/>
      <point x="150" y="159" type="curve"/>
      <point x="151" y="162"/>
      <point x="154" y="167"/>
      <point x="159" y="171" type="curve"/>
      <point x="218" y="182" type="line"/>
      <point x="224" y="180"/>
      <point x="246" y="183"/>
      <point x="284" y="183" type="curve"/>
      <point x="250" y="71" type="line" smooth="yes"/>
      <point x="240" y="38"/>
      <point x="239" y="28"/>
      <point x="244" y="14" type="curve"/>
      <point x="248" y="9"/>
      <point x="267" y="-4"/>
      <point x="268" y="-4" type="curve"/>
      <point x="275" y="-4"/>
      <point x="282" y="-6"/>
      <point x="287" y="-1" type="curve"/>
      <point x="293" y="3"/>
      <point x="344" y="-14"/>
    </contour>
    <contour>
      <point x="345" y="44" type="curve"/>
      <point x="330" y="40"/>
      <point x="321" y="40"/>
      <point x="299" y="46" type="curve"/>
      <point x="303" y="60" type="line" smooth="yes"/>
      <point x="303" y="66"/>
      <point x="320" y="114"/>
      <point x="320" y="136" type="curve"/>
      <point x="322" y="148"/>
      <point x="330" y="159"/>
      <point x="334" y="173" type="curve"/>
      <point x="337" y="179"/>
      <point x="346" y="187"/>
      <point x="357" y="180" type="curve"/>
      <point x="364" y="182"/>
      <point x="402" y="157"/>
      <point x="413" y="148" type="curve"/>
      <point x="423" y="138"/>
      <point x="425" y="127"/>
      <point x="420" y="113" type="curve"/>
      <point x="411" y="96"/>
      <point x="406" y="87"/>
      <point x="400" y="82" type="curve"/>
      <point x="380" y="60"/>
      <point x="363" y="48"/>
    </contour>
  </outline>
</glyph>
<glyph name="yusbig-cy" format="2">
  <advance width="401"/>
  <unicode hex="046B"/>
  <outline>
    <contour>
      <point x="172" y="-190" type="curve"/>
      <point x="196" y="-197"/>
      <point x="238" y="-176"/>
      <point x="247" y="-157" type="curve"/>
      <point x="258" y="-137"/>
      <point x="265" y="-116"/>
      <point x="269" y="-93" type="curve"/>
      <point x="277" y="-51"/>
      <point x="279" y="-49"/>
      <point x="278" y="-16" type="curve"/>
      <point x="278" y="7"/>
      <point x="272" y="28"/>
      <point x="267" y="48" type="curve"/>
      <point x="272" y="58"/>
      <point x="282" y="63"/>
      <point x="289" y="71" type="curve"/>
      <point x="291" y="73"/>
      <point x="296" y="74"/>
      <point x="297" y="77" type="curve"/>
      <point x="302" y="88"/>
      <point x="313" y="94"/>
      <point x="322" y="100" type="curve"/>
      <point x="337" y="110"/>
      <point x="352" y="121"/>
      <point x="369" y="126" type="curve"/>
      <point x="376" y="119"/>
      <point x="370" y="77"/>
      <point x="370" y="77" type="curve"/>
      <point x="373" y="71"/>
      <point x="366" y="28"/>
      <point x="353" y="12" type="curve"/>
      <point x="350" y="8"/>
      <point x="352" y="2"/>
      <point x="352" y="-3" type="curve"/>
      <point x="360" y="-8"/>
      <point x="368" y="-12"/>
      <point x="376" y="-15" type="curve"/>
      <point x="379" y="-17"/>
      <point x="383" y="-16"/>
      <point x="386" y="-15" type="curve"/>
      <point x="408" y="-2"/>
      <point x="422" y="18"/>
      <point x="425" y="43" type="curve"/>
      <point x="426" y="49"/>
      <point x="430" y="55"/>
      <point x="426" y="63" type="curve"/>
      <point x="424" y="68"/>
      <point x="425" y="75"/>
      <point x="427" y="81" type="curve"/>
      <point x="432" y="92"/>
      <point x="431" y="157"/>
      <point x="429" y="161" type="curve"/>
      <point x="424" y="171"/>
      <point x="425" y="181"/>
      <point x="427" y="190" type="curve"/>
      <point x="430" y="214"/>
      <point x="414" y="295"/>
      <point x="395" y="324" type="curve"/>
      <point x="384" y="343"/>
      <point x="370" y="357"/>
      <point x="347" y="359" type="curve"/>
      <point x="342" y="360"/>
      <point x="339" y="362"/>
      <point x="334" y="364" type="curve"/>
      <point x="328" y="360"/>
      <point x="321" y="357"/>
      <point x="317" y="352" type="curve"/>
      <point x="302" y="334"/>
      <point x="246" y="292"/>
      <point x="223" y="269" type="curve"/>
      <point x="215" y="261"/>
      <point x="186" y="234"/>
      <point x="180" y="223" type="curve"/>
      <point x="176" y="216"/>
      <point x="144" y="175"/>
      <point x="131" y="167" type="curve"/>
      <point x="127" y="165"/>
      <point x="122" y="160"/>
      <point x="121" y="155" type="curve"/>
      <point x="119" y="153"/>
      <point x="62" y="87"/>
      <point x="62" y="85" type="curve"/>
      <point x="56" y="70"/>
      <point x="44" y="59"/>
      <point x="33" y="48" type="curve"/>
      <point x="23" y="38"/>
      <point x="16" y="25"/>
      <point x="9" y="11" type="curve"/>
      <point x="41" y="-20" type="line"/>
      <point x="45" y="-19"/>
      <point x="54" y="-16"/>
      <point x="61" y="-15" type="curve"/>
      <point x="77" y="4" type="line"/>
      <point x="144" y="95" type="line"/>
      <point x="148" y="93"/>
      <point x="151" y="91"/>
      <point x="154" y="91" type="curve"/>
      <point x="173" y="90"/>
      <point x="186" y="79"/>
      <point x="195" y="63" type="curve"/>
      <point x="146" y="8"/>
      <point x="141" y="-6"/>
      <point x="122" y="-52" type="curve"/>
      <point x="112" y="-65"/>
      <point x="111" y="-81"/>
      <point x="104" y="-95" type="curve"/>
      <point x="102" y="-99"/>
      <point x="102" y="-106"/>
      <point x="104" y="-111" type="curve"/>
      <point x="109" y="-122"/>
      <point x="106" y="-135"/>
      <point x="110" y="-147" type="curve"/>
      <point x="111" y="-148"/>
      <point x="134" y="-172"/>
      <point x="140" y="-176" type="curve"/>
      <point x="146" y="-180"/>
      <point x="166" y="-188"/>
    </contour>
    <contour>
      <point x="174" y="-143" type="curve"/>
      <point x="159" y="-151"/>
      <point x="148" y="-146"/>
      <point x="143" y="-141" type="curve"/>
      <point x="136" y="-130"/>
      <point x="146" y="-121"/>
      <point x="146" y="-111" type="curve"/>
      <point x="159" y="-88"/>
      <point x="167" y="-63"/>
      <point x="184" y="-43" type="curve"/>
      <point x="192" y="-33"/>
      <point x="198" y="-21"/>
      <point x="205" y="-10" type="curve"/>
      <point x="206" y="-7"/>
      <point x="209" y="-4"/>
      <point x="213" y="0" type="curve"/>
      <point x="213" y="-19"/>
      <point x="217" y="-38"/>
      <point x="210" y="-46" type="curve"/>
      <point x="214" y="-54"/>
      <point x="210" y="-62"/>
      <point x="209" y="-71" type="curve"/>
      <point x="206" y="-99"/>
      <point x="193" y="-131"/>
    </contour>
    <contour>
      <point x="234" y="101" type="curve"/>
      <point x="221" y="118"/>
      <point x="203" y="130"/>
      <point x="183" y="137" type="curve"/>
      <point x="204" y="179"/>
      <point x="255" y="232"/>
      <point x="264" y="232" type="curve"/>
      <point x="288" y="257"/>
      <point x="316" y="278"/>
      <point x="344" y="299" type="curve"/>
      <point x="359" y="268"/>
      <point x="370" y="212"/>
      <point x="370" y="185" type="curve"/>
      <point x="366" y="184"/>
      <point x="362" y="180"/>
      <point x="357" y="180" type="curve"/>
      <point x="338" y="179"/>
      <point x="308" y="160"/>
      <point x="292" y="144" type="curve"/>
      <point x="290" y="142"/>
      <point x="287" y="139"/>
      <point x="284" y="138" type="curve"/>
      <point x="270" y="130"/>
      <point x="258" y="119"/>
      <point x="248" y="106" type="curve"/>
      <point x="245" y="101"/>
      <point x="240" y="99"/>
    </contour>
  </outline>
</glyph>
<glyph name="fita-cy" format="2">
  <advance width="353"/>
  <unicode hex="0473"/>
  <outline>
    <contour>
      <point x="258" y="156" type="curve"/>
      <point x="266" y="156"/>
      <point x="278" y="156"/>
      <point x="337" y="188" type="curve"/>
      <point x="348" y="194"/>
      <point x="359" y="208"/>
      <point x="359" y="213" type="curve"/>
      <point x="361" y="224"/>
      <point x="348" y="239"/>
      <point x="334" y="234" type="curve"/>
      <point x="307" y="224"/>
      <point x="283" y="208"/>
      <point x="264" y="204" type="curve"/>
      <point x="237" y="194"/>
      <point x="240" y="207"/>
      <point x="208" y="232" type="curve"/>
      <point x="186" y="249"/>
      <point x="152" y="254"/>
      <point x="137" y="249" type="curve"/>
      <point x="126" y="247"/>
      <point x="115" y="240"/>
      <point x="109" y="233" type="curve"/>
      <point x="105" y="228"/>
      <point x="105" y="216"/>
      <point x="113" y="208" type="curve"/>
      <point x="113" y="201"/>
      <point x="126" y="208"/>
      <point x="130" y="213" type="curve"/>
      <point x="152" y="211" type="line"/>
      <point x="168" y="211"/>
      <point x="192" y="187"/>
      <point x="203" y="181" type="curve"/>
      <point x="230" y="166"/>
      <point x="230" y="156"/>
    </contour>
    <component base="o"/>
  </outline>
</glyph>
<glyph name="semisoftsign-cy" format="2">
  <advance width="328"/>
  <unicode hex="048D"/>
  <outline>
    <contour>
      <point x="160" y="22" type="curve"/>
      <point x="167" y="17"/>
      <point x="172" y="23"/>
      <point x="179" y="23" type="curve"/>
      <point x="223" y="21"/>
      <point x="266" y="35"/>
      <point x="310" y="61" type="curve"/>
      <point x="339" y="79"/>
      <point x="345" y="92"/>
      <point x="365" y="120" type="curve"/>
      <point x="365" y="126"/>
      <point x="366" y="133"/>
      <point x="368" y="139" type="curve"/>
      <point x="373" y="153"/>
      <point x="369" y="182"/>
      <point x="365" y="189" type="curve"/>
      <point x="359" y="207"/>
      <point x="329" y="243"/>
      <point x="306" y="251" type="curve"/>
      <point x="290" y="255"/>
      <point x="275" y="266"/>
      <point x="257" y="265" type="curve"/>
      <point x="250" y="265"/>
      <point x="223" y="265"/>
      <point x="216" y="268" type="curve"/>
      <point x="231" y="322"/>
      <point x="315" y="514"/>
      <point x="335" y="539" type="curve"/>
      <point x="343" y="550"/>
      <point x="354" y="561"/>
      <point x="354" y="573" type="curve"/>
      <point x="350" y="588"/>
      <point x="339" y="593"/>
      <point x="333" y="602" type="curve"/>
      <point x="323" y="613"/>
      <point x="328" y="613"/>
      <point x="317" y="618" type="curve"/>
      <point x="309" y="606"/>
      <point x="297" y="596"/>
      <point x="295" y="580" type="curve"/>
      <point x="279" y="562"/>
      <point x="163" y="285"/>
      <point x="158" y="268" type="curve"/>
      <point x="153" y="253"/>
      <point x="141" y="243"/>
      <point x="140" y="227" type="curve"/>
      <point x="123" y="194"/>
      <point x="97" y="124"/>
      <point x="100" y="85" type="curve"/>
      <point x="101" y="75"/>
      <point x="104" y="66"/>
      <point x="110" y="58" type="curve"/>
      <point x="125" y="39"/>
      <point x="133" y="22"/>
    </contour>
    <contour>
      <point x="157" y="77" type="curve"/>
      <point x="157" y="85"/>
      <point x="151" y="96"/>
      <point x="153" y="101" type="curve"/>
      <point x="159" y="118"/>
      <point x="180" y="183"/>
      <point x="185" y="188" type="curve"/>
      <point x="187" y="190"/>
      <point x="190" y="193"/>
      <point x="190" y="195" type="curve"/>
      <point x="189" y="212"/>
      <point x="202" y="213"/>
      <point x="214" y="217" type="curve"/>
      <point x="224" y="220"/>
      <point x="234" y="220"/>
      <point x="245" y="217" type="curve"/>
      <point x="249" y="216"/>
      <point x="254" y="213"/>
      <point x="258" y="214" type="curve"/>
      <point x="276" y="215"/>
      <point x="289" y="203"/>
      <point x="302" y="194" type="curve"/>
      <point x="311" y="188"/>
      <point x="314" y="173"/>
      <point x="310" y="162" type="curve"/>
      <point x="300" y="130"/>
      <point x="257" y="86"/>
      <point x="224" y="81" type="curve"/>
      <point x="204" y="77"/>
      <point x="181" y="74"/>
    </contour>
    <contour>
      <point x="158" y="362" type="curve"/>
      <point x="236" y="362"/>
      <point x="309" y="369"/>
      <point x="321" y="369" type="curve"/>
      <point x="345" y="369"/>
      <point x="371" y="371"/>
      <point x="381" y="372" type="curve"/>
      <point x="410" y="369"/>
      <point x="414" y="390"/>
      <point x="397" y="410" type="curve"/>
      <point x="385" y="424"/>
      <point x="376" y="422"/>
      <point x="345" y="422" type="curve"/>
      <point x="294" y="422"/>
      <point x="219" y="417"/>
      <point x="138" y="408" type="curve"/>
      <point x="92" y="403"/>
      <point x="85" y="398"/>
      <point x="97" y="378" type="curve"/>
      <point x="102" y="369"/>
      <point x="106" y="366"/>
      <point x="126" y="366" type="curve"/>
      <point x="138" y="362"/>
      <point x="150" y="362"/>
    </contour>
  </outline>
</glyph>
<glyph name="kadescender-cy" format="2">
  <advance width="399"/>
  <unicode hex="049B"/>
  <outline>
    <contour>
      <point x="260" y="-188" type="curve"/>
      <point x="298" y="-181"/>
      <point x="324" y="-171"/>
      <point x="342" y="-133" type="curve"/>
      <point x="350" y="-118"/>
      <point x="359" y="-103"/>
      <point x="362" y="-86" type="curve"/>
      <point x="368" y="-63"/>
      <point x="369" y="-31"/>
      <point x="371" y="-7" type="curve"/>
      <point x="393" y="3"/>
      <point x="429" y="18"/>
      <point x="450" y="40" type="curve"/>
      <point x="447" y="44"/>
      <point x="446" y="48"/>
      <point x="444" y="52" type="curve"/>
      <point x="436" y="62"/>
      <point x="415" y="66"/>
      <point x="408" y="66" type="curve"/>
      <point x="393" y="66"/>
      <point x="380" y="61"/>
      <point x="363" y="48" type="curve"/>
      <point x="362" y="52"/>
      <point x="361" y="58"/>
      <point x="358" y="62" type="curve"/>
      <point x="335" y="87"/>
      <point x="325" y="119"/>
      <point x="308" y="146" type="curve"/>
      <point x="296" y="157"/>
      <point x="288" y="179"/>
      <point x="280" y="198" type="curve"/>
      <point x="308" y="215"/>
      <point x="336" y="234"/>
      <point x="358" y="261" type="curve"/>
      <point x="374" y="272"/>
      <point x="401" y="310"/>
      <point x="410" y="322" type="curve"/>
      <point x="419" y="334"/>
      <point x="423" y="347"/>
      <point x="425" y="362" type="curve"/>
      <point x="415" y="380"/>
      <point x="418" y="376"/>
      <point x="402" y="388" type="curve"/>
      <point x="393" y="396"/>
      <point x="380" y="397"/>
      <point x="371" y="384" type="curve"/>
      <point x="372" y="385"/>
      <point x="351" y="347"/>
      <point x="348" y="341" type="curve"/>
      <point x="337" y="323"/>
      <point x="323" y="310"/>
      <point x="309" y="291" type="curve"/>
      <point x="308" y="290"/>
      <point x="276" y="260"/>
      <point x="264" y="255" type="curve"/>
      <point x="255" y="243"/>
      <point x="237" y="239"/>
      <point x="221" y="231" type="curve"/>
      <point x="220" y="240"/>
      <point x="225" y="243"/>
      <point x="227" y="247" type="curve"/>
      <point x="240" y="293"/>
      <point x="276" y="343"/>
      <point x="267" y="374" type="curve"/>
      <point x="250" y="397"/>
      <point x="237" y="405"/>
      <point x="210" y="397" type="curve"/>
      <point x="203" y="378"/>
      <point x="185" y="315"/>
      <point x="180" y="308" type="curve"/>
      <point x="182" y="310"/>
      <point x="121" y="159"/>
      <point x="120" y="157" type="curve"/>
      <point x="113" y="136"/>
      <point x="105" y="114"/>
      <point x="100" y="92" type="curve"/>
      <point x="94" y="71"/>
      <point x="91" y="50"/>
      <point x="98" y="27" type="curve"/>
      <point x="112" y="10"/>
      <point x="117" y="8"/>
      <point x="127" y="-1" type="curve"/>
      <point x="141" y="-5"/>
      <point x="141" y="3"/>
      <point x="155" y="18" type="curve"/>
      <point x="156" y="35"/>
      <point x="151" y="53"/>
      <point x="158" y="70" type="curve"/>
      <point x="154" y="80"/>
      <point x="164" y="85"/>
      <point x="166" y="93" type="curve"/>
      <point x="174" y="133"/>
      <point x="195" y="177"/>
      <point x="213" y="219" type="curve"/>
      <point x="218" y="212"/>
      <point x="216" y="206"/>
      <point x="216" y="200" type="curve"/>
      <point x="217" y="170"/>
      <point x="245" y="128"/>
      <point x="267" y="105" type="curve"/>
      <point x="270" y="101"/>
      <point x="275" y="96"/>
      <point x="276" y="91" type="curve"/>
      <point x="278" y="84"/>
      <point x="299" y="40"/>
      <point x="311" y="26" type="curve"/>
      <point x="291" y="14"/>
      <point x="258" y="-16"/>
      <point x="246" y="-28" type="curve"/>
      <point x="233" y="-42"/>
      <point x="214" y="-69"/>
      <point x="210" y="-85" type="curve"/>
      <point x="203" y="-101"/>
      <point x="206" y="-119"/>
      <point x="209" y="-137" type="curve"/>
      <point x="213" y="-162"/>
      <point x="235" y="-182"/>
    </contour>
    <contour>
      <point x="253" y="-133" type="curve"/>
      <point x="247" y="-124"/>
      <point x="253" y="-118"/>
      <point x="254" y="-112" type="curve"/>
      <point x="259" y="-88"/>
      <point x="280" y="-69"/>
      <point x="296" y="-49" type="curve"/>
      <point x="302" y="-39"/>
      <point x="314" y="-28"/>
      <point x="328" y="-25" type="curve"/>
      <point x="328" y="-39"/>
      <point x="323" y="-49"/>
      <point x="318" y="-58" type="curve"/>
      <point x="313" y="-71"/>
      <point x="296" y="-94"/>
      <point x="290" y="-106" type="curve"/>
      <point x="285" y="-118"/>
      <point x="273" y="-139"/>
    </contour>
  </outline>
</glyph>
<glyph name="Kastroke-cy" format="2">
  <advance width="535"/>
  <unicode hex="049E"/>
  <outline>
    <contour>
      <point x="267" y="547" type="curve"/>
      <point x="302" y="547"/>
      <point x="407" y="551"/>
      <point x="419" y="551" type="curve"/>
      <point x="443" y="551"/>
      <point x="469" y="553"/>
      <point x="479" y="554" type="curve"/>
      <point x="508" y="551"/>
      <point x="512" y="572"/>
      <point x="495" y="592" type="curve"/>
      <point x="483" y="606"/>
      <point x="474" y="604"/>
      <point x="443" y="604" type="curve"/>
      <point x="392" y="604"/>
      <point x="292" y="600"/>
      <point x="247" y="593" type="curve"/>
      <point x="201" y="588"/>
      <point x="194" y="583"/>
      <point x="206" y="563" type="curve"/>
      <point x="211" y="554"/>
      <point x="215" y="551"/>
      <point x="235" y="551" type="curve"/>
      <point x="247" y="547"/>
      <point x="259" y="547"/>
    </contour>
    <component base="Ka-cy" xOffset="37"/>
  </outline>
</glyph>
<glyph name="enghe-cy" format="2">
  <advance width="452"/>
  <unicode hex="04A5"/>
  <outline>
    <contour>
      <point x="369" y="295" type="curve"/>
      <point x="430" y="302" type="line"/>
      <point x="446" y="308"/>
      <point x="465" y="307"/>
      <point x="485" y="311" type="curve"/>
      <point x="505" y="315"/>
      <point x="551" y="316"/>
      <point x="563" y="316" type="curve"/>
      <point x="572" y="347" type="line"/>
      <point x="568" y="359"/>
      <point x="551" y="369"/>
      <point x="529" y="372" type="curve"/>
      <point x="511" y="374"/>
      <point x="503" y="373"/>
      <point x="487" y="372" type="curve"/>
      <point x="452" y="364"/>
      <point x="428" y="359"/>
      <point x="415" y="361" type="curve"/>
      <point x="405" y="361"/>
      <point x="399" y="359"/>
      <point x="385" y="361" type="curve"/>
      <point x="379" y="347"/>
      <point x="367" y="339"/>
      <point x="371" y="315" type="curve"/>
      <point x="371" y="305"/>
      <point x="371" y="300"/>
    </contour>
    <component base="en-cy"/>
  </outline>
</glyph>
<glyph name="ustrait-cy" format="2">
  <advance width="371"/>
  <unicode hex="04AF"/>
  <outline>
    <contour>
      <point x="153" y="-253" type="curve"/>
      <point x="158" y="-247"/>
      <point x="165" y="-233"/>
      <point x="217" y="-77" type="curve"/>
      <point x="229" y="-31"/>
      <point x="243" y="11"/>
      <point x="271" y="76" type="curve"/>
      <point x="203" y="86" type="line"/>
      <point x="192" y="51"/>
      <point x="181" y="26"/>
      <point x="179" y="21" type="curve"/>
      <point x="148" y="-56"/>
      <point x="120" y="-198"/>
      <point x="120" y="-213" type="curve"/>
      <point x="120" y="-225"/>
      <point x="138" y="-248"/>
    </contour>
    <component base="v.ss01" xOffset="41"/>
  </outline>
</glyph>
<glyph name="tetse-cy" format="2">
  <advance width="460"/>
  <unicode hex="04B5"/>
  <outline>
    <contour>
      <point x="481" y="97" type="curve"/>
      <point x="461" y="110"/>
      <point x="446" y="108"/>
      <point x="429" y="108" type="curve"/>
      <point x="396" y="104" type="line"/>
      <point x="425" y="181" type="line"/>
      <point x="419" y="171"/>
      <point x="457" y="255"/>
      <point x="451" y="246" type="curve"/>
      <point x="450" y="257"/>
      <point x="457" y="270"/>
      <point x="464" y="281" type="curve"/>
      <point x="472" y="291"/>
      <point x="472" y="305"/>
      <point x="478" y="315" type="curve"/>
      <point x="476" y="332"/>
      <point x="466" y="339"/>
      <point x="455" y="349" type="curve"/>
      <point x="448" y="355"/>
      <point x="439" y="356"/>
      <point x="428" y="355" type="curve"/>
      <point x="409" y="347"/>
      <point x="392" y="317"/>
      <point x="392" y="282" type="curve"/>
      <point x="392" y="281"/>
      <point x="364" y="202"/>
      <point x="364" y="202" type="curve"/>
      <point x="331" y="109"/>
      <point x="326" y="97"/>
      <point x="325" y="83" type="curve"/>
      <point x="325" y="77"/>
      <point x="246" y="38"/>
      <point x="201" y="55" type="curve"/>
      <point x="192" y="60"/>
      <point x="188" y="67"/>
      <point x="191" y="75" type="curve"/>
      <point x="200" y="99"/>
      <point x="217" y="152"/>
      <point x="231" y="187" type="curve"/>
      <point x="241" y="213"/>
      <point x="269" y="272"/>
      <point x="278" y="301" type="curve"/>
      <point x="284" y="321" type="line"/>
      <point x="304" y="322"/>
      <point x="324" y="323"/>
      <point x="333" y="324" type="curve"/>
      <point x="362" y="321"/>
      <point x="366" y="342"/>
      <point x="349" y="362" type="curve"/>
      <point x="337" y="376"/>
      <point x="328" y="374"/>
      <point x="297" y="374" type="curve"/>
      <point x="246" y="374"/>
      <point x="186" y="369"/>
      <point x="141" y="362" type="curve"/>
      <point x="95" y="357"/>
      <point x="88" y="352"/>
      <point x="100" y="332" type="curve"/>
      <point x="105" y="323"/>
      <point x="109" y="320"/>
      <point x="129" y="320" type="curve"/>
      <point x="141" y="316"/>
      <point x="153" y="316"/>
      <point x="161" y="316" type="curve"/>
      <point x="175" y="316"/>
      <point x="195" y="317"/>
      <point x="213" y="318" type="curve"/>
      <point x="208" y="298"/>
      <point x="194" y="265"/>
      <point x="192" y="256" type="curve"/>
      <point x="183" y="223"/>
      <point x="168" y="190"/>
      <point x="152" y="159" type="curve"/>
      <point x="148" y="151"/>
      <point x="131" y="109"/>
      <point x="129" y="92" type="curve"/>
      <point x="128" y="84"/>
      <point x="124" y="41"/>
      <point x="159" y="16" type="curve"/>
      <point x="177" y="3"/>
      <point x="197" y="-2"/>
      <point x="267" y="0" type="curve"/>
      <point x="301" y="11"/>
      <point x="314" y="13"/>
      <point x="346" y="29" type="curve"/>
      <point x="355" y="29"/>
      <point x="400" y="51"/>
      <point x="407" y="52" type="curve"/>
      <point x="412" y="54"/>
      <point x="417" y="49"/>
      <point x="416" y="43" type="curve"/>
      <point x="416" y="31"/>
      <point x="385" y="-27"/>
      <point x="383" y="-33" type="curve"/>
      <point x="380" y="-43"/>
      <point x="370" y="-76"/>
      <point x="370" y="-90" type="curve"/>
      <point x="385" y="-114"/>
      <point x="405" y="-116"/>
      <point x="420" y="-92" type="curve"/>
      <point x="427" y="-83"/>
      <point x="434" y="-74"/>
      <point x="439" y="-65" type="curve"/>
      <point x="454" y="-37"/>
      <point x="489" y="31"/>
      <point x="496" y="59" type="curve"/>
      <point x="491" y="73"/>
      <point x="487" y="97"/>
    </contour>
  </outline>
</glyph>
<glyph name="kahook-cy" format="2">
  <advance width="390"/>
  <unicode hex="04C4"/>
  <outline>
    <contour>
      <point x="133" y="0" type="curve"/>
      <point x="145" y="2"/>
      <point x="150" y="11"/>
      <point x="158" y="20" type="curve"/>
      <point x="159" y="55"/>
      <point x="180" y="104"/>
      <point x="191" y="141" type="curve"/>
      <point x="198" y="162"/>
      <point x="206" y="181"/>
      <point x="212" y="202" type="curve"/>
      <point x="212" y="203"/>
      <point x="215" y="204"/>
      <point x="216" y="205" type="curve"/>
      <point x="219" y="222"/>
      <point x="224" y="238"/>
      <point x="230" y="254" type="curve"/>
      <point x="243" y="294"/>
      <point x="254" y="314"/>
      <point x="266" y="371" type="curve"/>
      <point x="266" y="384"/>
      <point x="256" y="382"/>
      <point x="251" y="387" type="curve"/>
      <point x="246" y="392"/>
      <point x="239" y="398"/>
      <point x="233" y="403" type="curve"/>
      <point x="221" y="397"/>
      <point x="213" y="409"/>
      <point x="206" y="387" type="curve"/>
      <point x="203" y="379"/>
      <point x="201" y="370"/>
      <point x="200" y="362" type="curve"/>
      <point x="197" y="355"/>
      <point x="196" y="346"/>
      <point x="191" y="341" type="curve"/>
      <point x="185" y="334"/>
      <point x="188" y="325"/>
      <point x="180" y="297" type="curve"/>
      <point x="175" y="281"/>
      <point x="165" y="267"/>
      <point x="164" y="249" type="curve"/>
      <point x="155" y="231"/>
      <point x="154" y="210"/>
      <point x="144" y="193" type="curve"/>
      <point x="146" y="195"/>
      <point x="121" y="125"/>
      <point x="118" y="116" type="curve"/>
      <point x="117" y="113"/>
      <point x="109" y="95"/>
      <point x="108" y="87" type="curve"/>
      <point x="106" y="82"/>
      <point x="99" y="80"/>
      <point x="101" y="74" type="curve"/>
      <point x="103" y="68"/>
      <point x="99" y="63"/>
      <point x="98" y="60" type="curve"/>
      <point x="93" y="51"/>
      <point x="94" y="43"/>
      <point x="94" y="35" type="curve"/>
      <point x="107" y="15"/>
      <point x="106" y="13"/>
    </contour>
    <contour>
      <point x="264" y="-150" type="curve"/>
      <point x="316" y="-128"/>
      <point x="347" y="-101"/>
      <point x="366" y="-72" type="curve"/>
      <point x="371" y="-65"/>
      <point x="386" y="-42"/>
      <point x="389" y="-26" type="curve"/>
      <point x="390" y="-15"/>
      <point x="401" y="-7"/>
      <point x="397" y="6" type="curve"/>
      <point x="413" y="36"/>
      <point x="408" y="49"/>
      <point x="408" y="76" type="curve"/>
      <point x="408" y="83"/>
      <point x="399" y="115"/>
      <point x="390" y="126" type="curve"/>
      <point x="381" y="140"/>
      <point x="361" y="161"/>
      <point x="358" y="161" type="curve"/>
      <point x="341" y="174"/>
      <point x="337" y="177"/>
      <point x="305" y="185" type="curve"/>
      <point x="314" y="193"/>
      <point x="333" y="205"/>
      <point x="340" y="211" type="curve"/>
      <point x="373" y="240"/>
      <point x="416" y="283"/>
      <point x="444" y="317" type="curve"/>
      <point x="453" y="328"/>
      <point x="459" y="339"/>
      <point x="453" y="354" type="curve"/>
      <point x="437" y="359"/>
      <point x="434" y="373"/>
      <point x="414" y="369" type="curve"/>
      <point x="316" y="256" type="line" smooth="yes"/>
      <point x="305" y="244"/>
      <point x="291" y="232"/>
      <point x="277" y="221" type="curve"/>
      <point x="269" y="213"/>
      <point x="255" y="214"/>
      <point x="250" y="200" type="curve"/>
      <point x="249" y="197"/>
      <point x="245" y="194"/>
      <point x="242" y="191" type="curve"/>
      <point x="238" y="191"/>
      <point x="234" y="191"/>
      <point x="230" y="190" type="curve"/>
      <point x="230" y="181"/>
      <point x="230" y="178"/>
      <point x="227" y="168" type="curve"/>
      <point x="240" y="153"/>
      <point x="245" y="142"/>
      <point x="271" y="134" type="curve"/>
      <point x="274" y="133"/>
      <point x="276" y="132"/>
      <point x="280" y="132" type="curve"/>
      <point x="308" y="135"/>
      <point x="330" y="111"/>
      <point x="344" y="94" type="curve"/>
      <point x="346" y="66"/>
      <point x="347" y="60"/>
      <point x="341" y="48" type="curve"/>
      <point x="346" y="40"/>
      <point x="339" y="33"/>
      <point x="339" y="27" type="curve"/>
      <point x="341" y="12"/>
      <point x="335" y="-3"/>
      <point x="331" y="-17" type="curve"/>
      <point x="324" y="-42"/>
      <point x="299" y="-67"/>
      <point x="283" y="-82" type="curve"/>
      <point x="266" y="-93"/>
      <point x="249" y="-96"/>
      <point x="230" y="-90" type="curve"/>
      <point x="221" y="-88"/>
      <point x="209" y="-95"/>
      <point x="209" y="-107" type="curve"/>
      <point x="210" y="-119"/>
      <point x="213" y="-124"/>
      <point x="222" y="-134" type="curve"/>
      <point x="229" y="-141"/>
      <point x="237" y="-145"/>
      <point x="246" y="-145" type="curve"/>
      <point x="251" y="-151"/>
      <point x="257" y="-153"/>
    </contour>
  </outline>
</glyph>
<glyph name="Enhook-cy" format="2">
  <advance width="563"/>
  <unicode hex="04C7"/>
  <outline>
    <contour>
      <point x="702" y="646" type="curve"/>
      <point x="697" y="657"/>
      <point x="680" y="662"/>
      <point x="675" y="662" type="curve"/>
      <point x="659" y="662"/>
      <point x="650" y="655"/>
      <point x="629" y="594" type="curve"/>
      <point x="616" y="556"/>
      <point x="595" y="495"/>
      <point x="585" y="458" type="curve"/>
      <point x="551" y="355" type="line"/>
      <point x="499" y="350" type="line"/>
      <point x="467" y="344"/>
      <point x="251" y="349"/>
      <point x="251" y="342" type="curve"/>
      <point x="251" y="347"/>
      <point x="266" y="375"/>
      <point x="281" y="417" type="curve"/>
      <point x="292" y="453"/>
      <point x="315" y="511"/>
      <point x="315" y="511" type="curve"/>
      <point x="315" y="516"/>
      <point x="331" y="552"/>
      <point x="352" y="589" type="curve"/>
      <point x="388" y="661" type="line"/>
      <point x="378" y="677" type="line"/>
      <point x="367" y="698"/>
      <point x="341" y="708"/>
      <point x="331" y="693" type="curve"/>
      <point x="331" y="687"/>
      <point x="320" y="672"/>
      <point x="315" y="661" type="curve"/>
      <point x="279" y="583"/>
      <point x="258" y="531"/>
      <point x="253" y="526" type="curve"/>
      <point x="253" y="521" type="line"/>
      <point x="253" y="521"/>
      <point x="232" y="474"/>
      <point x="221" y="443" type="curve"/>
      <point x="211" y="417"/>
      <point x="200" y="386"/>
      <point x="195" y="380" type="curve"/>
      <point x="195" y="375"/>
      <point x="190" y="354"/>
      <point x="185" y="339" type="curve"/>
      <point x="174" y="323"/>
      <point x="174" y="308"/>
      <point x="174" y="308" type="curve"/>
      <point x="174" y="297" type="line"/>
      <point x="164" y="287"/>
      <point x="111" y="95"/>
      <point x="101" y="38" type="curve"/>
      <point x="96" y="17"/>
      <point x="96" y="17"/>
      <point x="91" y="7" type="curve"/>
      <point x="91" y="-4"/>
      <point x="88" y="-26"/>
      <point x="83" y="-31" type="curve"/>
      <point x="78" y="-52"/>
      <point x="88" y="-73"/>
      <point x="109" y="-78" type="curve"/>
      <point x="120" y="-78"/>
      <point x="130" y="-83"/>
      <point x="130" y="-83" type="curve"/>
      <point x="135" y="-68"/>
      <point x="165" y="47"/>
      <point x="175" y="94" type="curve"/>
      <point x="180" y="125"/>
      <point x="229" y="278"/>
      <point x="234" y="289" type="curve"/>
      <point x="307" y="289" type="line"/>
      <point x="385" y="299"/>
      <point x="520" y="298"/>
      <point x="525" y="292" type="curve"/>
      <point x="525" y="282" type="line"/>
      <point x="520" y="277"/>
      <point x="494" y="165"/>
      <point x="479" y="124" type="curve"/>
      <point x="468" y="82"/>
      <point x="450" y="31"/>
      <point x="439" y="-10" type="curve"/>
      <point x="411" y="-116"/>
      <point x="354" y="-169"/>
      <point x="302" y="-151" type="curve"/>
      <point x="291" y="-141"/>
      <point x="278" y="-142"/>
      <point x="273" y="-142" type="curve"/>
      <point x="260" y="-142"/>
      <point x="254" y="-147"/>
      <point x="252" y="-158" type="curve"/>
      <point x="249" y="-176"/>
      <point x="257" y="-193"/>
      <point x="278" y="-196" type="curve"/>
      <point x="387" y="-237"/>
      <point x="459" y="-118"/>
      <point x="483" y="-45" type="curve"/>
      <point x="520" y="66" type="line"/>
      <point x="520" y="72"/>
      <point x="531" y="103"/>
      <point x="536" y="119" type="curve"/>
      <point x="536" y="129"/>
      <point x="546" y="145"/>
      <point x="546" y="155" type="curve"/>
      <point x="567" y="207"/>
      <point x="603" y="339"/>
      <point x="608" y="355" type="curve"/>
      <point x="613" y="360"/>
      <point x="618" y="376"/>
      <point x="618" y="386" type="curve"/>
      <point x="618" y="391"/>
      <point x="637" y="438"/>
      <point x="642" y="443" type="curve"/>
      <point x="647" y="448"/>
      <point x="652" y="458"/>
      <point x="652" y="474" type="curve"/>
      <point x="663" y="500"/>
      <point x="676" y="548"/>
      <point x="697" y="584" type="curve"/>
      <point x="718" y="615"/>
      <point x="718" y="631"/>
    </contour>
  </outline>
</glyph>
<glyph name="Hahook-cy" format="2">
  <advance width="495"/>
  <unicode hex="04FC"/>
  <outline>
    <contour>
      <point x="626" y="645" type="curve"/>
      <point x="616" y="649"/>
      <point x="603" y="653"/>
      <point x="599" y="653" type="curve"/>
      <point x="593" y="653"/>
      <point x="586" y="649"/>
      <point x="588" y="640" type="curve"/>
      <point x="591" y="635"/>
      <point x="538" y="567"/>
      <point x="537" y="565" type="curve"/>
      <point x="512" y="527"/>
      <point x="493" y="513"/>
      <point x="489" y="506" type="curve"/>
      <point x="461" y="462"/>
      <point x="401" y="418"/>
      <point x="379" y="384" type="curve"/>
      <point x="376" y="395"/>
      <point x="346" y="492"/>
      <point x="347" y="486" type="curve"/>
      <point x="326" y="561" type="line"/>
      <point x="321" y="585"/>
      <point x="314" y="608"/>
      <point x="307" y="630" type="curve"/>
      <point x="297" y="641"/>
      <point x="285" y="652"/>
      <point x="266" y="652" type="curve"/>
      <point x="255" y="652"/>
      <point x="249" y="649"/>
      <point x="243" y="643" type="curve"/>
      <point x="239" y="629"/>
      <point x="240" y="618"/>
      <point x="247" y="606" type="curve"/>
      <point x="244" y="610"/>
      <point x="272" y="514"/>
      <point x="274" y="503" type="curve"/>
      <point x="276" y="494"/>
      <point x="298" y="423"/>
      <point x="298" y="413" type="curve"/>
      <point x="306" y="402"/>
      <point x="324" y="343"/>
      <point x="324" y="328" type="curve"/>
      <point x="321" y="326"/>
      <point x="217" y="218"/>
      <point x="217" y="218" type="curve"/>
      <point x="185" y="180"/>
      <point x="166" y="157"/>
      <point x="145" y="136" type="curve"/>
      <point x="130" y="114"/>
      <point x="113" y="91"/>
      <point x="95" y="67" type="curve"/>
      <point x="55" y="25" type="line"/>
      <point x="55" y="-15"/>
      <point x="77" y="-24"/>
      <point x="104" y="-24" type="curve"/>
      <point x="163" y="55"/>
      <point x="205" y="108"/>
      <point x="270" y="179" type="curve"/>
      <point x="276" y="191"/>
      <point x="334" y="246"/>
      <point x="348" y="260" type="curve"/>
      <point x="350" y="253"/>
      <point x="354" y="247"/>
      <point x="354" y="240" type="curve"/>
      <point x="353" y="232"/>
      <point x="359" y="226"/>
      <point x="361" y="219" type="curve"/>
      <point x="363" y="212"/>
      <point x="372" y="157"/>
      <point x="377" y="141" type="curve"/>
      <point x="383" y="117"/>
      <point x="397" y="32"/>
      <point x="390" y="17" type="curve"/>
      <point x="387" y="12"/>
      <point x="394" y="1"/>
      <point x="392" y="-5" type="curve"/>
      <point x="386" y="-18"/>
      <point x="388" y="-31"/>
      <point x="388" y="-44" type="curve"/>
      <point x="386" y="-88"/>
      <point x="367" y="-137"/>
      <point x="328" y="-154" type="curve"/>
      <point x="299" y="-148" type="line"/>
      <point x="289" y="-150"/>
      <point x="281" y="-160"/>
      <point x="281" y="-171" type="curve"/>
      <point x="281" y="-186"/>
      <point x="299" y="-197"/>
      <point x="319" y="-199" type="curve"/>
      <point x="331" y="-199"/>
      <point x="343" y="-197"/>
      <point x="354" y="-201" type="curve"/>
      <point x="360" y="-197"/>
      <point x="365" y="-190"/>
      <point x="371" y="-189" type="curve"/>
      <point x="392" y="-185"/>
      <point x="404" y="-157"/>
      <point x="420" y="-144" type="curve"/>
      <point x="439" y="-129"/>
      <point x="440" y="-108"/>
      <point x="446" y="-91" type="curve"/>
      <point x="453" y="-73"/>
      <point x="457" y="-45"/>
      <point x="457" y="-24" type="curve"/>
      <point x="459" y="12" type="line"/>
      <point x="459" y="28"/>
      <point x="465" y="44"/>
      <point x="459" y="60" type="curve"/>
      <point x="460" y="60"/>
      <point x="453" y="131"/>
      <point x="452" y="131" type="curve"/>
      <point x="453" y="131"/>
      <point x="432" y="218"/>
      <point x="432" y="217" type="curve"/>
      <point x="421" y="268"/>
      <point x="418" y="282"/>
      <point x="402" y="313" type="curve"/>
      <point x="416" y="328"/>
      <point x="421" y="331"/>
      <point x="440" y="354" type="curve"/>
      <point x="458" y="376"/>
      <point x="514" y="431"/>
      <point x="524" y="447" type="curve"/>
      <point x="536" y="465"/>
      <point x="551" y="481"/>
      <point x="567" y="496" type="curve"/>
      <point x="598" y="528"/>
      <point x="625" y="565"/>
      <point x="638" y="591" type="curve"/>
      <point x="652" y="609"/>
      <point x="642" y="632"/>
    </contour>
  </outline>
</glyph>
<glyph name="hahook-cy" format="2">
  <advance width="404"/>
  <unicode hex="04FD"/>
  <outline>
    <contour>
      <point x="208" y="-198" type="curve"/>
      <point x="216" y="-196"/>
      <point x="224" y="-195"/>
      <point x="230" y="-190" type="curve"/>
      <point x="238" y="-184"/>
      <point x="246" y="-180"/>
      <point x="255" y="-176" type="curve"/>
      <point x="273" y="-165"/>
      <point x="307" y="-138"/>
      <point x="322" y="-114" type="curve"/>
      <point x="324" y="-110"/>
      <point x="327" y="-105"/>
      <point x="331" y="-101" type="curve"/>
      <point x="341" y="-92"/>
      <point x="347" y="-80"/>
      <point x="350" y="-68" type="curve"/>
      <point x="357" y="-45"/>
      <point x="361" y="18"/>
      <point x="356" y="26" type="curve"/>
      <point x="356" y="27"/>
      <point x="347" y="74"/>
      <point x="346" y="74" type="curve"/>
      <point x="345" y="83"/>
      <point x="344" y="93"/>
      <point x="341" y="102" type="curve"/>
      <point x="343" y="97"/>
      <point x="312" y="161"/>
      <point x="303" y="175" type="curve"/>
      <point x="300" y="179"/>
      <point x="296" y="183"/>
      <point x="292" y="187" type="curve"/>
      <point x="287" y="194"/>
      <point x="287" y="201"/>
      <point x="294" y="205" type="curve"/>
      <point x="304" y="211"/>
      <point x="311" y="219"/>
      <point x="320" y="227" type="curve"/>
      <point x="328" y="236"/>
      <point x="338" y="243"/>
      <point x="348" y="250" type="curve"/>
      <point x="365" y="261"/>
      <point x="381" y="275"/>
      <point x="399" y="288" type="curve"/>
      <point x="403" y="288"/>
      <point x="408" y="288"/>
      <point x="412" y="289" type="curve"/>
      <point x="422" y="296"/>
      <point x="427" y="305"/>
      <point x="428" y="318" type="curve"/>
      <point x="421" y="326"/>
      <point x="414" y="331"/>
      <point x="408" y="334" type="curve"/>
      <point x="400" y="336"/>
      <point x="391" y="336"/>
      <point x="383" y="340" type="curve"/>
      <point x="379" y="342"/>
      <point x="375" y="340"/>
      <point x="371" y="336" type="curve"/>
      <point x="359" y="324"/>
      <point x="346" y="313"/>
      <point x="332" y="302" type="curve"/>
      <point x="318" y="292"/>
      <point x="304" y="281"/>
      <point x="290" y="271" type="curve"/>
      <point x="282" y="264"/>
      <point x="262" y="245"/>
      <point x="258" y="235" type="curve"/>
      <point x="259" y="235"/>
      <point x="198" y="309"/>
      <point x="182" y="329" type="curve"/>
      <point x="171" y="345"/>
      <point x="154" y="352"/>
      <point x="137" y="357" type="curve"/>
      <point x="131" y="359"/>
      <point x="111" y="357"/>
      <point x="113" y="346" type="curve"/>
      <point x="115" y="333"/>
      <point x="118" y="318"/>
      <point x="128" y="312" type="curve"/>
      <point x="137" y="307"/>
      <point x="140" y="297"/>
      <point x="147" y="291" type="curve"/>
      <point x="155" y="285"/>
      <point x="162" y="277"/>
      <point x="204" y="221" type="curve"/>
      <point x="208" y="216"/>
      <point x="210" y="210"/>
      <point x="213" y="205" type="curve"/>
      <point x="201" y="195"/>
      <point x="194" y="182"/>
      <point x="180" y="175" type="curve"/>
      <point x="173" y="162"/>
      <point x="160" y="153"/>
      <point x="150" y="142" type="curve"/>
      <point x="144" y="136"/>
      <point x="137" y="134"/>
      <point x="132" y="127" type="curve"/>
      <point x="120" y="110"/>
      <point x="104" y="96"/>
      <point x="87" y="84" type="curve"/>
      <point x="76" y="76"/>
      <point x="62" y="65"/>
      <point x="56" y="57" type="curve"/>
      <point x="58" y="51"/>
      <point x="62" y="35"/>
      <point x="66" y="33" type="curve"/>
      <point x="73" y="28"/>
      <point x="82" y="27"/>
      <point x="87" y="19" type="curve"/>
      <point x="88" y="18"/>
      <point x="94" y="18"/>
      <point x="97" y="19" type="curve"/>
      <point x="117" y="26"/>
      <point x="161" y="70"/>
      <point x="181" y="97" type="curve"/>
      <point x="190" y="110"/>
      <point x="204" y="117"/>
      <point x="212" y="128" type="curve"/>
      <point x="219" y="137"/>
      <point x="228" y="145"/>
      <point x="236" y="153" type="curve"/>
      <point x="238" y="154"/>
      <point x="241" y="154"/>
      <point x="243" y="155" type="curve"/>
      <point x="252" y="143"/>
      <point x="257" y="129"/>
      <point x="263" y="116" type="curve"/>
      <point x="276" y="87"/>
      <point x="278" y="78"/>
      <point x="286" y="35" type="curve"/>
      <point x="291" y="9"/>
      <point x="289" y="17"/>
      <point x="289" y="0" type="curve"/>
      <point x="291" y="-24"/>
      <point x="289" y="-33"/>
      <point x="283" y="-52" type="curve"/>
      <point x="277" y="-70"/>
      <point x="267" y="-87"/>
      <point x="255" y="-101" type="curve"/>
      <point x="243" y="-115"/>
      <point x="233" y="-131"/>
      <point x="215" y="-137" type="curve"/>
      <point x="197" y="-146"/>
      <point x="204" y="-153"/>
      <point x="166" y="-158" type="curve"/>
      <point x="157" y="-159"/>
      <point x="149" y="-162"/>
      <point x="146" y="-172" type="curve"/>
      <point x="145" y="-170"/>
      <point x="150" y="-182"/>
      <point x="155" y="-187" type="curve"/>
      <point x="162" y="-191"/>
      <point x="188" y="-206"/>
    </contour>
  </outline>
</glyph>
<glyph name="Elhook-cy" format="2">
  <advance width="605"/>
  <unicode hex="0512"/>
  <outline>
    <contour>
      <point x="666" y="586" type="curve"/>
      <point x="662" y="596"/>
      <point x="648" y="615"/>
      <point x="640" y="615" type="curve"/>
      <point x="614" y="607"/>
      <point x="626" y="631"/>
      <point x="640" y="639" type="curve"/>
      <point x="636" y="649"/>
      <point x="624" y="649"/>
      <point x="621" y="660" type="curve"/>
      <point x="619" y="669"/>
      <point x="584" y="679"/>
      <point x="557" y="678" type="curve"/>
      <point x="550" y="673"/>
      <point x="476" y="666"/>
      <point x="471" y="666" type="curve"/>
      <point x="440" y="654"/>
      <point x="410" y="645"/>
      <point x="379" y="637" type="curve"/>
      <point x="384" y="640"/>
      <point x="275" y="599"/>
      <point x="267" y="596" type="curve"/>
      <point x="243" y="587"/>
      <point x="241" y="556"/>
      <point x="253" y="533" type="curve"/>
      <point x="287" y="523"/>
      <point x="293" y="532"/>
      <point x="351" y="560" type="curve"/>
      <point x="384" y="578"/>
      <point x="401" y="581"/>
      <point x="415" y="581" type="curve"/>
      <point x="395" y="537"/>
      <point x="358" y="461"/>
      <point x="359" y="445" type="curve"/>
      <point x="359" y="434"/>
      <point x="349" y="439"/>
      <point x="345" y="426" type="curve"/>
      <point x="315" y="363"/>
      <point x="335" y="393"/>
      <point x="296" y="321" type="curve"/>
      <point x="299" y="313" type="line"/>
      <point x="288" y="305"/>
      <point x="287" y="308"/>
      <point x="282" y="279" type="curve"/>
      <point x="266" y="268"/>
      <point x="260" y="251"/>
      <point x="251" y="235" type="curve"/>
      <point x="239" y="214"/>
      <point x="227" y="192"/>
      <point x="213" y="172" type="curve"/>
      <point x="182" y="129"/>
      <point x="167" y="109"/>
      <point x="142" y="81" type="curve"/>
      <point x="138" y="77"/>
      <point x="106" y="42"/>
      <point x="88" y="25" type="curve"/>
      <point x="84" y="21"/>
      <point x="79" y="17"/>
      <point x="74" y="17" type="curve"/>
      <point x="61" y="17"/>
      <point x="52" y="9"/>
      <point x="48" y="-1" type="curve"/>
      <point x="50" y="-26"/>
      <point x="86" y="-47"/>
      <point x="106" y="-37" type="curve"/>
      <point x="125" y="-29"/>
      <point x="161" y="7"/>
      <point x="179" y="30" type="curve"/>
      <point x="217" y="76"/>
      <point x="233" y="97"/>
      <point x="264" y="141" type="curve"/>
      <point x="298" y="195"/>
      <point x="359" y="310"/>
      <point x="373" y="353" type="curve"/>
      <point x="388" y="386"/>
      <point x="402" y="419"/>
      <point x="419" y="451" type="curve"/>
      <point x="433" y="478"/>
      <point x="474" y="574"/>
      <point x="475" y="587" type="curve"/>
      <point x="477" y="596"/>
      <point x="484" y="603"/>
      <point x="494" y="604" type="curve"/>
      <point x="531" y="611"/>
      <point x="563" y="615"/>
      <point x="596" y="615" type="curve"/>
      <point x="592" y="610"/>
      <point x="595" y="606"/>
      <point x="597" y="604" type="curve"/>
      <point x="595" y="575"/>
      <point x="590" y="532"/>
      <point x="585" y="518" type="curve"/>
      <point x="565" y="427" type="line"/>
      <point x="563" y="423"/>
      <point x="548" y="358"/>
      <point x="545" y="347" type="curve"/>
      <point x="535" y="314"/>
      <point x="532" y="281"/>
      <point x="530" y="273" type="curve"/>
      <point x="515" y="247"/>
      <point x="502" y="177"/>
      <point x="499" y="164" type="curve"/>
      <point x="496" y="153"/>
      <point x="481" y="112"/>
      <point x="466" y="75" type="curve"/>
      <point x="435" y="5" type="line" smooth="yes"/>
      <point x="403" y="-72"/>
      <point x="335" y="-138"/>
      <point x="305" y="-119" type="curve"/>
      <point x="296" y="-107"/>
      <point x="279" y="-107"/>
      <point x="274" y="-107" type="curve"/>
      <point x="268" y="-107"/>
      <point x="254" y="-111"/>
      <point x="251" y="-122" type="curve"/>
      <point x="245" y="-139"/>
      <point x="258" y="-150"/>
      <point x="272" y="-158" type="curve"/>
      <point x="365" y="-211"/>
      <point x="457" y="-102"/>
      <point x="496" y="2" type="curve"/>
      <point x="496" y="8"/>
      <point x="502" y="12"/>
      <point x="502" y="12" type="curve"/>
      <point x="506" y="23"/>
      <point x="505" y="26"/>
      <point x="510" y="32" type="curve"/>
      <point x="514" y="37"/>
      <point x="518" y="57"/>
      <point x="526" y="68" type="curve"/>
      <point x="543" y="131"/>
      <point x="589" y="213"/>
      <point x="599" y="287" type="curve"/>
      <point x="597" y="287"/>
      <point x="624" y="374"/>
      <point x="623" y="378" type="curve"/>
      <point x="625" y="397"/>
      <point x="632" y="417"/>
      <point x="635" y="435" type="curve"/>
      <point x="639" y="435"/>
      <point x="672" y="556"/>
    </contour>
  </outline>
</glyph>
<glyph name="enlefthook-cy" format="2">
  <advance width="387"/>
  <unicode hex="0529"/>
  <outline>
    <contour>
      <point x="-25" y="-107" type="curve"/>
      <point x="10" y="-136"/>
      <point x="64" y="-128"/>
      <point x="89" y="-95" type="curve"/>
      <point x="104" y="-79"/>
      <point x="131" y="-23"/>
      <point x="137" y="3" type="curve"/>
      <point x="140" y="14"/>
      <point x="142" y="24"/>
      <point x="145" y="33" type="curve"/>
      <point x="149" y="51"/>
      <point x="156" y="68"/>
      <point x="158" y="86" type="curve"/>
      <point x="158" y="108"/>
      <point x="173" y="139"/>
      <point x="175" y="152" type="curve"/>
      <point x="181" y="155" type="line"/>
      <point x="193" y="150"/>
      <point x="235" y="148"/>
      <point x="246" y="153" type="curve"/>
      <point x="243" y="151"/>
      <point x="310" y="166"/>
      <point x="321" y="161" type="curve"/>
      <point x="315" y="127"/>
      <point x="312" y="114"/>
      <point x="305" y="94" type="curve"/>
      <point x="300" y="78"/>
      <point x="299" y="67"/>
      <point x="300" y="59" type="curve"/>
      <point x="308" y="52"/>
      <point x="312" y="51"/>
      <point x="339" y="41" type="curve"/>
      <point x="342" y="42"/>
      <point x="352" y="48"/>
      <point x="355" y="59" type="curve"/>
      <point x="362" y="83"/>
      <point x="378" y="156"/>
      <point x="380" y="162" type="curve"/>
      <point x="381" y="167"/>
      <point x="388" y="172"/>
      <point x="392" y="172" type="curve"/>
      <point x="402" y="173"/>
      <point x="406" y="181"/>
      <point x="422" y="184" type="curve"/>
      <point x="423" y="200"/>
      <point x="421" y="215"/>
      <point x="400" y="215" type="curve"/>
      <point x="400" y="218" type="line"/>
      <point x="404" y="227"/>
      <point x="451" y="337"/>
      <point x="447" y="321" type="curve"/>
      <point x="458" y="352"/>
      <point x="420" y="371"/>
      <point x="392" y="355" type="curve"/>
      <point x="388" y="346"/>
      <point x="382" y="326"/>
      <point x="381" y="324" type="curve"/>
      <point x="359" y="287"/>
      <point x="351" y="253"/>
      <point x="336" y="213" type="curve"/>
      <point x="334" y="215"/>
      <point x="267" y="213"/>
      <point x="258" y="211" type="curve"/>
      <point x="245" y="211"/>
      <point x="212" y="200"/>
      <point x="199" y="208" type="curve"/>
      <point x="199" y="216" type="line"/>
      <point x="251" y="343" type="line"/>
      <point x="253" y="347"/>
      <point x="253" y="354"/>
      <point x="254" y="362" type="curve"/>
      <point x="253" y="378"/>
      <point x="236" y="391"/>
      <point x="214" y="390" type="curve"/>
      <point x="206" y="390"/>
      <point x="201" y="387"/>
      <point x="198" y="379" type="curve"/>
      <point x="197" y="377"/>
      <point x="177" y="315"/>
      <point x="172" y="304" type="curve"/>
      <point x="177" y="318"/>
      <point x="150" y="244"/>
      <point x="151" y="245" type="curve"/>
      <point x="138" y="218"/>
      <point x="129" y="186"/>
      <point x="118" y="157" type="curve"/>
      <point x="112" y="141"/>
      <point x="109" y="124"/>
      <point x="104" y="106" type="curve"/>
      <point x="94" y="59" type="line" smooth="yes"/>
      <point x="84" y="18"/>
      <point x="74" y="-24"/>
      <point x="65" y="-39" type="curve"/>
      <point x="53" y="-65"/>
      <point x="16" y="-74"/>
      <point x="2" y="-71" type="curve"/>
      <point x="-24" y="-65"/>
      <point x="-43" y="-82"/>
    </contour>
  </outline>
</glyph>
<glyph name="oneinferior" format="2">
  <advance width="320"/>
  <unicode hex="2081"/>
  <outline>
    <contour>
      <point x="194" y="-240" type="curve"/>
      <point x="199" y="-235"/>
      <point x="203" y="-224"/>
      <point x="207" y="-210" type="curve"/>
      <point x="214" y="-190" type="line"/>
      <point x="218" y="-167"/>
      <point x="228" y="-128"/>
      <point x="239" y="-101" type="curve"/>
      <point x="244" y="-75"/>
      <point x="248" y="-63"/>
      <point x="253" y="-50" type="curve"/>
      <point x="253" y="-49"/>
      <point x="254" y="-44"/>
      <point x="255" y="-43" type="curve"/>
      <point x="259" y="-32"/>
      <point x="263" y="-16"/>
      <point x="268" y="2" type="curve"/>
      <point x="281" y="47"/>
      <point x="311" y="143"/>
      <point x="319" y="166" type="curve"/>
      <point x="323" y="175"/>
      <point x="325" y="187"/>
      <point x="324" y="193" type="curve"/>
      <point x="320" y="205"/>
      <point x="302" y="216"/>
      <point x="300" y="217" type="curve"/>
      <point x="293" y="218"/>
      <point x="261" y="202"/>
      <point x="224" y="176" type="curve"/>
      <point x="208" y="163" type="line"/>
      <point x="202" y="158"/>
      <point x="196" y="154"/>
      <point x="191" y="149" type="curve"/>
      <point x="167" y="131"/>
      <point x="150" y="117"/>
      <point x="147" y="114" type="curve"/>
      <point x="148" y="114" type="line"/>
      <point x="136" y="104" type="line"/>
      <point x="132" y="101" type="line"/>
      <point x="130" y="99"/>
      <point x="129" y="98"/>
      <point x="128" y="98" type="curve"/>
      <point x="124" y="96"/>
      <point x="115" y="89"/>
      <point x="105" y="81" type="curve"/>
      <point x="90" y="69"/>
      <point x="70" y="55"/>
      <point x="67" y="54" type="curve"/>
      <point x="60" y="41"/>
      <point x="66" y="25"/>
      <point x="82" y="11" type="curve"/>
      <point x="95" y="2"/>
      <point x="98" y="4"/>
      <point x="126" y="29" type="curve"/>
      <point x="137" y="36"/>
      <point x="147" y="44"/>
      <point x="156" y="52" type="curve"/>
      <point x="168" y="62"/>
      <point x="180" y="72"/>
      <point x="191" y="79" type="curve"/>
      <point x="213" y="97"/>
      <point x="234" y="113"/>
      <point x="246" y="121" type="curve"/>
      <point x="231" y="66" type="line"/>
      <point x="227" y="49"/>
      <point x="222" y="33"/>
      <point x="218" y="16" type="curve"/>
      <point x="206" y="-26" type="line"/>
      <point x="194" y="-69"/>
      <point x="184" y="-103"/>
      <point x="179" y="-106" type="curve"/>
      <point x="179" y="-106"/>
      <point x="171" y="-127"/>
      <point x="165" y="-164" type="curve"/>
      <point x="161" y="-183" type="line"/>
      <point x="155" y="-209"/>
      <point x="156" y="-221"/>
      <point x="161" y="-227" type="curve"/>
      <point x="172" y="-239"/>
      <point x="186" y="-248"/>
    </contour>
  </outline>
</glyph>
<glyph name="uni20A6" format="2">
  <advance width="450"/>
  <unicode hex="20A6"/>
  <outline>
    <contour>
      <point x="114" y="-23" type="curve"/>
      <point x="123" y="-22"/>
      <point x="136" y="-1"/>
      <point x="134" y="16" type="curve"/>
      <point x="137" y="31"/>
      <point x="150" y="78"/>
      <point x="177" y="155" type="curve"/>
      <point x="193" y="206"/>
      <point x="287" y="489"/>
      <point x="293" y="490" type="curve"/>
      <point x="294" y="484"/>
      <point x="294" y="422"/>
      <point x="298" y="340" type="curve"/>
      <point x="302" y="236"/>
      <point x="306" y="196"/>
      <point x="314" y="153" type="curve"/>
      <point x="329" y="79"/>
      <point x="366" y="35"/>
      <point x="390" y="32" type="curve"/>
      <point x="401" y="34"/>
      <point x="409" y="47"/>
      <point x="417" y="68" type="curve"/>
      <point x="431" y="89"/>
      <point x="439" y="110"/>
      <point x="439" y="110" type="curve"/>
      <point x="439" y="110"/>
      <point x="451" y="126"/>
      <point x="454" y="136" type="curve"/>
      <point x="461" y="148"/>
      <point x="469" y="160"/>
      <point x="469" y="160" type="curve"/>
      <point x="469" y="160"/>
      <point x="478" y="178"/>
      <point x="482" y="196" type="curve"/>
      <point x="487" y="208"/>
      <point x="497" y="229"/>
      <point x="500" y="236" type="curve"/>
      <point x="511" y="257"/>
      <point x="561" y="401"/>
      <point x="579" y="470" type="curve"/>
      <point x="591" y="509"/>
      <point x="605" y="553"/>
      <point x="609" y="568" type="curve"/>
      <point x="612" y="587"/>
      <point x="612" y="587"/>
      <point x="605" y="604" type="curve"/>
      <point x="567" y="642"/>
      <point x="570" y="649"/>
      <point x="546" y="552" type="curve"/>
      <point x="540" y="532"/>
      <point x="532" y="507"/>
      <point x="534" y="495" type="curve"/>
      <point x="527" y="482"/>
      <point x="524" y="462"/>
      <point x="519" y="456" type="curve"/>
      <point x="519" y="443"/>
      <point x="482" y="340"/>
      <point x="479" y="334" type="curve"/>
      <point x="474" y="321"/>
      <point x="464" y="305"/>
      <point x="460" y="284" type="curve"/>
      <point x="450" y="262"/>
      <point x="425" y="201"/>
      <point x="417" y="193" type="curve"/>
      <point x="417" y="193"/>
      <point x="411" y="171"/>
      <point x="399" y="159" type="curve"/>
      <point x="390" y="144"/>
      <point x="379" y="131"/>
      <point x="379" y="131" type="curve"/>
      <point x="375" y="131"/>
      <point x="377" y="141"/>
      <point x="370" y="154" type="curve"/>
      <point x="370" y="166"/>
      <point x="361" y="193"/>
      <point x="364" y="197" type="curve"/>
      <point x="364" y="203"/>
      <point x="357" y="296"/>
      <point x="354" y="390" type="curve"/>
      <point x="350" y="572"/>
      <point x="350" y="578"/>
      <point x="338" y="602" type="curve"/>
      <point x="326" y="623"/>
      <point x="318" y="634"/>
      <point x="303" y="631" type="curve"/>
      <point x="295" y="631"/>
      <point x="291" y="624"/>
      <point x="292" y="617" type="curve"/>
      <point x="289" y="614"/>
      <point x="285" y="607"/>
      <point x="280" y="606" type="curve"/>
      <point x="275" y="604"/>
      <point x="267" y="596"/>
      <point x="262" y="595" type="curve"/>
      <point x="262" y="590"/>
      <point x="232" y="503"/>
      <point x="195" y="407" type="curve"/>
      <point x="140" y="252"/>
      <point x="84" y="66"/>
      <point x="76" y="14" type="curve"/>
      <point x="78" y="4"/>
      <point x="97" y="-26"/>
    </contour>
    <contour>
      <point x="140" y="216" type="curve"/>
      <point x="193" y="216"/>
      <point x="257" y="220"/>
      <point x="279" y="221" type="curve"/>
      <point x="311" y="223"/>
      <point x="494" y="215"/>
      <point x="510" y="216" type="curve"/>
      <point x="552" y="211"/>
      <point x="560" y="234"/>
      <point x="533" y="254" type="curve"/>
      <point x="511" y="268"/>
      <point x="502" y="269"/>
      <point x="454" y="269" type="curve"/>
      <point x="377" y="269"/>
      <point x="175" y="275"/>
      <point x="111" y="265" type="curve"/>
      <point x="42" y="260"/>
      <point x="27" y="255"/>
      <point x="48" y="235" type="curve"/>
      <point x="55" y="226"/>
      <point x="62" y="221"/>
      <point x="90" y="221" type="curve"/>
      <point x="111" y="216"/>
      <point x="129" y="216"/>
    </contour>
    <contour>
      <point x="489" y="353" type="curve"/>
      <point x="522" y="355"/>
      <point x="564" y="357"/>
      <point x="578" y="358" type="curve"/>
      <point x="621" y="353"/>
      <point x="628" y="376"/>
      <point x="602" y="396" type="curve"/>
      <point x="579" y="410"/>
      <point x="571" y="411"/>
      <point x="522" y="411" type="curve"/>
      <point x="446" y="411"/>
      <point x="242" y="417"/>
      <point x="180" y="407" type="curve"/>
      <point x="110" y="402"/>
      <point x="96" y="397"/>
      <point x="117" y="377" type="curve"/>
      <point x="123" y="368"/>
      <point x="130" y="363"/>
      <point x="157" y="363" type="curve"/>
      <point x="180" y="358"/>
      <point x="196" y="358"/>
      <point x="208" y="358" type="curve"/>
      <point x="261" y="358"/>
      <point x="467" y="352"/>
    </contour>
  </outline>
</glyph>
<glyph name="uni20A9" format="2">
  <advance width="450"/>
  <unicode hex="20A9"/>
  <outline>
    <contour>
      <point x="365" y="-16" type="curve"/>
      <point x="372" y="-11"/>
      <point x="381" y="-6"/>
      <point x="382" y="0" type="curve"/>
      <point x="382" y="7"/>
      <point x="394" y="12"/>
      <point x="399" y="11" type="curve"/>
      <point x="418" y="20"/>
      <point x="498" y="182"/>
      <point x="522" y="240" type="curve"/>
      <point x="526" y="245"/>
      <point x="538" y="273"/>
      <point x="543" y="283" type="curve"/>
      <point x="548" y="299"/>
      <point x="558" y="321"/>
      <point x="564" y="324" type="curve"/>
      <point x="564" y="345"/>
      <point x="564" y="355"/>
      <point x="570" y="360" type="curve"/>
      <point x="573" y="372"/>
      <point x="581" y="388"/>
      <point x="587" y="403" type="curve"/>
      <point x="587" y="414"/>
      <point x="587" y="424"/>
      <point x="592" y="424" type="curve"/>
      <point x="593" y="430"/>
      <point x="602" y="446"/>
      <point x="611" y="483" type="curve"/>
      <point x="623" y="506"/>
      <point x="638" y="563"/>
      <point x="638" y="563" type="curve"/>
      <point x="638" y="563"/>
      <point x="633" y="580"/>
      <point x="628" y="592" type="curve"/>
      <point x="626" y="608"/>
      <point x="606" y="608"/>
      <point x="591" y="602" type="curve"/>
      <point x="586" y="598"/>
      <point x="581" y="583"/>
      <point x="581" y="564" type="curve"/>
      <point x="569" y="551"/>
      <point x="556" y="495"/>
      <point x="551" y="485" type="curve"/>
      <point x="546" y="457"/>
      <point x="526" y="404"/>
      <point x="511" y="373" type="curve"/>
      <point x="501" y="321"/>
      <point x="481" y="289"/>
      <point x="474" y="257" type="curve"/>
      <point x="463" y="247"/>
      <point x="445" y="191"/>
      <point x="423" y="159" type="curve"/>
      <point x="387" y="92"/>
      <point x="376" y="65"/>
      <point x="365" y="61" type="curve"/>
      <point x="361" y="50"/>
      <point x="350" y="64"/>
      <point x="354" y="78" type="curve"/>
      <point x="347" y="107"/>
      <point x="354" y="143"/>
      <point x="354" y="148" type="curve"/>
      <point x="354" y="157"/>
      <point x="359" y="198"/>
      <point x="360" y="234" type="curve"/>
      <point x="366" y="308"/>
      <point x="377" y="351"/>
      <point x="400" y="439" type="curve"/>
      <point x="406" y="496"/>
      <point x="416" y="501"/>
      <point x="401" y="520" type="curve"/>
      <point x="388" y="537"/>
      <point x="378" y="541"/>
      <point x="363" y="524" type="curve"/>
      <point x="352" y="503"/>
      <point x="338" y="459"/>
      <point x="310" y="407" type="curve"/>
      <point x="232" y="244"/>
      <point x="187" y="130"/>
      <point x="147" y="115" type="curve"/>
      <point x="132" y="163"/>
      <point x="174" y="319"/>
      <point x="203" y="455" type="curve"/>
      <point x="235" y="567"/>
      <point x="235" y="609"/>
      <point x="224" y="622" type="curve"/>
      <point x="213" y="640"/>
      <point x="187" y="645"/>
      <point x="176" y="636" type="curve"/>
      <point x="167" y="623"/>
      <point x="88" y="187"/>
      <point x="90" y="140" type="curve"/>
      <point x="82" y="109"/>
      <point x="89" y="82"/>
      <point x="91" y="53" type="curve"/>
      <point x="96" y="33"/>
      <point x="121" y="18"/>
      <point x="136" y="16" type="curve"/>
      <point x="153" y="14"/>
      <point x="195" y="78"/>
      <point x="245" y="151" type="curve"/>
      <point x="256" y="188"/>
      <point x="281" y="220"/>
      <point x="281" y="230" type="curve"/>
      <point x="285" y="236"/>
      <point x="285" y="241"/>
      <point x="285" y="246" type="curve"/>
      <point x="292" y="251"/>
      <point x="299" y="251"/>
      <point x="299" y="251" type="curve"/>
      <point x="303" y="251"/>
      <point x="299" y="241"/>
      <point x="299" y="230" type="curve"/>
      <point x="303" y="209"/>
      <point x="301" y="198"/>
      <point x="301" y="198" type="curve"/>
      <point x="292" y="187"/>
      <point x="295" y="134"/>
      <point x="289" y="108" type="curve"/>
      <point x="289" y="91"/>
      <point x="297" y="73"/>
      <point x="297" y="73" type="curve"/>
      <point x="297" y="73"/>
      <point x="289" y="57"/>
      <point x="289" y="48" type="curve"/>
      <point x="289" y="41"/>
      <point x="304" y="-4"/>
      <point x="314" y="-4" type="curve"/>
      <point x="314" y="-4"/>
      <point x="321" y="-5"/>
      <point x="329" y="-11" type="curve"/>
      <point x="346" y="-19"/>
      <point x="350" y="-19"/>
    </contour>
    <contour>
      <point x="107" y="216" type="curve"/>
      <point x="166" y="216"/>
      <point x="239" y="220"/>
      <point x="263" y="221" type="curve"/>
      <point x="299" y="223"/>
      <point x="505" y="215"/>
      <point x="523" y="216" type="curve"/>
      <point x="569" y="211"/>
      <point x="579" y="234"/>
      <point x="548" y="254" type="curve"/>
      <point x="524" y="268"/>
      <point x="513" y="269"/>
      <point x="460" y="269" type="curve"/>
      <point x="373" y="269"/>
      <point x="146" y="275"/>
      <point x="74" y="265" type="curve"/>
      <point x="-3" y="260"/>
      <point x="-20" y="255"/>
      <point x="3" y="235" type="curve"/>
      <point x="12" y="226"/>
      <point x="19" y="221"/>
      <point x="51" y="221" type="curve"/>
      <point x="74" y="216"/>
      <point x="94" y="216"/>
    </contour>
    <contour>
      <point x="499" y="353" type="curve"/>
      <point x="536" y="355"/>
      <point x="583" y="357"/>
      <point x="599" y="358" type="curve"/>
      <point x="648" y="353"/>
      <point x="655" y="376"/>
      <point x="625" y="396" type="curve"/>
      <point x="600" y="410"/>
      <point x="592" y="411"/>
      <point x="536" y="411" type="curve"/>
      <point x="451" y="411"/>
      <point x="222" y="417"/>
      <point x="152" y="407" type="curve"/>
      <point x="73" y="402"/>
      <point x="57" y="397"/>
      <point x="81" y="377" type="curve"/>
      <point x="88" y="368"/>
      <point x="95" y="363"/>
      <point x="126" y="363" type="curve"/>
      <point x="152" y="358"/>
      <point x="170" y="358"/>
      <point x="183" y="358" type="curve"/>
      <point x="243" y="358"/>
      <point x="474" y="352"/>
    </contour>
  </outline>
</glyph>
<glyph name="trademark" format="2">
  <advance width="660"/>
  <unicode hex="2122"/>
  <outline>
    <contour>
      <point x="375" y="273" type="curve"/>
      <point x="381" y="279"/>
      <point x="382" y="282"/>
      <point x="389" y="296" type="curve"/>
      <point x="389" y="295"/>
      <point x="396" y="308"/>
      <point x="400" y="315" type="curve"/>
      <point x="463" y="435" type="line"/>
      <point x="479" y="471"/>
      <point x="498" y="506"/>
      <point x="511" y="527" type="curve"/>
      <point x="510" y="527" type="line"/>
      <point x="512" y="530" type="line"/>
      <point x="510" y="517"/>
      <point x="506" y="503"/>
      <point x="505" y="490" type="curve"/>
      <point x="491" y="413" type="line"/>
      <point x="488" y="393"/>
      <point x="487" y="377"/>
      <point x="487" y="365" type="curve"/>
      <point x="487" y="343"/>
      <point x="491" y="329"/>
      <point x="504" y="315" type="curve"/>
      <point x="525" y="294"/>
      <point x="545" y="302"/>
      <point x="572" y="330" type="curve"/>
      <point x="587" y="347"/>
      <point x="609" y="380"/>
      <point x="609" y="383" type="curve"/>
      <point x="622" y="401" type="line"/>
      <point x="629" y="410"/>
      <point x="638" y="427"/>
      <point x="643" y="436" type="curve"/>
      <point x="643" y="435" type="line"/>
      <point x="648" y="443" type="line"/>
      <point x="652" y="452"/>
      <point x="654" y="458"/>
      <point x="656" y="463" type="curve"/>
      <point x="656" y="463"/>
      <point x="657" y="463"/>
      <point x="660" y="466" type="curve"/>
      <point x="697" y="536" type="line"/>
      <point x="712" y="564" type="line"/>
      <point x="716" y="572" type="line"/>
      <point x="721" y="582"/>
      <point x="724" y="590"/>
      <point x="733" y="599" type="curve"/>
      <point x="734" y="600" type="line"/>
      <point x="720" y="542" type="line"/>
      <point x="707" y="486"/>
      <point x="696" y="433"/>
      <point x="688" y="391" type="curve"/>
      <point x="686" y="379"/>
      <point x="683" y="368"/>
      <point x="681" y="358" type="curve"/>
      <point x="681" y="355"/>
      <point x="679" y="350"/>
      <point x="679" y="347" type="curve"/>
      <point x="676" y="330" type="line"/>
      <point x="676" y="321" type="line"/>
      <point x="676" y="303"/>
      <point x="676" y="295"/>
      <point x="681" y="281" type="curve"/>
      <point x="692" y="264"/>
      <point x="712" y="264"/>
      <point x="714" y="274" type="curve"/>
      <point x="724" y="277"/>
      <point x="726" y="291"/>
      <point x="729" y="319" type="curve"/>
      <point x="729" y="344"/>
      <point x="731" y="370"/>
      <point x="738" y="381" type="curve"/>
      <point x="737" y="387"/>
      <point x="739" y="401"/>
      <point x="741" y="418" type="curve"/>
      <point x="741" y="420"/>
      <point x="742" y="423"/>
      <point x="742" y="425" type="curve"/>
      <point x="746" y="445" type="line"/>
      <point x="755" y="471"/>
      <point x="765" y="509"/>
      <point x="770" y="529" type="curve"/>
      <point x="783" y="575"/>
      <point x="792" y="630"/>
      <point x="792" y="647" type="curve"/>
      <point x="790" y="685"/>
      <point x="763" y="707"/>
      <point x="741" y="689" type="curve"/>
      <point x="743" y="691" type="line"/>
      <point x="734" y="683"/>
      <point x="721" y="665"/>
      <point x="710" y="648" type="curve"/>
      <point x="695" y="623" type="line"/>
      <point x="651" y="542"/>
      <point x="618" y="487"/>
      <point x="597" y="452" type="curve"/>
      <point x="593" y="446" type="line"/>
      <point x="589" y="438"/>
      <point x="583" y="429"/>
      <point x="578" y="420" type="curve"/>
      <point x="570" y="407" type="line"/>
      <point x="570" y="408" type="line"/>
      <point x="561" y="396"/>
      <point x="550" y="380"/>
      <point x="545" y="372" type="curve"/>
      <point x="541" y="365" type="line"/>
      <point x="540" y="364"/>
      <point x="540" y="363"/>
      <point x="540" y="363" type="curve"/>
      <point x="538" y="386"/>
      <point x="558" y="504"/>
      <point x="581" y="574" type="curve"/>
      <point x="581" y="577"/>
      <point x="582" y="582"/>
      <point x="583" y="586" type="curve"/>
      <point x="585" y="595"/>
      <point x="587" y="615"/>
      <point x="587" y="627" type="curve"/>
      <point x="591" y="650"/>
      <point x="587" y="659"/>
      <point x="582" y="667" type="curve"/>
      <point x="582" y="666" type="line"/>
      <point x="580" y="670" type="line"/>
      <point x="572" y="682"/>
      <point x="563" y="682"/>
      <point x="552" y="682" type="curve"/>
      <point x="541" y="682"/>
      <point x="529" y="664"/>
      <point x="529" y="647" type="curve"/>
      <point x="529" y="642"/>
      <point x="523" y="632"/>
      <point x="519" y="628" type="curve"/>
      <point x="510" y="617"/>
      <point x="490" y="582"/>
      <point x="466" y="541" type="curve"/>
      <point x="457" y="526" type="line"/>
      <point x="458" y="526" type="line"/>
      <point x="454" y="522"/>
      <point x="455" y="522"/>
      <point x="454" y="521" type="curve"/>
      <point x="449" y="511" type="line"/>
      <point x="436" y="483"/>
      <point x="418" y="451"/>
      <point x="409" y="435" type="curve"/>
      <point x="400" y="417"/>
      <point x="391" y="401"/>
      <point x="386" y="398" type="curve"/>
      <point x="384" y="388"/>
      <point x="382" y="382"/>
      <point x="379" y="378" type="curve"/>
      <point x="380" y="378" type="line"/>
      <point x="373" y="372"/>
      <point x="365" y="356"/>
      <point x="356" y="336" type="curve"/>
      <point x="342" y="303"/>
      <point x="340" y="299"/>
      <point x="343" y="291" type="curve"/>
      <point x="351" y="281"/>
      <point x="362" y="273"/>
    </contour>
    <contour>
      <point x="207" y="274" type="curve"/>
      <point x="217" y="272"/>
      <point x="221" y="273"/>
      <point x="228" y="293" type="curve"/>
      <point x="235" y="319" type="line"/>
      <point x="239" y="340"/>
      <point x="252" y="374"/>
      <point x="259" y="387" type="curve"/>
      <point x="274" y="431" type="line"/>
      <point x="283" y="457" type="line"/>
      <point x="283" y="456" type="line"/>
      <point x="288" y="464"/>
      <point x="290" y="473"/>
      <point x="293" y="484" type="curve"/>
      <point x="297" y="497" type="line"/>
      <point x="303" y="513" type="line"/>
      <point x="311" y="537"/>
      <point x="320" y="560"/>
      <point x="318" y="564" type="curve"/>
      <point x="321" y="568"/>
      <point x="324" y="577"/>
      <point x="326" y="583" type="curve"/>
      <point x="329" y="592" type="line"/>
      <point x="329" y="594"/>
      <point x="331" y="598"/>
      <point x="331" y="600" type="curve"/>
      <point x="340" y="620"/>
      <point x="344" y="638"/>
      <point x="345" y="647" type="curve"/>
      <point x="295" y="648" type="line"/>
      <point x="292" y="636" type="line"/>
      <point x="294" y="635" type="line"/>
      <point x="293" y="634"/>
      <point x="290" y="629"/>
      <point x="290" y="628" type="curve"/>
      <point x="286" y="621" type="line"/>
      <point x="286" y="620"/>
      <point x="285" y="618"/>
      <point x="284" y="617" type="curve"/>
      <point x="283" y="615"/>
      <point x="282" y="614"/>
      <point x="282" y="614" type="curve"/>
      <point x="282" y="610"/>
      <point x="282" y="604"/>
      <point x="277" y="602" type="curve"/>
      <point x="276" y="598"/>
      <point x="273" y="588"/>
      <point x="267" y="578" type="curve"/>
      <point x="263" y="566"/>
      <point x="231" y="465"/>
      <point x="228" y="450" type="curve"/>
      <point x="226" y="438"/>
      <point x="219" y="423"/>
      <point x="216" y="418" type="curve"/>
      <point x="216" y="416"/>
      <point x="215" y="413"/>
      <point x="213" y="408" type="curve"/>
      <point x="209" y="392" type="line"/>
      <point x="201" y="371"/>
      <point x="185" y="319"/>
      <point x="185" y="299" type="curve"/>
      <point x="184" y="290"/>
      <point x="198" y="276"/>
    </contour>
    <contour>
      <point x="214" y="623" type="curve"/>
      <point x="224" y="626"/>
      <point x="252" y="627"/>
      <point x="264" y="627" type="curve"/>
      <point x="268" y="627"/>
      <point x="272" y="628"/>
      <point x="276" y="629" type="curve"/>
      <point x="291" y="632" type="line"/>
      <point x="333" y="634" type="line"/>
      <point x="333" y="635"/>
      <point x="334" y="636"/>
      <point x="337" y="636" type="curve"/>
      <point x="343" y="636"/>
      <point x="357" y="637"/>
      <point x="365" y="638" type="curve"/>
      <point x="393" y="635"/>
      <point x="400" y="632"/>
      <point x="405" y="627" type="curve"/>
      <point x="419" y="621"/>
      <point x="427" y="621"/>
      <point x="450" y="628" type="curve"/>
      <point x="457" y="632"/>
      <point x="460" y="636"/>
      <point x="459" y="643" type="curve"/>
      <point x="456" y="656"/>
      <point x="446" y="665"/>
      <point x="426" y="669" type="curve"/>
      <point x="427" y="669" type="line"/>
      <point x="415" y="674"/>
      <point x="375" y="677"/>
      <point x="371" y="677" type="curve"/>
      <point x="371" y="677"/>
      <point x="354" y="676"/>
      <point x="332" y="675" type="curve"/>
      <point x="309" y="673"/>
      <point x="292" y="671"/>
      <point x="278" y="669" type="curve"/>
      <point x="241" y="665" type="line"/>
      <point x="206" y="658" type="line"/>
      <point x="189" y="657"/>
      <point x="177" y="651"/>
      <point x="175" y="640" type="curve"/>
      <point x="173" y="627"/>
      <point x="188" y="622"/>
    </contour>
  </outline>
</glyph>
<glyph name="El-cy.ss01" format="2">
  <advance width="562"/>
  <outline>
    <contour>
      <point x="103" y="-40" type="curve"/>
      <point x="118" y="-33"/>
      <point x="133" y="-26"/>
      <point x="144" y="-14" type="curve"/>
      <point x="172" y="15"/>
      <point x="209" y="72"/>
      <point x="230" y="107" type="curve"/>
      <point x="242" y="127"/>
      <point x="249" y="149"/>
      <point x="263" y="167" type="curve"/>
      <point x="264" y="173"/>
      <point x="294" y="239"/>
      <point x="296" y="242" type="curve"/>
      <point x="302" y="251"/>
      <point x="305" y="257"/>
      <point x="309" y="267" type="curve"/>
      <point x="313" y="277"/>
      <point x="316" y="287"/>
      <point x="322" y="296" type="curve"/>
      <point x="328" y="306"/>
      <point x="326" y="316"/>
      <point x="331" y="326" type="curve"/>
      <point x="357" y="382"/>
      <point x="379" y="443"/>
      <point x="410" y="496" type="curve"/>
      <point x="427" y="526"/>
      <point x="436" y="558"/>
      <point x="457" y="587" type="curve"/>
      <point x="480" y="590"/>
      <point x="506" y="578"/>
      <point x="526" y="568" type="curve"/>
      <point x="539" y="548" type="line"/>
      <point x="539" y="529"/>
      <point x="540" y="509"/>
      <point x="539" y="490" type="curve"/>
      <point x="538" y="477"/>
      <point x="531" y="466"/>
      <point x="533" y="453" type="curve"/>
      <point x="524" y="429"/>
      <point x="520" y="404"/>
      <point x="514" y="380" type="curve"/>
      <point x="507" y="355"/>
      <point x="498" y="331"/>
      <point x="492" y="306" type="curve"/>
      <point x="490" y="298"/>
      <point x="488" y="290"/>
      <point x="484" y="282" type="curve"/>
      <point x="471" y="255"/>
      <point x="464" y="225"/>
      <point x="453" y="197" type="curve"/>
      <point x="429" y="134"/>
      <point x="403" y="73"/>
      <point x="379" y="10" type="curve"/>
      <point x="382" y="4" type="line" smooth="yes"/>
      <point x="393" y="-19"/>
      <point x="436" y="-44"/>
      <point x="448" y="-8" type="curve"/>
      <point x="477" y="81"/>
      <point x="517" y="167"/>
      <point x="545" y="256" type="curve"/>
      <point x="551" y="274"/>
      <point x="560" y="291"/>
      <point x="565" y="309" type="curve"/>
      <point x="581" y="370"/>
      <point x="598" y="429"/>
      <point x="608" y="491" type="curve"/>
      <point x="611" y="512"/>
      <point x="605" y="536"/>
      <point x="601" y="556" type="curve"/>
      <point x="596" y="582"/>
      <point x="559" y="610"/>
      <point x="538" y="623" type="curve"/>
      <point x="509" y="640"/>
      <point x="484" y="651"/>
      <point x="450" y="651" type="curve"/>
      <point x="446" y="651"/>
      <point x="443" y="651"/>
      <point x="439" y="653" type="curve"/>
      <point x="427" y="658"/>
      <point x="418" y="659"/>
      <point x="406" y="653" type="curve"/>
      <point x="396" y="659"/>
      <point x="375" y="648"/>
      <point x="366" y="654" type="curve"/>
      <point x="328" y="648"/>
      <point x="205" y="623"/>
      <point x="205" y="574" type="curve"/>
      <point x="205" y="569"/>
      <point x="206" y="563"/>
      <point x="206" y="558" type="curve"/>
      <point x="218" y="545"/>
      <point x="234" y="538"/>
      <point x="252" y="536" type="curve"/>
      <point x="256" y="538"/>
      <point x="259" y="541"/>
      <point x="263" y="544" type="curve"/>
      <point x="291" y="567"/>
      <point x="336" y="577"/>
      <point x="371" y="586" type="curve"/>
      <point x="380" y="583" type="line"/>
      <point x="361" y="541"/>
      <point x="340" y="498"/>
      <point x="322" y="456" type="curve"/>
      <point x="315" y="439"/>
      <point x="309" y="421"/>
      <point x="302" y="405" type="curve"/>
      <point x="287" y="369"/>
      <point x="270" y="334"/>
      <point x="254" y="299" type="curve"/>
      <point x="227" y="238"/>
      <point x="195" y="176"/>
      <point x="159" y="120" type="curve"/>
      <point x="143" y="96"/>
      <point x="127" y="73"/>
      <point x="109" y="51" type="curve"/>
      <point x="94" y="33"/>
      <point x="85" y="22"/>
      <point x="61" y="16" type="curve"/>
      <point x="53" y="14"/>
      <point x="50" y="9"/>
      <point x="50" y="1" type="curve"/>
      <point x="50" y="-26"/>
      <point x="81" y="-34"/>
    </contour>
  </outline>
</glyph>
<glyph name="Ge-cy.ss01" format="2">
  <advance width="520"/>
  <outline>
    <contour>
      <point x="184" y="2" type="line"/>
      <point x="199" y="-16" type="line"/>
      <point x="225" y="-40"/>
      <point x="244" y="-39"/>
      <point x="261" y="3" type="curve"/>
      <point x="276" y="22"/>
      <point x="288" y="38"/>
      <point x="289" y="44" type="curve"/>
      <point x="287" y="59"/>
      <point x="280" y="70"/>
      <point x="274" y="65" type="curve"/>
      <point x="267" y="66"/>
      <point x="262" y="71"/>
      <point x="257" y="76" type="curve"/>
      <point x="252" y="83"/>
      <point x="267" y="147"/>
      <point x="283" y="199" type="curve"/>
      <point x="290" y="217"/>
      <point x="289" y="237"/>
      <point x="289" y="237" type="curve"/>
      <point x="291" y="249"/>
      <point x="302" y="253"/>
      <point x="302" y="262" type="curve"/>
      <point x="302" y="306"/>
      <point x="334" y="370"/>
      <point x="346" y="401" type="curve"/>
      <point x="349" y="416"/>
      <point x="362" y="447"/>
      <point x="370" y="470" type="curve"/>
      <point x="395" y="535"/>
      <point x="400" y="545"/>
      <point x="398" y="573" type="curve"/>
      <point x="401" y="593"/>
      <point x="399" y="598"/>
      <point x="404" y="597" type="curve"/>
      <point x="409" y="597"/>
      <point x="419" y="603"/>
      <point x="419" y="603" type="curve"/>
      <point x="427" y="609"/>
      <point x="437" y="607"/>
      <point x="450" y="612" type="curve"/>
      <point x="455" y="611"/>
      <point x="474" y="610"/>
      <point x="493" y="615" type="curve"/>
      <point x="508" y="613"/>
      <point x="523" y="617"/>
      <point x="536" y="617" type="curve"/>
      <point x="561" y="621"/>
      <point x="661" y="609"/>
      <point x="682" y="606" type="curve"/>
      <point x="709" y="597" type="line"/>
      <point x="705" y="620" type="line"/>
      <point x="704" y="657"/>
      <point x="687" y="670"/>
      <point x="640" y="673" type="curve"/>
      <point x="618" y="680"/>
      <point x="598" y="681"/>
      <point x="598" y="681" type="curve"/>
      <point x="598" y="676"/>
      <point x="581" y="677"/>
      <point x="560" y="679" type="curve"/>
      <point x="487" y="680"/>
      <point x="454" y="676"/>
      <point x="443" y="671" type="curve"/>
      <point x="439" y="672"/>
      <point x="418" y="669"/>
      <point x="413" y="668" type="curve"/>
      <point x="408" y="668"/>
      <point x="398" y="669"/>
      <point x="398" y="663" type="curve"/>
      <point x="393" y="658"/>
      <point x="353" y="644"/>
      <point x="333" y="643" type="curve"/>
      <point x="304" y="641"/>
      <point x="282" y="632"/>
      <point x="277" y="627" type="curve"/>
      <point x="272" y="622"/>
      <point x="267" y="618"/>
      <point x="261" y="619" type="curve"/>
      <point x="249" y="620"/>
      <point x="246" y="603"/>
      <point x="258" y="591" type="curve"/>
      <point x="263" y="580"/>
      <point x="269" y="580"/>
      <point x="290" y="585" type="curve"/>
      <point x="305" y="583"/>
      <point x="319" y="587"/>
      <point x="319" y="587" type="curve"/>
      <point x="339" y="590"/>
      <point x="344" y="590"/>
      <point x="336" y="575" type="curve"/>
      <point x="336" y="570"/>
      <point x="331" y="554"/>
      <point x="328" y="543" type="curve"/>
      <point x="328" y="533"/>
      <point x="322" y="513"/>
      <point x="317" y="496" type="curve"/>
      <point x="290" y="445"/>
      <point x="269" y="368"/>
      <point x="268" y="353" type="curve"/>
      <point x="235" y="270" type="line"/>
      <point x="233" y="245" type="line" smooth="yes"/>
      <point x="232" y="232"/>
      <point x="233" y="222"/>
      <point x="228" y="220" type="curve"/>
      <point x="223" y="220"/>
      <point x="205" y="139"/>
      <point x="192" y="49" type="curve"/>
    </contour>
  </outline>
</glyph>
<glyph name="Ge-cy.ss02" format="2">
  <advance width="499"/>
  <outline>
    <contour>
      <point x="138" y="-20" type="curve"/>
      <point x="146" y="-20"/>
      <point x="157" y="-16"/>
      <point x="164" y="-12" type="curve"/>
      <point x="163" y="9"/>
      <point x="171" y="29"/>
      <point x="171" y="50" type="curve"/>
      <point x="184" y="82"/>
      <point x="211" y="184"/>
      <point x="216" y="218" type="curve"/>
      <point x="220" y="245"/>
      <point x="236" y="271"/>
      <point x="242" y="298" type="curve"/>
      <point x="249" y="327"/>
      <point x="260" y="354"/>
      <point x="269" y="382" type="curve"/>
      <point x="295" y="466"/>
      <point x="324" y="547"/>
      <point x="359" y="627" type="curve"/>
      <point x="367" y="630"/>
      <point x="375" y="634"/>
      <point x="384" y="634" type="curve"/>
      <point x="413" y="634"/>
      <point x="459" y="644"/>
      <point x="490" y="648" type="curve"/>
      <point x="500" y="649"/>
      <point x="511" y="653"/>
      <point x="521" y="653" type="curve"/>
      <point x="530" y="653"/>
      <point x="559" y="651"/>
      <point x="567" y="654" type="curve"/>
      <point x="583" y="660"/>
      <point x="595" y="658"/>
      <point x="612" y="658" type="curve"/>
      <point x="636" y="658"/>
      <point x="651" y="661"/>
      <point x="675" y="653" type="curve"/>
      <point x="680" y="651"/>
      <point x="684" y="652"/>
      <point x="689" y="653" type="curve"/>
      <point x="697" y="654"/>
      <point x="701" y="655"/>
      <point x="705" y="663" type="curve"/>
      <point x="734" y="722"/>
      <point x="627" y="730"/>
      <point x="592" y="717" type="curve"/>
      <point x="585" y="721"/>
      <point x="485" y="711"/>
      <point x="469" y="710" type="curve"/>
      <point x="455" y="701"/>
      <point x="382" y="703"/>
      <point x="368" y="695" type="curve"/>
      <point x="360" y="695"/>
      <point x="335" y="703"/>
      <point x="325" y="705" type="curve"/>
      <point x="321" y="699"/>
      <point x="316" y="694"/>
      <point x="311" y="688" type="curve"/>
      <point x="297" y="686"/>
      <point x="280" y="690"/>
      <point x="269" y="678" type="curve"/>
      <point x="264" y="657"/>
      <point x="268" y="637"/>
      <point x="283" y="621" type="curve"/>
      <point x="267" y="579"/>
      <point x="227" y="486"/>
      <point x="219" y="447" type="curve"/>
      <point x="210" y="433"/>
      <point x="213" y="415"/>
      <point x="200" y="403" type="curve"/>
      <point x="204" y="391"/>
      <point x="196" y="379"/>
      <point x="193" y="368" type="curve"/>
      <point x="180" y="323"/>
      <point x="163" y="278"/>
      <point x="151" y="233" type="curve"/>
      <point x="144" y="205"/>
      <point x="140" y="174"/>
      <point x="132" y="147" type="curve"/>
      <point x="122" y="113"/>
      <point x="109" y="78"/>
      <point x="103" y="43" type="curve"/>
      <point x="100" y="24"/>
      <point x="100" y="3"/>
      <point x="109" y="-14" type="curve"/>
      <point x="119" y="-17"/>
      <point x="129" y="-13"/>
    </contour>
  </outline>
</glyph>
<glyph name="Ia-cy.ss01" format="2">
  <advance width="509"/>
  <outline>
    <contour>
      <point x="556" y="607" type="curve"/>
      <point x="513" y="610"/>
      <point x="461" y="589"/>
      <point x="423" y="569" type="curve"/>
      <point x="368" y="540"/>
      <point x="345" y="506"/>
      <point x="324" y="449" type="curve"/>
      <point x="319" y="434"/>
      <point x="320" y="415"/>
      <point x="316" y="405" type="curve"/>
      <point x="301" y="372"/>
      <point x="336" y="320"/>
      <point x="369" y="311" type="curve"/>
      <point x="387" y="306"/>
      <point x="403" y="315"/>
      <point x="418" y="324" type="curve"/>
      <point x="432" y="316"/>
      <point x="446" y="308"/>
      <point x="460" y="299" type="curve"/>
      <point x="463" y="301" type="line"/>
      <point x="489" y="379"/>
      <point x="508" y="458"/>
      <point x="535" y="536" type="curve"/>
      <point x="543" y="559"/>
      <point x="545" y="584"/>
    </contour>
    <contour>
      <point x="124" y="-19" type="curve"/>
      <point x="116" y="-10"/>
      <point x="77" y="24"/>
      <point x="111" y="31" type="curve"/>
      <point x="202" y="49"/>
      <point x="306" y="180"/>
      <point x="357" y="253" type="curve"/>
      <point x="357" y="258" type="line"/>
      <point x="305" y="284"/>
      <point x="263" y="316"/>
      <point x="254" y="377" type="curve"/>
      <point x="252" y="388"/>
      <point x="249" y="396"/>
      <point x="249" y="408" type="curve"/>
      <point x="258" y="420"/>
      <point x="252" y="436"/>
      <point x="256" y="450" type="curve"/>
      <point x="263" y="472"/>
      <point x="271" y="493"/>
      <point x="278" y="514" type="curve"/>
      <point x="302" y="585"/>
      <point x="382" y="626"/>
      <point x="448" y="650" type="curve"/>
      <point x="466" y="657"/>
      <point x="495" y="668"/>
      <point x="514" y="666" type="curve"/>
      <point x="527" y="665"/>
      <point x="541" y="673"/>
      <point x="553" y="668" type="curve"/>
      <point x="576" y="683"/>
      <point x="651" y="647"/>
      <point x="637" y="619" type="curve"/>
      <point x="618" y="581"/>
      <point x="614" y="544"/>
      <point x="598" y="507" type="curve"/>
      <point x="571" y="443"/>
      <point x="502" y="209"/>
      <point x="496" y="138" type="curve"/>
      <point x="494" y="134"/>
      <point x="475" y="23"/>
      <point x="473" y="10" type="curve"/>
      <point x="471" y="-3"/>
      <point x="447" y="-13"/>
      <point x="436" y="-7" type="curve"/>
      <point x="424" y="-1"/>
      <point x="414" y="7"/>
      <point x="405" y="17" type="curve"/>
      <point x="410" y="39"/>
      <point x="412" y="63"/>
      <point x="421" y="84" type="curve"/>
      <point x="421" y="125"/>
      <point x="434" y="145"/>
      <point x="438" y="179" type="curve"/>
      <point x="440" y="200"/>
      <point x="451" y="227"/>
      <point x="450" y="245" type="curve"/>
      <point x="447" y="249" type="line"/>
      <point x="422" y="248" type="line"/>
      <point x="410" y="226"/>
      <point x="390" y="200"/>
      <point x="374" y="181" type="curve"/>
      <point x="326" y="124"/>
      <point x="210" y="-33"/>
    </contour>
  </outline>
</glyph>
<glyph name="M.ss01" format="2">
  <advance width="720"/>
  <outline>
    <contour>
      <point x="661" y="-22" type="curve"/>
      <point x="695" y="-30"/>
      <point x="695" y="-30"/>
      <point x="707" y="-16" type="curve"/>
      <point x="711" y="-11"/>
      <point x="716" y="8"/>
      <point x="715" y="20" type="curve"/>
      <point x="720" y="45"/>
      <point x="719" y="49"/>
      <point x="714" y="48" type="curve"/>
      <point x="687" y="55"/>
      <point x="687" y="142"/>
      <point x="716" y="322" type="curve"/>
      <point x="719" y="338"/>
      <point x="713" y="355"/>
      <point x="713" y="362" type="curve"/>
      <point x="720" y="367"/>
      <point x="720" y="379"/>
      <point x="725" y="391" type="curve"/>
      <point x="726" y="401"/>
      <point x="729" y="422"/>
      <point x="734" y="434" type="curve"/>
      <point x="732" y="453"/>
      <point x="753" y="505"/>
      <point x="769" y="558" type="curve"/>
      <point x="781" y="589"/>
      <point x="778" y="601"/>
      <point x="761" y="620" type="curve"/>
      <point x="740" y="642"/>
      <point x="717" y="638"/>
      <point x="698" y="624" type="curve"/>
      <point x="674" y="604"/>
      <point x="561" y="445"/>
      <point x="527" y="396" type="curve"/>
      <point x="528" y="384"/>
      <point x="519" y="372"/>
      <point x="511" y="367" type="curve"/>
      <point x="507" y="354"/>
      <point x="499" y="347"/>
      <point x="499" y="340" type="curve"/>
      <point x="486" y="318"/>
      <point x="469" y="294"/>
      <point x="450" y="265" type="curve"/>
      <point x="412" y="224" type="line"/>
      <point x="412" y="246" type="line" smooth="yes"/>
      <point x="412" y="258"/>
      <point x="409" y="265"/>
      <point x="407" y="270" type="curve"/>
      <point x="407" y="270"/>
      <point x="421" y="310"/>
      <point x="425" y="356" type="curve"/>
      <point x="429" y="409"/>
      <point x="445" y="475"/>
      <point x="447" y="518" type="curve"/>
      <point x="458" y="554"/>
      <point x="465" y="602"/>
      <point x="465" y="610" type="curve"/>
      <point x="465" y="626"/>
      <point x="423" y="661"/>
      <point x="411" y="659" type="curve"/>
      <point x="404" y="659"/>
      <point x="385" y="625"/>
      <point x="375" y="611" type="curve"/>
      <point x="364" y="591"/>
      <point x="352" y="574"/>
      <point x="352" y="574" type="curve"/>
      <point x="338" y="554"/>
      <point x="336" y="544"/>
      <point x="327" y="529" type="curve"/>
      <point x="298" y="484"/>
      <point x="272" y="446"/>
      <point x="265" y="423" type="curve"/>
      <point x="259" y="418"/>
      <point x="256" y="406"/>
      <point x="251" y="402" type="curve"/>
      <point x="244" y="394"/>
      <point x="240" y="385"/>
      <point x="235" y="373" type="curve"/>
      <point x="233" y="361"/>
      <point x="223" y="341"/>
      <point x="220" y="329" type="curve"/>
      <point x="212" y="324"/>
      <point x="210" y="312"/>
      <point x="206" y="307" type="curve"/>
      <point x="207" y="300"/>
      <point x="202" y="290"/>
      <point x="198" y="283" type="curve"/>
      <point x="175" y="237"/>
      <point x="162" y="201"/>
      <point x="163" y="196" type="curve"/>
      <point x="143" y="167"/>
      <point x="139" y="160"/>
      <point x="140" y="155" type="curve"/>
      <point x="141" y="148"/>
      <point x="114" y="83"/>
      <point x="95" y="61" type="curve"/>
      <point x="80" y="35"/>
      <point x="89" y="20"/>
      <point x="108" y="3" type="curve"/>
      <point x="136" y="-16"/>
      <point x="143" y="-8"/>
      <point x="161" y="40" type="curve"/>
      <point x="175" y="59"/>
      <point x="193" y="106"/>
      <point x="206" y="139" type="curve"/>
      <point x="225" y="175"/>
      <point x="247" y="229"/>
      <point x="251" y="258" type="curve"/>
      <point x="303" y="364"/>
      <point x="333" y="435"/>
      <point x="359" y="468" type="curve"/>
      <point x="363" y="475"/>
      <point x="373" y="487"/>
      <point x="371" y="492" type="curve"/>
      <point x="377" y="488"/>
      <point x="371" y="410"/>
      <point x="365" y="372" type="curve"/>
      <point x="363" y="353"/>
      <point x="355" y="336"/>
      <point x="356" y="331" type="curve"/>
      <point x="354" y="324"/>
      <point x="359" y="307"/>
      <point x="354" y="295" type="curve"/>
      <point x="354" y="286"/>
      <point x="353" y="257"/>
      <point x="355" y="221" type="curve"/>
      <point x="358" y="163"/>
      <point x="368" y="146"/>
      <point x="407" y="137" type="curve"/>
      <point x="435" y="130"/>
      <point x="454" y="150"/>
      <point x="534" y="274" type="curve"/>
      <point x="564" y="333"/>
      <point x="569" y="351"/>
      <point x="581" y="368" type="curve"/>
      <point x="586" y="375"/>
      <point x="602" y="397"/>
      <point x="619" y="425" type="curve"/>
      <point x="647" y="474"/>
      <point x="673" y="508"/>
      <point x="675" y="503" type="curve"/>
      <point x="675" y="496"/>
      <point x="668" y="472"/>
      <point x="663" y="388" type="curve"/>
      <point x="647" y="326"/>
      <point x="624" y="166"/>
      <point x="630" y="127" type="curve"/>
      <point x="626" y="63"/>
      <point x="634" y="23"/>
      <point x="641" y="4" type="curve"/>
      <point x="654" y="-14"/>
      <point x="661" y="-22"/>
    </contour>
  </outline>
</glyph>
<glyph name="Sha-cy.ss02" format="2">
  <advance width="808"/>
  <outline>
    <contour>
      <point x="231" y="-19" type="curve"/>
      <point x="249" y="-19"/>
      <point x="329" y="-10"/>
      <point x="371" y="-9" type="curve"/>
      <point x="384" y="-8"/>
      <point x="426" y="-14"/>
      <point x="432" y="-9" type="curve"/>
      <point x="445" y="-2"/>
      <point x="509" y="-6"/>
      <point x="532" y="-1" type="curve"/>
      <point x="597" y="12"/>
      <point x="656" y="23"/>
      <point x="702" y="42" type="curve"/>
      <point x="709" y="38"/>
      <point x="714" y="43"/>
      <point x="720" y="45" type="curve"/>
      <point x="730" y="49"/>
      <point x="746" y="70"/>
      <point x="738" y="80" type="curve"/>
      <point x="736" y="85"/>
      <point x="761" y="162"/>
      <point x="767" y="174" type="curve"/>
      <point x="786" y="236"/>
      <point x="812" y="296"/>
      <point x="834" y="357" type="curve"/>
      <point x="837" y="391"/>
      <point x="882" y="509"/>
      <point x="920" y="598" type="curve"/>
      <point x="928" y="612"/>
      <point x="929" y="625"/>
      <point x="925" y="639" type="curve"/>
      <point x="908" y="655"/>
      <point x="891" y="661"/>
      <point x="870" y="656" type="curve"/>
      <point x="863" y="641"/>
      <point x="784" y="435"/>
      <point x="771" y="398" type="curve"/>
      <point x="763" y="380"/>
      <point x="754" y="328"/>
      <point x="750" y="309" type="curve"/>
      <point x="745" y="294"/>
      <point x="738" y="278"/>
      <point x="732" y="264" type="curve"/>
      <point x="711" y="221"/>
      <point x="700" y="175"/>
      <point x="683" y="130" type="curve"/>
      <point x="678" y="116"/>
      <point x="675" y="100"/>
      <point x="670" y="86" type="curve"/>
      <point x="659" y="82"/>
      <point x="648" y="79"/>
      <point x="639" y="75" type="curve"/>
      <point x="655" y="77"/>
      <point x="535" y="50"/>
      <point x="477" y="47" type="curve"/>
      <point x="467" y="39"/>
      <point x="459" y="44"/>
      <point x="451" y="49" type="curve"/>
      <point x="455" y="61"/>
      <point x="470" y="116"/>
      <point x="493" y="186" type="curve"/>
      <point x="506" y="230"/>
      <point x="524" y="274"/>
      <point x="540" y="319" type="curve"/>
      <point x="543" y="324"/>
      <point x="661" y="624"/>
      <point x="658" y="621" type="curve"/>
      <point x="670" y="641"/>
      <point x="644" y="656"/>
      <point x="630" y="660" type="curve"/>
      <point x="620" y="663"/>
      <point x="609" y="666"/>
      <point x="599" y="661" type="curve"/>
      <point x="592" y="640" type="line"/>
      <point x="580" y="598"/>
      <point x="575" y="579"/>
      <point x="553" y="529" type="curve"/>
      <point x="536" y="486"/>
      <point x="416" y="136"/>
      <point x="391" y="72" type="curve"/>
      <point x="383" y="43" type="line"/>
      <point x="331" y="37"/>
      <point x="237" y="20"/>
      <point x="183" y="43" type="curve"/>
      <point x="178" y="51"/>
      <point x="176" y="59"/>
      <point x="178" y="68" type="curve"/>
      <point x="176" y="61"/>
      <point x="191" y="135"/>
      <point x="194" y="153" type="curve"/>
      <point x="200" y="181"/>
      <point x="215" y="227"/>
      <point x="238" y="265" type="curve"/>
      <point x="248" y="301"/>
      <point x="274" y="377"/>
      <point x="288" y="412" type="curve"/>
      <point x="287" y="422"/>
      <point x="304" y="462"/>
      <point x="307" y="471" type="curve"/>
      <point x="328" y="517"/>
      <point x="349" y="564"/>
      <point x="373" y="608" type="curve"/>
      <point x="382" y="622"/>
      <point x="377" y="634"/>
      <point x="363" y="640" type="curve"/>
      <point x="338" y="649"/>
      <point x="321" y="661"/>
      <point x="310" y="637" type="curve"/>
      <point x="307" y="627"/>
      <point x="305" y="616"/>
      <point x="298" y="606" type="curve"/>
      <point x="279" y="571"/>
      <point x="263" y="535"/>
      <point x="250" y="497" type="curve"/>
      <point x="226" y="424"/>
      <point x="226" y="441"/>
      <point x="212" y="385" type="curve"/>
      <point x="208" y="366"/>
      <point x="186" y="310"/>
      <point x="176" y="293" type="curve"/>
      <point x="148" y="228"/>
      <point x="126" y="143"/>
      <point x="115" y="93" type="curve"/>
      <point x="113" y="77"/>
      <point x="113" y="60"/>
      <point x="115" y="45" type="curve"/>
      <point x="121" y="11"/>
      <point x="160" y="-21"/>
      <point x="195" y="-17" type="curve"/>
      <point x="206" y="-23"/>
      <point x="219" y="-20"/>
    </contour>
  </outline>
</glyph>
<glyph name="Shcha-cy.ss01" format="2">
  <advance width="914"/>
  <outline>
    <contour>
      <point x="704" y="-223" type="curve"/>
      <point x="727" y="-234"/>
      <point x="756" y="-257"/>
      <point x="767" y="-217" type="curve"/>
      <point x="818" y="-144"/>
      <point x="841" y="-57"/>
      <point x="883" y="21" type="curve"/>
      <point x="889" y="32"/>
      <point x="888" y="45"/>
      <point x="893" y="56" type="curve"/>
      <point x="899" y="70"/>
      <point x="898" y="80"/>
      <point x="888" y="92" type="curve"/>
      <point x="875" y="97"/>
      <point x="862" y="103"/>
      <point x="848" y="104" type="curve"/>
      <point x="834" y="98"/>
      <point x="771" y="97"/>
      <point x="750" y="90" type="curve"/>
      <point x="743" y="88"/>
      <point x="735" y="88"/>
      <point x="730" y="93" type="curve"/>
      <point x="740" y="159"/>
      <point x="921" y="624"/>
      <point x="946" y="654" type="curve"/>
      <point x="947" y="659" type="line"/>
      <point x="945" y="664"/>
      <point x="943" y="670"/>
      <point x="942" y="675" type="curve"/>
      <point x="908" y="698" type="line"/>
      <point x="889" y="693"/>
      <point x="877" y="697"/>
      <point x="876" y="675" type="curve"/>
      <point x="866" y="647"/>
      <point x="856" y="617"/>
      <point x="843" y="589" type="curve"/>
      <point x="815" y="528"/>
      <point x="794" y="464"/>
      <point x="770" y="402" type="curve"/>
      <point x="754" y="362"/>
      <point x="705" y="255"/>
      <point x="701" y="219" type="curve"/>
      <point x="700" y="215"/>
      <point x="698" y="212"/>
      <point x="696" y="209" type="curve"/>
      <point x="680" y="182"/>
      <point x="671" y="145"/>
      <point x="663" y="105" type="curve"/>
      <point x="661" y="100"/>
      <point x="658" y="98"/>
      <point x="658" y="92" type="curve"/>
      <point x="658" y="86"/>
      <point x="661" y="83"/>
      <point x="657" y="78" type="curve"/>
      <point x="608" y="78"/>
      <point x="495" y="49"/>
      <point x="459" y="56" type="curve"/>
      <point x="463" y="65"/>
      <point x="479" y="135"/>
      <point x="480" y="146" type="curve"/>
      <point x="483" y="170"/>
      <point x="496" y="194"/>
      <point x="503" y="217" type="curve"/>
      <point x="526" y="287"/>
      <point x="550" y="356"/>
      <point x="575" y="425" type="curve"/>
      <point x="595" y="482"/>
      <point x="621" y="538"/>
      <point x="639" y="596" type="curve"/>
      <point x="640" y="603"/>
      <point x="641" y="607"/>
      <point x="638" y="613" type="curve"/>
      <point x="631" y="627"/>
      <point x="613" y="639"/>
      <point x="598" y="640" type="curve"/>
      <point x="583" y="642"/>
      <point x="580" y="638"/>
      <point x="574" y="625" type="curve"/>
      <point x="571" y="617"/>
      <point x="550" y="547"/>
      <point x="549" y="541" type="curve"/>
      <point x="530" y="508"/>
      <point x="493" y="398"/>
      <point x="483" y="358" type="curve"/>
      <point x="478" y="336"/>
      <point x="467" y="315"/>
      <point x="459" y="293" type="curve"/>
      <point x="436" y="228"/>
      <point x="416" y="160"/>
      <point x="401" y="95" type="curve"/>
      <point x="396" y="77"/>
      <point x="393" y="59"/>
      <point x="386" y="42" type="curve"/>
      <point x="341" y="44"/>
      <point x="232" y="32"/>
      <point x="202" y="72" type="curve"/>
      <point x="199" y="76"/>
      <point x="197" y="80"/>
      <point x="194" y="83" type="curve"/>
      <point x="193" y="108"/>
      <point x="188" y="149"/>
      <point x="207" y="182" type="curve"/>
      <point x="204" y="202"/>
      <point x="218" y="218"/>
      <point x="218" y="237" type="curve"/>
      <point x="242" y="291"/>
      <point x="258" y="349"/>
      <point x="281" y="403" type="curve"/>
      <point x="300" y="446"/>
      <point x="318" y="491"/>
      <point x="340" y="532" type="curve"/>
      <point x="349" y="548"/>
      <point x="358" y="565"/>
      <point x="364" y="583" type="curve"/>
      <point x="378" y="622"/>
      <point x="349" y="626"/>
      <point x="322" y="640" type="curve"/>
      <point x="311" y="630"/>
      <point x="307" y="627"/>
      <point x="301" y="614" type="curve"/>
      <point x="281" y="571"/>
      <point x="263" y="528"/>
      <point x="242" y="486" type="curve"/>
      <point x="230" y="462"/>
      <point x="226" y="433"/>
      <point x="211" y="409" type="curve"/>
      <point x="207" y="385"/>
      <point x="195" y="362"/>
      <point x="187" y="340" type="curve"/>
      <point x="173" y="301"/>
      <point x="157" y="263"/>
      <point x="146" y="223" type="curve"/>
      <point x="136" y="192"/>
      <point x="129" y="158"/>
      <point x="124" y="126" type="curve"/>
      <point x="121" y="105"/>
      <point x="132" y="81"/>
      <point x="143" y="62" type="curve"/>
      <point x="156" y="41"/>
      <point x="177" y="27"/>
      <point x="197" y="13" type="curve"/>
      <point x="241" y="-17"/>
      <point x="339" y="-9"/>
      <point x="392" y="-9" type="curve"/>
      <point x="398" y="-9"/>
      <point x="403" y="-10"/>
      <point x="409" y="-8" type="curve"/>
      <point x="471" y="2" type="line"/>
      <point x="493" y="2"/>
      <point x="520" y="5"/>
      <point x="542" y="9" type="curve"/>
      <point x="555" y="17"/>
      <point x="639" y="24"/>
      <point x="658" y="25" type="curve"/>
      <point x="660" y="25"/>
      <point x="662" y="26"/>
      <point x="664" y="26" type="curve"/>
      <point x="670" y="32"/>
      <point x="678" y="30"/>
      <point x="686" y="30" type="curve"/>
      <point x="708" y="31"/>
      <point x="743" y="32"/>
      <point x="764" y="37" type="curve"/>
      <point x="774" y="39"/>
      <point x="778" y="42"/>
      <point x="789" y="42" type="curve"/>
      <point x="794" y="42"/>
      <point x="805" y="44"/>
      <point x="809" y="40" type="curve"/>
      <point x="815" y="34"/>
      <point x="802" y="14"/>
      <point x="800" y="6" type="curve"/>
      <point x="779" y="-63"/>
      <point x="742" y="-128"/>
      <point x="706" y="-191" type="curve"/>
      <point x="700" y="-202"/>
      <point x="699" y="-212"/>
    </contour>
  </outline>
</glyph>
<glyph name="Softsign-cy.ss01" format="2">
  <advance width="437"/>
  <outline>
    <contour>
      <point x="228" y="-60" type="curve"/>
      <point x="243" y="-61"/>
      <point x="278" y="-50"/>
      <point x="290" y="-43" type="curve"/>
      <point x="391" y="16"/>
      <point x="504" y="128"/>
      <point x="465" y="256" type="curve"/>
      <point x="445" y="321"/>
      <point x="391" y="371"/>
      <point x="329" y="397" type="curve"/>
      <point x="317" y="402"/>
      <point x="303" y="405"/>
      <point x="294" y="416" type="curve"/>
      <point x="316" y="489"/>
      <point x="353" y="565"/>
      <point x="390" y="632" type="curve"/>
      <point x="396" y="643"/>
      <point x="403" y="663"/>
      <point x="397" y="675" type="curve"/>
      <point x="388" y="696"/>
      <point x="345" y="709"/>
      <point x="335" y="683" type="curve"/>
      <point x="318" y="638"/>
      <point x="298" y="594"/>
      <point x="276" y="551" type="curve"/>
      <point x="262" y="523"/>
      <point x="255" y="490"/>
      <point x="242" y="461" type="curve"/>
      <point x="233" y="441"/>
      <point x="197" y="324"/>
      <point x="186" y="311" type="curve"/>
      <point x="172" y="252"/>
      <point x="89" y="38"/>
      <point x="104" y="-8" type="curve"/>
      <point x="106" y="-14"/>
      <point x="136" y="-39"/>
      <point x="142" y="-42" type="curve"/>
      <point x="173" y="-55"/>
      <point x="196" y="-58"/>
    </contour>
    <contour>
      <point x="230" y="3" type="curve"/>
      <point x="204" y="-5"/>
      <point x="194" y="2"/>
      <point x="170" y="12" type="curve"/>
      <point x="171" y="15"/>
      <point x="173" y="18"/>
      <point x="173" y="22" type="curve"/>
      <point x="175" y="51"/>
      <point x="181" y="74"/>
      <point x="188" y="102" type="curve"/>
      <point x="210" y="191"/>
      <point x="238" y="274"/>
      <point x="269" y="359" type="curve"/>
      <point x="291" y="365"/>
      <point x="335" y="338"/>
      <point x="355" y="325" type="curve"/>
      <point x="369" y="316"/>
      <point x="392" y="295"/>
      <point x="400" y="280" type="curve"/>
      <point x="412" y="258"/>
      <point x="405" y="238"/>
      <point x="413" y="219" type="curve"/>
      <point x="408" y="209"/>
      <point x="411" y="197"/>
      <point x="409" y="186" type="curve"/>
      <point x="405" y="164"/>
      <point x="394" y="142"/>
      <point x="382" y="123" type="curve"/>
      <point x="351" y="74"/>
      <point x="286" y="20"/>
    </contour>
  </outline>
</glyph>
<glyph name="Ze-cy.ss01" format="2">
  <advance width="479"/>
  <outline>
    <contour>
      <point x="293" y="-49" type="curve"/>
      <point x="301" y="-43"/>
      <point x="312" y="-45"/>
      <point x="321" y="-43" type="curve"/>
      <point x="330" y="-41"/>
      <point x="337" y="-31"/>
      <point x="347" y="-36" type="curve"/>
      <point x="370" y="-25"/>
      <point x="392" y="-17"/>
      <point x="410" y="2" type="curve"/>
      <point x="422" y="15"/>
      <point x="442" y="25"/>
      <point x="452" y="40" type="curve"/>
      <point x="466" y="62"/>
      <point x="484" y="86"/>
      <point x="483" y="113" type="curve"/>
      <point x="508" y="245"/>
      <point x="453" y="272"/>
      <point x="413" y="309" type="curve"/>
      <point x="461" y="339"/>
      <point x="491" y="352"/>
      <point x="532" y="394" type="curve"/>
      <point x="566" y="434"/>
      <point x="581" y="471"/>
      <point x="581" y="524" type="curve"/>
      <point x="581" y="586"/>
      <point x="568" y="622"/>
      <point x="518" y="661" type="curve"/>
      <point x="511" y="666"/>
      <point x="503" y="670"/>
      <point x="495" y="671" type="curve"/>
      <point x="483" y="673"/>
      <point x="471" y="677"/>
      <point x="459" y="680" type="curve"/>
      <point x="439" y="685"/>
      <point x="432" y="679"/>
      <point x="414" y="677" type="curve"/>
      <point x="399" y="675"/>
      <point x="378" y="671"/>
      <point x="364" y="665" type="curve"/>
      <point x="351" y="660"/>
      <point x="334" y="646"/>
      <point x="322" y="637" type="curve"/>
      <point x="273" y="601"/>
      <point x="257" y="582"/>
      <point x="235" y="525" type="curve"/>
      <point x="249" y="500"/>
      <point x="251" y="497"/>
      <point x="275" y="481" type="curve"/>
      <point x="294" y="490"/>
      <point x="302" y="519"/>
      <point x="311" y="537" type="curve"/>
      <point x="322" y="559"/>
      <point x="350" y="577"/>
      <point x="370" y="590" type="curve"/>
      <point x="412" y="618"/>
      <point x="472" y="625"/>
      <point x="515" y="595" type="curve"/>
      <point x="520" y="575"/>
      <point x="527" y="552"/>
      <point x="522" y="532" type="curve"/>
      <point x="497" y="435"/>
      <point x="430" y="392"/>
      <point x="344" y="349" type="curve"/>
      <point x="327" y="340"/>
      <point x="307" y="343"/>
      <point x="294" y="336" type="curve"/>
      <point x="273" y="338"/>
      <point x="280" y="340"/>
      <point x="261" y="329" type="curve"/>
      <point x="245" y="313"/>
      <point x="266" y="290"/>
      <point x="276" y="277" type="curve"/>
      <point x="282" y="269"/>
      <point x="289" y="271"/>
      <point x="297" y="267" type="curve"/>
      <point x="303" y="264"/>
      <point x="304" y="267"/>
      <point x="310" y="268" type="curve"/>
      <point x="347" y="276"/>
      <point x="397" y="259"/>
      <point x="408" y="207" type="curve"/>
      <point x="413" y="200"/>
      <point x="412" y="193"/>
      <point x="414" y="185" type="curve"/>
      <point x="420" y="161"/>
      <point x="422" y="142"/>
      <point x="413" y="118" type="curve"/>
      <point x="377" y="23"/>
      <point x="214" y="-41"/>
      <point x="149" y="59" type="curve"/>
      <point x="155" y="83"/>
      <point x="196" y="90"/>
      <point x="149" y="123" type="curve"/>
      <point x="120" y="127"/>
      <point x="81" y="87"/>
      <point x="86" y="60" type="curve"/>
      <point x="90" y="40"/>
      <point x="153" y="-19"/>
      <point x="173" y="-27" type="curve"/>
      <point x="201" y="-53"/>
      <point x="257" y="-47"/>
    </contour>
  </outline>
</glyph>
